<svg width="18" height="27" viewBox="0 0 18 27" fill="none" xmlns="http://www.w3.org/2000/svg">
<path fill-rule="evenodd" clip-rule="evenodd" d="M11.7473 7.5829C10.4177 6.99048 8.93223 6.84371 7.51243 7.1645C6.09263 7.48528 4.81456 8.25643 3.86884 9.36292C2.92312 10.4694 2.36041 11.852 2.26463 13.3044C2.16886 14.7568 2.54516 16.2013 3.3374 17.4224C4.12964 18.6435 5.29539 19.5758 6.66077 20.0802C8.02615 20.5847 9.51802 20.6342 10.9139 20.2215C12.3097 19.8088 13.5348 18.956 14.4063 17.7901C15.2778 16.6243 15.7492 15.208 15.75 13.7524V13.0628C15.75 12.6486 16.0858 12.3128 16.5 12.3128C16.9142 12.3128 17.25 12.6486 17.25 13.0628V13.7528C17.249 15.5319 16.6729 17.2634 15.6077 18.6883C14.5425 20.1132 13.0452 21.1556 11.3392 21.66C9.63313 22.1644 7.80974 22.1038 6.14094 21.4873C4.47214 20.8708 3.04734 19.7313 2.07904 18.2388C1.11074 16.7464 0.650828 14.9809 0.767883 13.2057C0.884939 11.4305 1.5727 9.74073 2.72858 8.38834C3.88447 7.03596 5.44655 6.09345 7.18186 5.70138C8.91716 5.30931 10.7327 5.48869 12.3578 6.21276C12.7361 6.38134 12.9062 6.82472 12.7376 7.20308C12.569 7.58143 12.1256 7.75148 11.7473 7.5829Z" fill="white"/>
<path fill-rule="evenodd" clip-rule="evenodd" d="M17.0301 7.22223C17.3231 7.51498 17.3233 7.98985 17.0306 8.28289L9.5306 15.7904C9.38997 15.9312 9.19917 16.0103 9.00019 16.0103C8.80122 16.0104 8.61037 15.9314 8.46967 15.7907L6.21967 13.5407C5.92678 13.2478 5.92678 12.7729 6.21967 12.48C6.51257 12.1871 6.98744 12.1871 7.28033 12.48L8.99974 14.1994L15.9694 7.22276C16.2622 6.92972 16.737 6.92949 17.0301 7.22223Z" fill="white"/>
</svg>
