<svg width="1440" height="1338" fill="none" xmlns="http://www.w3.org/2000/svg"><g id="Kolumna i shape"><path id="Rectangle" d="M1500 463.251L84.124 177.453C13.3 163.156-55.24 212.736-71.914 290.323L-297 1338l1517-177.44c53.92-6.3 99.24-47.62 115.21-105.02L1500 463.251z" fill="#fff"/><g id="Asset 2 4"><g id="—ÎÓÈ_1"><g id="Group" opacity=".5"><path id="Vector" style="mix-blend-mode:lighten" opacity=".4" d="M-28.59 381.714L-102 346.519l146.048-69.151 73.43 35.195-146.067 69.151z" fill="url(#paint0_linear)"/><path id="Vector_2" style="mix-blend-mode:lighten" opacity=".4" d="M264.551 382l73.43-35.211-146.048-69.151-73.43 35.211L264.551 382z" fill="url(#paint1_linear)"/></g><g id="Group_2" opacity=".5"><path id="Vector_3" style="mix-blend-mode:lighten" opacity=".4" d="M-28.551 174.006l-73.43 35.21 146.067 69.152 73.411-35.211-146.048-69.151z" fill="url(#paint2_linear)"/><path id="Vector_4" style="mix-blend-mode:lighten" opacity=".4" d="M264.589 173.736L338 208.931l-146.048 69.151-73.43-35.195 146.067-69.151z" fill="url(#paint3_linear)"/></g><path id="Vector_5" d="M117.478 313.42l-74.957-35.544 74.957-35.528 74.957 35.528-74.957 35.544z" fill="#312A91"/><path id="Vector_6" d="M117.478 303.197l-74.957-35.545 74.957-35.528 74.957 35.528-74.957 35.545z" fill="#312A91"/><path id="Vector_7" style="mix-blend-mode:lighten" opacity=".7" d="M117.478 295.084l-57.866-27.432 57.866-27.432 57.866 27.432-57.866 27.432z" fill="url(#paint4_linear)"/><path id="Vector_8" d="M192.435 267.652v10.224l-74.957 35.544v-10.224l74.957-35.544z" fill="url(#paint5_linear)"/><path id="Vector_9" d="M42.52 267.652v10.224l74.958 35.544v-10.224l-74.957-35.544z" fill="#312A91"/><path id="Vector_10" style="mix-blend-mode:lighten" opacity=".7" d="M42.52 267.652v10.224l74.958 35.544v-10.224l-74.957-35.544z" fill="url(#paint6_linear)"/><path id="Vector_11" d="M117.478 160.544l-74.957-35.528 74.957-35.529 74.957 35.529-74.957 35.528z" fill="#312A91"/><path id="Vector_12" d="M117.478 150.32l-74.957-35.528 74.957-35.528 74.957 35.528-74.957 35.528z" fill="#312A91"/><path id="Vector_13" style="mix-blend-mode:lighten" opacity=".7" d="M117.478 150.32l-74.957-35.528 74.957-35.528 74.957 35.528-74.957 35.528z" fill="url(#paint7_linear)"/><path id="Vector_14" opacity=".3" d="M117.478 127.952l-27.744-13.16 27.744-13.16 27.744 13.16-27.744 13.16z" fill="#42E8E0"/><path id="Vector_15" opacity=".3" d="M117.478 110.569l18.328 8.684 9.416-4.461-27.744-13.16-27.744 13.16 9.416 4.461 18.328-8.684z" fill="#42E8E0"/><path id="Vector_16" d="M117.478 110.569l18.328 8.684 9.416-4.461-27.744-13.16-27.744 13.16 9.416 4.461 18.328-8.684z" fill="#42E8E0"/><path id="Vector_17" d="M192.435 114.792v10.224l-74.957 35.528V150.32l74.957-35.528z" fill="url(#paint8_linear)"/><path id="Vector_18" d="M42.52 114.792v10.224l74.958 35.528V150.32l-74.957-35.528z" fill="#312A91"/><path id="Vector_19" style="mix-blend-mode:lighten" opacity=".7" d="M42.52 114.792v10.224l74.958 35.528V150.32l-74.957-35.528z" fill="url(#paint9_linear)"/><path id="Vector_20" opacity=".3" d="M117.478 160.544v142.653l-74.957-35.545V125.016l74.957 35.528z" fill="#42E8E0"/><path id="Vector_21" opacity=".3" d="M59.612 133.112v134.54l57.866 27.432 57.866-27.432v-134.54l-57.866 27.432-57.866-27.432z" fill="#42E8E0"/><path id="Vector_22" opacity=".3" d="M117.478 160.544v134.54l-57.866-27.432v-134.54l57.866 27.432z" fill="#42E8E0"/><g id="Group_3" opacity=".7"><path id="Vector_23" opacity=".7" d="M117.478 240.078L59.612 212.63l57.866-27.432 57.866 27.432-57.866 27.448z" fill="url(#paint10_linear)"/><path id="Vector_24" opacity=".7" d="M175.344 212.63v55.023l-57.866 27.431v-55.006l57.866-27.448z" fill="url(#paint11_linear)"/><path id="Vector_25" opacity=".7" d="M59.612 212.63v55.023l57.866 27.431v-55.006L59.612 212.63z" fill="url(#paint12_linear)"/></g><path id="Vector_26" opacity=".5" d="M42.52 125.016v142.636l74.958 35.545 74.957-35.545V125.016l-74.957 35.528-74.957-35.528z" fill="#5CFFF3"/><path id="Vector_27" style="mix-blend-mode:lighten" d="M44.3 114.792l74.067-35.115-.889-.413-74.957 35.528 74.957 35.528.889-.412-74.068-35.116z" fill="url(#paint13_linear)"/><path id="Vector_28" opacity=".5" d="M42.52 125.016v142.636l1.025.493V125.508l-1.025-.492z" fill="#42E8E0"/><path id="Vector_29" opacity=".5" d="M192.435 125.016v142.636l-1.044.493V125.508l1.044-.492z" fill="#42E8E0"/><path id="Vector_30" opacity=".5" d="M117.478 160.544l-1.779-.842v142.669l1.779.826 1.779-.826V159.702l-1.779.842z" fill="#42E8E0"/><path id="Vector_31" style="mix-blend-mode:lighten" opacity=".7" d="M145.222 114.792L185.823 0H49.133l40.6 114.792 27.745 13.16 27.744-13.16z" fill="url(#paint14_linear)"/><path id="Vector_32" style="mix-blend-mode:lighten" opacity=".7" d="M145.222 114.792L168.635 0H64.677l25.057 114.792 27.744 13.16 27.744-13.16z" fill="url(#paint15_linear)"/><path id="Vector_33" opacity=".3" d="M96.79 85.265a.99.99 0 01-.23.626 1.35 1.35 0 01-.617.415c-.25.085-.526.108-.793.064a1.485 1.485 0 01-.703-.308 1.083 1.083 0 01-.375-.578.941.941 0 01.078-.65c.104-.207.28-.383.505-.507.226-.123.492-.19.763-.19.364 0 .713.12.97.33.258.212.403.499.403.798z" fill="#42E8E0"/><path id="Vector_34" opacity=".2" d="M106.4 72.501c0 .303-.147.594-.408.808a1.559 1.559 0 01-.984.335c-.371 0-.728-.12-.992-.334-.264-.214-.415-.504-.42-.809 0-.307.149-.602.414-.82.264-.217.623-.339.998-.339.371.004.725.128.985.345.261.217.407.51.407.814z" fill="#42E8E0"/><path id="Vector_35" opacity=".2" d="M146.073 69.04c.491 0 .889-.327.889-.73 0-.403-.398-.73-.889-.73s-.89.327-.89.73c0 .403.399.73.89.73z" fill="#42E8E0"/><path id="Vector_36" opacity=".2" d="M144.681 64.516c0 .314-.114.62-.326.882a1.9 1.9 0 01-.868.585c-.353.12-.742.151-1.117.09a2.097 2.097 0 01-.99-.434 1.53 1.53 0 01-.529-.813 1.33 1.33 0 01.11-.917 1.7 1.7 0 01.712-.713 2.245 2.245 0 011.074-.267c.513 0 1.005.167 1.367.464.363.298.567.702.567 1.123z" fill="#42E8E0"/><path id="Vector_37" opacity=".2" d="M101.199 70.93c.491 0 .889-.327.889-.73 0-.404-.398-.731-.889-.731s-.889.327-.889.73c0 .404.398.73.889.73z" fill="#42E8E0"/><path id="Vector_38" opacity=".3" d="M99.633 106.997c.758 0 1.373-.504 1.373-1.127 0-.622-.615-1.127-1.373-1.127s-1.373.505-1.373 1.127c0 .623.615 1.127 1.373 1.127z" fill="#42E8E0"/><path id="Vector_39" opacity=".2" d="M110.673 93.107c0 .305-.146.597-.407.814-.261.217-.615.34-.986.345-.374 0-.733-.122-.997-.34-.265-.217-.414-.512-.414-.82.005-.304.156-.594.42-.808.264-.214.621-.334.991-.334s.724.12.985.335c.261.214.408.505.408.808z" fill="#42E8E0"/><path id="Vector_40" opacity=".2" d="M105.414 91.535c.491 0 .889-.327.889-.73 0-.403-.398-.73-.889-.73s-.89.327-.89.73c0 .403.399.73.89.73z" fill="#42E8E0"/><path id="Vector_41" opacity=".3" d="M139.383 63.88c.091.248.294.456.567.583.273.127.595.162.899.098.304-.063.567-.22.733-.439a.853.853 0 00-.033-1.102 1.158 1.158 0 00-.354-.276 1.393 1.393 0 00-.458-.14 1.481 1.481 0 00-.488.019 1.34 1.34 0 00-.439.174c-.131.082-.24.185-.321.303a.838.838 0 00-.106.781z" fill="#42E8E0"/><path id="Vector_42" opacity=".2" d="M127.686 54.626c.059.2.189.38.374.519.185.138.416.228.663.258.247.03.5 0 .726-.089.226-.088.414-.23.541-.407a.889.889 0 00.172-.586.928.928 0 00-.256-.565 1.28 1.28 0 00-.597-.35 1.516 1.516 0 00-1.169.154c-.129.08-.239.18-.321.295a.904.904 0 00-.16.375.845.845 0 00.027.396z" fill="#42E8E0"/><path id="Vector_43" opacity=".2" d="M91.667 58.34c.016.091.054.178.113.256a.733.733 0 00.23.196.901.901 0 00.306.101.96.96 0 00.331-.01.871.871 0 00.297-.12.7.7 0 00.211-.21.546.546 0 00.04-.53.712.712 0 00-.375-.348.949.949 0 00-.562-.054.809.809 0 00-.463.267.562.562 0 00-.128.453z" fill="#42E8E0"/><path id="Vector_44" opacity=".2" d="M92.634 54.658c.101.339.36.632.722.816.361.184.796.244 1.211.168.21-.044.407-.121.58-.227.173-.107.319-.24.43-.392.11-.153.183-.322.213-.498.031-.175.02-.354-.034-.526a1.265 1.265 0 00-.276-.476 1.581 1.581 0 00-.478-.353 1.893 1.893 0 00-.605-.175 1.993 1.993 0 00-.642.028c-.411.096-.76.321-.97.628-.21.306-.264.668-.151 1.007z" fill="#42E8E0"/><path id="Vector_45" opacity=".2" d="M130.78 51.864a.682.682 0 00.363.402c.181.09.398.116.603.074a.806.806 0 00.491-.298.555.555 0 00.089-.496.697.697 0 00-.366-.398.964.964 0 00-.6-.078.887.887 0 00-.283.108.72.72 0 00-.209.19.54.54 0 00-.088.496z" fill="#42E8E0"/><path id="Vector_46" opacity=".2" d="M140.35 106.585a1.054 1.054 0 01-.981.095.836.836 0 01-.372-.293.624.624 0 01.076-.809.91.91 0 01.422-.243c.167-.045.347-.048.516-.009a.923.923 0 01.436.227.717.717 0 01.171.249.61.61 0 01-.053.558.778.778 0 01-.215.225z" fill="#42E8E0"/><path id="Vector_47" opacity=".2" d="M142.399 102.695a2.13 2.13 0 01-1.029.399 2.316 2.316 0 01-1.125-.146 1.84 1.84 0 01-.829-.641 1.355 1.355 0 01-.246-.913c.031-.317.178-.62.421-.868.244-.248.573-.43.944-.523.372-.092.768-.09 1.139.004.37.095.697.28.938.529.304.315.451.714.412 1.114-.04.401-.263.775-.625 1.045z" fill="#42E8E0"/><path id="Vector_48" opacity=".3" d="M139.557 98.965a.89.89 0 00-.222.55.875.875 0 00.187.56c.129.167.314.299.534.38.22.08.464.106.701.072a1.33 1.33 0 00.632-.259.978.978 0 00.351-.504.834.834 0 00-.049-.578 1.057 1.057 0 00-.432-.46 1.37 1.37 0 00-.435-.16 1.479 1.479 0 00-.476-.01 1.39 1.39 0 00-.445.14c-.136.07-.253.161-.346.269z" fill="#42E8E0"/><path id="Vector_49" opacity=".2" d="M140.582 85.725a.844.844 0 00-.053.663c.073.22.234.413.457.549.223.135.495.205.773.199.277-.007.543-.09.756-.236a.94.94 0 00.203-.36.832.832 0 00.015-.397.904.904 0 00-.173-.37 1.117 1.117 0 00-.335-.286 1.462 1.462 0 00-.878-.143c-.304.044-.577.18-.765.381z" fill="#42E8E0"/><path id="Vector_50" opacity=".2" d="M145.145 85.804a.576.576 0 00-.133.493.665.665 0 00.326.428c.085.05.181.086.283.106a.969.969 0 00.602-.082.757.757 0 00.227-.175.609.609 0 00.128-.232.537.537 0 00.01-.255.59.59 0 00-.109-.24.743.743 0 00-.213-.185.879.879 0 00-.284-.111.956.956 0 00-.608.077.747.747 0 00-.229.176z" fill="#42E8E0"/><g id="Group_4" opacity=".9" fill="#42E8E0"><path id="Vector_51" opacity=".9" d="M113.012 118.253c.1.3.306.569.591.774a2.16 2.16 0 001.013.378 2.32 2.32 0 001.099-.143c.341-.136.627-.35.821-.617.194-.267.288-.575.271-.886a1.414 1.414 0 00-.368-.862 1.936 1.936 0 00-.886-.553 2.345 2.345 0 00-1.111-.06 2.154 2.154 0 00-.704.264 1.743 1.743 0 00-.522.47 1.409 1.409 0 00-.256.6 1.32 1.32 0 00.052.635z"/><path id="Vector_52" opacity=".9" d="M118.734 109.537c.046.146.126.283.237.404.11.12.248.222.406.298.158.077.333.127.514.149.182.021.367.012.545-.025.178-.038.345-.104.491-.194.147-.091.271-.204.364-.334a1.01 1.01 0 00.18-.422.942.942 0 00-.03-.447c-.092-.295-.323-.547-.642-.702a1.67 1.67 0 00-1.059-.124c-.359.076-.667.266-.855.528a.971.971 0 00-.151.869z"/></g><path id="Vector_53" opacity=".3" d="M96.79 64.516a.99.99 0 01-.23.626 1.35 1.35 0 01-.617.415c-.25.086-.526.108-.793.064a1.485 1.485 0 01-.703-.308 1.082 1.082 0 01-.375-.577.941.941 0 01.078-.651c.104-.206.28-.382.505-.506.226-.124.492-.19.763-.19.364 0 .713.119.97.33.258.211.403.498.403.797z" fill="#42E8E0"/><path id="Vector_54" opacity=".2" d="M106.4 51.737c0 .304-.146.597-.407.813-.26.217-.614.341-.985.346-.375 0-.734-.123-.998-.34-.265-.217-.414-.512-.414-.82.005-.304.156-.595.42-.809.264-.213.621-.333.992-.333.369 0 .723.12.984.334.261.215.408.506.408.809z" fill="#42E8E0"/><path id="Vector_55" opacity=".2" d="M146.962 47.625a.64.64 0 01-.15.406.872.872 0 01-.399.269 1.07 1.07 0 01-.514.041.962.962 0 01-.455-.2.703.703 0 01-.244-.374.614.614 0 01.051-.422.778.778 0 01.328-.327 1.03 1.03 0 01.494-.123c.117-.003.234.015.343.05.109.037.208.09.291.159.084.068.149.15.193.239.043.09.065.185.062.282z" fill="#42E8E0"/><path id="Vector_56" opacity=".2" d="M144.681 43.767c0 .314-.114.621-.326.882a1.902 1.902 0 01-.868.585c-.353.12-.742.152-1.117.09a2.095 2.095 0 01-.99-.434 1.529 1.529 0 01-.529-.813 1.331 1.331 0 01.11-.917c.146-.29.394-.538.712-.713a2.244 2.244 0 011.074-.267c.513 0 1.005.167 1.367.465.363.297.567.701.567 1.122z" fill="#42E8E0"/><path id="Vector_57" opacity=".2" d="M101.199 50.18c.491 0 .889-.326.889-.73 0-.403-.398-.73-.889-.73s-.889.327-.889.73c0 .404.398.73.889.73z" fill="#42E8E0"/><path id="Vector_58" opacity=".3" d="M101.006 85.122a.99.99 0 01-.232.626 1.35 1.35 0 01-.616.415c-.25.085-.527.108-.793.064a1.486 1.486 0 01-.703-.308 1.083 1.083 0 01-.375-.577.942.942 0 01.078-.652c.104-.206.28-.382.505-.505.226-.124.492-.19.763-.19.364 0 .713.118.971.33.257.211.402.498.402.797z" fill="#42E8E0"/><path id="Vector_59" opacity=".2" d="M109.222 73.501c.769 0 1.392-.511 1.392-1.143 0-.631-.623-1.143-1.392-1.143-.768 0-1.392.512-1.392 1.143 0 .632.624 1.143 1.392 1.143z" fill="#42E8E0"/><path id="Vector_60" opacity=".2" d="M105.414 70.787c.491 0 .889-.327.889-.73 0-.404-.398-.73-.889-.73s-.89.326-.89.73c0 .403.399.73.89.73z" fill="#42E8E0"/><path id="Vector_61" opacity=".3" d="M139.383 43.132a.957.957 0 00.208.352c.097.104.218.192.356.259a1.478 1.478 0 00.925.104c.155-.034.3-.092.428-.171.127-.08.235-.179.315-.292a.833.833 0 00.127-.76.93.93 0 00-.208-.351 1.182 1.182 0 00-.356-.26 1.477 1.477 0 00-1.357.063 1.094 1.094 0 00-.319.294.827.827 0 00-.119.763z" fill="#42E8E0"/><path id="Vector_62" opacity=".2" d="M127.686 33.877c.059.2.189.38.374.519s.416.229.663.259c.247.03.5-.001.726-.09.226-.088.414-.23.541-.407a.89.89 0 00.172-.586.929.929 0 00-.256-.565 1.28 1.28 0 00-.597-.35 1.516 1.516 0 00-1.169.154c-.129.08-.239.18-.321.296a.904.904 0 00-.16.374.845.845 0 00.027.396z" fill="#42E8E0"/><path id="Vector_63" opacity=".2" d="M91.667 37.592c.037.126.118.24.234.328a.874.874 0 00.419.165c.156.02.315 0 .458-.055a.757.757 0 00.343-.257.56.56 0 00.109-.37.585.585 0 00-.162-.357.807.807 0 00-.377-.221.957.957 0 00-.463-.01.792.792 0 00-.472.295.552.552 0 00-.089.482z" fill="#42E8E0"/><path id="Vector_64" opacity=".2" d="M92.634 33.91c.106.336.366.627.726.81.36.184.793.246 1.207.173.409-.09.76-.304.982-.599.223-.295.3-.648.217-.988-.11-.334-.371-.621-.73-.801-.36-.18-.791-.24-1.203-.168-.41.083-.763.294-.987.587-.223.293-.3.647-.212.985z" fill="#42E8E0"/><path id="Vector_65" opacity=".2" d="M130.78 31.115a.639.639 0 00.237.322.88.88 0 00.416.16c.155.02.313 0 .454-.055a.758.758 0 00.34-.254.556.556 0 00-.041-.72.8.8 0 00-.368-.226.955.955 0 00-.741.087.723.723 0 00-.209.19.54.54 0 00-.088.496z" fill="#42E8E0"/><path id="Vector_66" opacity=".2" d="M140.35 85.82a.973.973 0 01-.462.163 1.04 1.04 0 01-.496-.075.815.815 0 01-.361-.287.611.611 0 01.075-.788.887.887 0 01.411-.238c.163-.044.338-.048.504-.01a.915.915 0 01.426.22.703.703 0 01.17.244.598.598 0 01-.053.551.768.768 0 01-.214.22z" fill="#42E8E0"/><path id="Vector_67" opacity=".2" d="M142.399 81.93c-.381.138-.805.17-1.21.093a2.038 2.038 0 01-1.038-.519 1.45 1.45 0 01-.456-.925c-.027-.34.081-.68.307-.966.164-.208.385-.381.645-.506s.552-.199.853-.215c.3-.016.602.026.879.123.278.097.524.245.719.434.195.188.334.412.405.652.071.24.073.492.005.733a1.494 1.494 0 01-.396.656c-.193.19-.437.342-.713.44z" fill="#42E8E0"/><path id="Vector_68" opacity=".3" d="M139.557 78.216a.89.89 0 00-.222.55.874.874 0 00.187.56c.129.167.314.3.534.38.22.08.464.106.701.073.237-.033.457-.124.632-.26a.977.977 0 00.351-.503.834.834 0 00-.049-.579 1.056 1.056 0 00-.432-.459 1.37 1.37 0 00-.435-.16 1.476 1.476 0 00-.476-.011c-.158.022-.309.07-.445.14s-.253.162-.346.27z" fill="#42E8E0"/><path id="Vector_69" opacity=".2" d="M140.582 64.913a.893.893 0 00-.216.56.89.89 0 00.198.564c.133.168.322.3.546.38.223.08.47.104.71.07.24-.036.462-.128.638-.266a.993.993 0 00.353-.511.854.854 0 00-.051-.586 1.075 1.075 0 00-.438-.465 1.48 1.48 0 00-.934-.167 1.311 1.311 0 00-.806.42z" fill="#42E8E0"/><path id="Vector_70" opacity=".2" d="M145.145 65.088a.576.576 0 00-.133.492.664.664 0 00.326.428c.085.05.181.086.283.106a.969.969 0 00.602-.082.754.754 0 00.227-.175.607.607 0 00.128-.232.537.537 0 00.01-.255.59.59 0 00-.109-.24.743.743 0 00-.213-.185.879.879 0 00-.284-.111.956.956 0 00-.608.077.747.747 0 00-.229.177z" fill="#42E8E0"/><path id="Vector_71" opacity=".3" d="M96.79 43.767a.99.99 0 01-.23.627 1.35 1.35 0 01-.617.415c-.25.085-.526.107-.793.064a1.485 1.485 0 01-.703-.309 1.083 1.083 0 01-.375-.577.941.941 0 01.078-.651c.104-.206.28-.382.505-.506.226-.124.492-.19.763-.19.364 0 .713.119.97.33.258.212.403.498.403.797z" fill="#42E8E0"/><path id="Vector_72" opacity=".2" d="M106.4 30.988c0 .305-.146.597-.407.814-.26.217-.614.34-.985.345-.375 0-.734-.122-.998-.34-.265-.217-.414-.512-.414-.819.005-.305.156-.595.42-.81.264-.213.621-.333.992-.333.369 0 .723.12.984.335.261.214.408.505.408.808z" fill="#42E8E0"/><path id="Vector_73" opacity=".2" d="M146.073 27.543c.491 0 .889-.327.889-.73 0-.403-.398-.73-.889-.73s-.89.327-.89.73c0 .403.399.73.89.73z" fill="#42E8E0"/><path id="Vector_74" opacity=".2" d="M144.681 23.003c0 .314-.114.62-.326.882a1.902 1.902 0 01-.868.585c-.353.12-.742.151-1.117.09a2.096 2.096 0 01-.99-.435 1.529 1.529 0 01-.529-.812 1.331 1.331 0 01.11-.918 1.7 1.7 0 01.712-.712 2.245 2.245 0 011.074-.268c.513 0 1.005.168 1.367.465.363.298.567.702.567 1.123z" fill="#42E8E0"/><path id="Vector_75" opacity=".2" d="M101.199 29.416c.491 0 .889-.327.889-.73 0-.403-.398-.73-.889-.73s-.889.327-.889.73c0 .403.398.73.889.73z" fill="#42E8E0"/><path id="Vector_76" opacity=".3" d="M101.006 64.373a.99.99 0 01-.232.626 1.35 1.35 0 01-.616.415c-.25.086-.527.108-.793.065a1.487 1.487 0 01-.703-.309 1.083 1.083 0 01-.375-.577.942.942 0 01.078-.651c.104-.206.28-.382.505-.506.226-.124.492-.19.763-.19.364 0 .713.119.971.33.257.212.402.498.402.797z" fill="#42E8E0"/><path id="Vector_77" opacity=".2" d="M110.673 51.61c0 .303-.147.593-.408.808a1.56 1.56 0 01-.985.335c-.37 0-.727-.12-.991-.334-.264-.214-.415-.505-.42-.81 0-.307.149-.601.414-.819.264-.217.623-.34.997-.34.371.005.725.129.986.346.261.217.407.51.407.814z" fill="#42E8E0"/><path id="Vector_78" opacity=".2" d="M105.414 50.038c.491 0 .889-.327.889-.73 0-.404-.398-.73-.889-.73s-.89.326-.89.73c0 .403.399.73.89.73z" fill="#42E8E0"/><path id="Vector_79" opacity=".3" d="M139.383 22.368a.91.91 0 00.197.355c.094.107.213.196.35.265a1.454 1.454 0 00.923.11c.161-.027.313-.081.448-.159.135-.077.25-.176.337-.29a.909.909 0 00.171-.376.837.837 0 00-.023-.4.944.944 0 00-.213-.361 1.176 1.176 0 00-.369-.264 1.477 1.477 0 00-.951-.087 1.32 1.32 0 00-.426.166 1.08 1.08 0 00-.316.288.877.877 0 00-.156.366.82.82 0 00.028.387z" fill="#42E8E0"/><path id="Vector_80" opacity=".2" d="M127.686 13.129c.059.2.189.38.374.518.185.139.416.23.663.26.247.03.5-.002.726-.09.226-.088.414-.23.541-.407a.889.889 0 00.172-.586.929.929 0 00-.256-.565 1.276 1.276 0 00-.597-.351 1.518 1.518 0 00-.733-.018 1.352 1.352 0 00-.44.169c-.131.08-.242.18-.325.296a.84.84 0 00-.125.774z" fill="#42E8E0"/><path id="Vector_81" opacity=".2" d="M91.667 16.843c.069.15.202.274.375.348a.949.949 0 00.562.055.809.809 0 00.463-.268.562.562 0 00.015-.708.733.733 0 00-.23-.195.897.897 0 00-.306-.102.963.963 0 00-.331.01.873.873 0 00-.297.12.701.701 0 00-.211.21.546.546 0 00-.04.53z" fill="#42E8E0"/><path id="Vector_82" opacity=".2" d="M92.634 13.16c.106.338.365.628.726.812.36.183.793.245 1.207.173.23-.03.448-.097.643-.2.195-.103.362-.237.49-.396.128-.159.214-.337.253-.525.039-.187.03-.38-.027-.564a1.285 1.285 0 00-.303-.506 1.627 1.627 0 00-.526-.363 2 2 0 00-1.341-.082c-.414.1-.763.329-.972.638-.21.308-.264.672-.15 1.013z" fill="#42E8E0"/><path id="Vector_83" opacity=".2" d="M130.78 10.366a.639.639 0 00.237.323.88.88 0 00.416.16c.155.018.313 0 .454-.056a.758.758 0 00.34-.253.556.556 0 00-.041-.721.8.8 0 00-.368-.226.955.955 0 00-.458-.02.889.889 0 00-.283.108.723.723 0 00-.209.19.54.54 0 00-.088.496z" fill="#42E8E0"/><path id="Vector_84" opacity=".2" d="M140.35 65.088a.938.938 0 01-.298.139 1.053 1.053 0 01-.671-.043.856.856 0 01-.268-.176.695.695 0 01-.171-.249.603.603 0 01.052-.558.772.772 0 01.215-.225c.182-.102.404-.145.623-.121a.955.955 0 01.56.253.654.654 0 01.209.496.673.673 0 01-.251.484z" fill="#42E8E0"/><path id="Vector_85" opacity=".2" d="M142.399 61.182c-.381.137-.805.17-1.21.093a2.038 2.038 0 01-1.038-.52 1.45 1.45 0 01-.456-.925c-.027-.34.081-.68.307-.966.164-.207.385-.38.645-.506a2.31 2.31 0 011.732-.092c.278.097.524.245.719.434.195.189.334.412.405.653.071.24.073.491.005.732a1.494 1.494 0 01-.396.657c-.193.19-.437.341-.713.44z" fill="#42E8E0"/><path id="Vector_86" opacity=".3" d="M139.557 57.452a.878.878 0 00-.2.747c.054.26.23.494.49.65.13.077.277.132.432.163.156.03.317.035.475.015.158-.02.31-.067.446-.136.136-.068.255-.158.349-.265a.875.875 0 00.2-.746 1.012 1.012 0 00-.49-.65 1.356 1.356 0 00-.432-.164 1.479 1.479 0 00-.475-.015c-.158.02-.31.067-.446.136a1.167 1.167 0 00-.349.265z" fill="#42E8E0"/><path id="Vector_87" opacity=".2" d="M140.582 44.148a.902.902 0 00-.204.762c.054.267.231.505.494.667.27.12.583.156.882.1.299-.057.563-.202.741-.407a.896.896 0 00.228-.707.982.982 0 00-.401-.653 1.476 1.476 0 00-.929-.173 1.318 1.318 0 00-.811.411z" fill="#42E8E0"/><path id="Vector_88" opacity=".2" d="M145.145 44.307a.576.576 0 00-.133.493.665.665 0 00.326.428.97.97 0 00.566.056.834.834 0 00.472-.263.578.578 0 00.144-.453.63.63 0 00-.254-.42.954.954 0 00-.6-.109.848.848 0 00-.521.268z" fill="#42E8E0"/><g id="Kropki" fill="#42E8E0"><path id="k1" opacity=".9" d="M123.471 101.568c1.228 0 2.224-.817 2.224-1.825 0-1.009-.996-1.826-2.224-1.826-1.228 0-2.223.817-2.223 1.826 0 1.008.995 1.825 2.223 1.825z"/><path id="k4" opacity=".9" d="M118.406 81.55c.101.3.306.569.592.774.285.204.637.336 1.012.378.376.041.758-.008 1.099-.143.342-.135.627-.35.821-.617.194-.267.289-.575.271-.886a1.416 1.416 0 00-.368-.862 1.939 1.939 0 00-.886-.553 2.333 2.333 0 00-1.11-.06 2.157 2.157 0 00-.705.264 1.757 1.757 0 00-.522.47 1.408 1.408 0 00-.256.6c-.035.213-.017.428.052.635z"/><path id="k5" opacity=".9" d="M123.471 80.82c1.228 0 2.224-.818 2.224-1.826s-.996-1.826-2.224-1.826c-1.228 0-2.223.818-2.223 1.826s.995 1.826 2.223 1.826z"/><path id="k8" opacity=".9" d="M118.406 60.801c.101.3.306.57.592.774.285.205.637.336 1.012.378.376.042.758-.008 1.099-.143.342-.135.627-.35.821-.617.194-.267.289-.575.271-.886a1.416 1.416 0 00-.368-.862 1.939 1.939 0 00-.886-.552 2.333 2.333 0 00-1.11-.06 2.16 2.16 0 00-.705.264 1.757 1.757 0 00-.522.47 1.409 1.409 0 00-.256.6c-.035.212-.017.428.052.634z"/><path id="k2" opacity=".9" d="M113.012 97.504c.06.21.172.406.328.579.155.172.352.317.578.425.226.109.476.178.736.205.26.027.523.01.775-.05.512-.107.952-.377 1.222-.751.271-.374.349-.82.218-1.241-.131-.421-.46-.782-.915-1.004a2.375 2.375 0 00-1.511-.179 2.158 2.158 0 00-.723.268c-.215.129-.396.293-.53.483a1.33 1.33 0 00-.178 1.265z"/><path id="k3" opacity=".9" d="M118.735 88.725c.09.295.318.548.635.705.318.156.698.202 1.056.129.359-.074.668-.262.858-.522a.972.972 0 00.158-.867 1.08 1.08 0 00-.233-.404 1.338 1.338 0 00-.403-.3 1.686 1.686 0 00-1.056-.129 1.542 1.542 0 00-.492.19c-.148.09-.272.202-.366.331a1.027 1.027 0 00-.184.42.939.939 0 00.027.447z"/><path id="k9" opacity=".9" d="M123.471 60.071c1.228 0 2.224-.817 2.224-1.826 0-1.008-.996-1.825-2.224-1.825-1.228 0-2.223.817-2.223 1.825 0 1.009.995 1.826 2.223 1.826z"/><path id="k10" opacity=".9" d="M118.406 40.053c.131.42.46.782.915 1.004.455.221.999.286 1.512.178.512-.107.952-.377 1.222-.75.27-.374.349-.821.218-1.242a1.538 1.538 0 00-.336-.577 1.923 1.923 0 00-.579-.427 2.294 2.294 0 00-.734-.213 2.427 2.427 0 00-.778.034 2.216 2.216 0 00-.702.276c-.21.129-.386.29-.52.476-.134.184-.222.39-.259.602-.038.213-.024.43.041.639z"/><path id="k6" opacity=".9" d="M113.012 76.756c.06.209.172.406.328.578.155.173.352.318.578.426.226.108.476.178.736.204.26.027.523.01.775-.05.512-.107.952-.377 1.222-.75.271-.374.349-.82.218-1.242-.131-.42-.46-.782-.915-1.004a2.376 2.376 0 00-1.511-.178 2.163 2.163 0 00-.723.267 1.75 1.75 0 00-.53.483 1.33 1.33 0 00-.178 1.265z"/><path id="k7" opacity=".9" d="M118.735 67.977c.066.22.21.418.414.57.204.153.459.253.731.286.273.034.552 0 .801-.097.25-.097.459-.252.6-.447a.98.98 0 00.195-.645 1.024 1.024 0 00-.275-.625 1.407 1.407 0 00-.652-.394 1.682 1.682 0 00-1.3.159 1.25 1.25 0 00-.365.329 1.002 1.002 0 00-.18.42.931.931 0 00.031.444z"/></g></g></g></g><defs><linearGradient id="paint0_linear" x1="-43.491" y1="353.531" x2="1.416" y2="257.13" gradientUnits="userSpaceOnUse"><stop stop-color="#180D5B"/><stop offset=".09" stop-color="#1A1660"/><stop offset=".25" stop-color="#1E2D6E"/><stop offset=".44" stop-color="#255385"/><stop offset=".66" stop-color="#2F87A5"/><stop offset=".9" stop-color="#3CCACE"/><stop offset="1" stop-color="#42E8E0"/></linearGradient><linearGradient id="paint1_linear" x1="235250" y1="-37690.2" x2="232279" y2="-44032.2" gradientUnits="userSpaceOnUse"><stop stop-color="#180D5B"/><stop offset=".09" stop-color="#1A1660"/><stop offset=".25" stop-color="#1E2D6E"/><stop offset=".44" stop-color="#255385"/><stop offset=".66" stop-color="#2F87A5"/><stop offset=".9" stop-color="#3CCACE"/><stop offset="1" stop-color="#42E8E0"/></linearGradient><linearGradient id="paint2_linear" x1="38190.5" y1="-263051" x2="41161" y2="-256709" gradientUnits="userSpaceOnUse"><stop stop-color="#180D5B"/><stop offset=".09" stop-color="#1A1660"/><stop offset=".25" stop-color="#1E2D6E"/><stop offset=".44" stop-color="#255385"/><stop offset=".66" stop-color="#2F87A5"/><stop offset=".9" stop-color="#3CCACE"/><stop offset="1" stop-color="#42E8E0"/></linearGradient><linearGradient id="paint3_linear" x1="69938.3" y1="-249451" x2="66968.3" y2="-243110" gradientUnits="userSpaceOnUse"><stop stop-color="#180D5B"/><stop offset=".09" stop-color="#1A1660"/><stop offset=".25" stop-color="#1E2D6E"/><stop offset=".44" stop-color="#255385"/><stop offset=".66" stop-color="#2F87A5"/><stop offset=".9" stop-color="#3CCACE"/><stop offset="1" stop-color="#42E8E0"/></linearGradient><linearGradient id="paint4_linear" x1="19137" y1="11034.7" x2="14006.3" y2="5099.68" gradientUnits="userSpaceOnUse"><stop stop-color="#180D5B"/><stop offset=".09" stop-color="#1A1660"/><stop offset=".25" stop-color="#1E2D6E"/><stop offset=".44" stop-color="#255385"/><stop offset=".66" stop-color="#2F87A5"/><stop offset=".9" stop-color="#3CCACE"/><stop offset="1" stop-color="#42E8E0"/></linearGradient><linearGradient id="paint5_linear" x1="92.557" y1="290.528" x2="199.705" y2="290.528" gradientUnits="userSpaceOnUse"><stop stop-color="#2B237C"/><stop offset="1" stop-color="#180D5B"/></linearGradient><linearGradient id="paint6_linear" x1="125.308" y1="311.69" x2="38.03" y2="251.266" gradientUnits="userSpaceOnUse"><stop stop-color="#180D5B"/><stop offset=".1" stop-color="#1A1560"/><stop offset=".25" stop-color="#1E2D6E"/><stop offset=".28" stop-color="#1F3372"/><stop offset=".38" stop-color="#22447C"/><stop offset=".57" stop-color="#2B7097"/><stop offset=".83" stop-color="#39B7C2"/><stop offset="1" stop-color="#42E8E0"/></linearGradient><linearGradient id="paint7_linear" x1="20936.1" y1="6410.4" x2="16120.1" y2="-189.076" gradientUnits="userSpaceOnUse"><stop stop-color="#180D5B"/><stop offset=".09" stop-color="#1A1660"/><stop offset=".25" stop-color="#1E2D6E"/><stop offset=".44" stop-color="#255385"/><stop offset=".66" stop-color="#2F87A5"/><stop offset=".9" stop-color="#3CCACE"/><stop offset="1" stop-color="#42E8E0"/></linearGradient><linearGradient id="paint8_linear" x1="7660.44" y1="4082.38" x2="11814.6" y2="4082.38" gradientUnits="userSpaceOnUse"><stop stop-color="#2B237C"/><stop offset="1" stop-color="#180D5B"/></linearGradient><linearGradient id="paint9_linear" x1="8371.78" y1="4520.23" x2="5950.05" y2="2283.56" gradientUnits="userSpaceOnUse"><stop stop-color="#180D5B"/><stop offset=".1" stop-color="#1A1560"/><stop offset=".25" stop-color="#1E2D6E"/><stop offset=".28" stop-color="#1F3372"/><stop offset=".38" stop-color="#22447C"/><stop offset=".57" stop-color="#2B7097"/><stop offset=".83" stop-color="#39B7C2"/><stop offset="1" stop-color="#42E8E0"/></linearGradient><linearGradient id="paint10_linear" x1="22023.3" y1="8396.87" x2="10702.6" y2="3487.28" gradientUnits="userSpaceOnUse"><stop stop-color="#180D5B"/><stop offset=".09" stop-color="#1A1660"/><stop offset=".25" stop-color="#1E2D6E"/><stop offset=".44" stop-color="#255385"/><stop offset=".66" stop-color="#2F87A5"/><stop offset=".9" stop-color="#3CCACE"/><stop offset="1" stop-color="#42E8E0"/></linearGradient><linearGradient id="paint11_linear" x1="9135.35" y1="14863.2" x2="3975.77" y2="12511.5" gradientUnits="userSpaceOnUse"><stop stop-color="#180D5B"/><stop offset=".09" stop-color="#1A1660"/><stop offset=".25" stop-color="#1E2D6E"/><stop offset=".44" stop-color="#255385"/><stop offset=".66" stop-color="#2F87A5"/><stop offset=".9" stop-color="#3CCACE"/><stop offset="1" stop-color="#42E8E0"/></linearGradient><linearGradient id="paint12_linear" x1="10257.5" y1="14984.4" x2="6263.87" y2="13489.7" gradientUnits="userSpaceOnUse"><stop stop-color="#180D5B"/><stop offset=".09" stop-color="#1A1660"/><stop offset=".25" stop-color="#1E2D6E"/><stop offset=".44" stop-color="#255385"/><stop offset=".66" stop-color="#2F87A5"/><stop offset=".9" stop-color="#3CCACE"/><stop offset="1" stop-color="#42E8E0"/></linearGradient><linearGradient id="paint13_linear" x1="9632.58" y1="5424.84" x2="5693.97" y2="4475.13" gradientUnits="userSpaceOnUse"><stop stop-color="#180D5B"/><stop offset=".09" stop-color="#1A1660"/><stop offset=".25" stop-color="#1E2D6E"/><stop offset=".44" stop-color="#255385"/><stop offset=".66" stop-color="#2F87A5"/><stop offset=".9" stop-color="#3CCACE"/><stop offset="1" stop-color="#42E8E0"/></linearGradient><linearGradient id="paint14_linear" x1="117.478" y1="127.952" x2="117.478" y2="0" gradientUnits="userSpaceOnUse"><stop stop-color="#42E8E0"/><stop offset=".1" stop-color="#3CCACE"/><stop offset=".34" stop-color="#2F87A5"/><stop offset=".56" stop-color="#255385"/><stop offset=".75" stop-color="#1E2D6E"/><stop offset=".91" stop-color="#1A1660"/><stop offset="1" stop-color="#180D5B"/></linearGradient><linearGradient id="paint15_linear" x1="11822.3" y1="10313" x2="11822.3" y2="0" gradientUnits="userSpaceOnUse"><stop stop-color="#42E8E0"/><stop offset=".1" stop-color="#3CCACE"/><stop offset=".34" stop-color="#2F87A5"/><stop offset=".56" stop-color="#255385"/><stop offset=".75" stop-color="#1E2D6E"/><stop offset=".91" stop-color="#1A1660"/><stop offset="1" stop-color="#180D5B"/></linearGradient></defs></svg>