<svg width="635" height="497" fill="none" xmlns="http://www.w3.org/2000/svg"><g id="Dla poczatkujacych"><path id="Vector" d="M362.274 137.902l-.295-.533 68.674-39.99.157.08 70.981 38.983-.315.533-70.804-38.885-68.398 39.812z" fill="#42E8E0"/><g id="Group" opacity=".1"><path id="Vector_2" opacity=".1" d="M291.333 328.006l-29.705-17.164v34.328l29.705 17.163 29.705-17.163v-34.328l-29.705 17.164z" fill="#42E8E0"/><path id="Vector_3" opacity=".1" d="M291.333 362.333l-29.705-17.163v-34.328l29.705 17.164v34.327z" fill="#42E8E0"/><path id="Vector_4" opacity=".1" d="M321.038 345.17l-29.705 17.163v-34.327l29.705-17.164v34.328z" fill="#2FD3C7"/><path id="Vector_5" opacity=".1" d="M291.333 328.006l-29.705-17.164 29.705-17.164 29.705 17.164-29.705 17.164z" fill="#42E8E0"/><path id="Vector_6" opacity=".1" d="M291.333 328.006l-28.404-16.414-1.301.749 29.705 17.144 29.705-17.144-1.281-.749-28.424 16.414z" fill="#fff"/><path id="Vector_7" opacity=".1" d="M329.908 350.042l-29.685-17.163v34.327l29.685 17.144 29.705-17.144v-34.327l-29.705 17.163z" fill="#42E8E0"/><path id="Vector_8" opacity=".1" d="M329.908 384.37l-29.685-17.164v-34.327l29.685 17.163v34.328z" fill="#42E8E0"/><path id="Vector_9" opacity=".1" d="M359.613 367.206l-29.705 17.164v-34.328l29.705-17.163v34.327z" fill="#2FD3C7"/><path id="Vector_10" opacity=".1" d="M329.908 350.042l-29.685-17.163 29.685-17.164 29.705 17.164-29.705 17.163z" fill="#42E8E0"/><path id="Vector_11" opacity=".1" d="M329.908 350.042l-28.404-16.433-1.281.749 29.685 17.164 29.705-17.164-1.281-.73-28.424 16.414z" fill="#fff"/><path id="Vector_12" opacity=".1" d="M368.483 372.059l-29.685-17.144v34.308l29.685 17.164 29.705-17.164v-34.308l-29.705 17.144z" fill="#42E8E0"/><path id="Vector_13" opacity=".1" d="M368.483 406.387l-29.685-17.164v-34.308l29.685 17.144v34.328z" fill="#42E8E0"/><path id="Vector_14" opacity=".1" d="M398.188 389.223l-29.705 17.164v-34.328l29.705-17.144v34.308z" fill="#2FD3C7"/><path id="Vector_15" opacity=".1" d="M368.483 372.059l-29.685-17.144 29.685-17.163 29.705 17.163-29.705 17.144z" fill="#42E8E0"/><path id="Vector_16" opacity=".1" d="M368.483 372.059l-28.404-16.414-1.281.75 29.685 17.164 29.705-17.164v-1.48l-29.705 17.144z" fill="#fff"/><path id="Vector_17" opacity=".1" d="M252.758 351.522l-29.705-17.164v34.328l29.705 17.164 29.705-17.164v-34.328l-29.705 17.164z" fill="#42E8E0"/><path id="Vector_18" opacity=".1" d="M252.758 385.85l-29.705-17.164v-34.328l29.705 17.164v34.328z" fill="#42E8E0"/><path id="Vector_19" opacity=".1" d="M282.463 368.686l-29.705 17.164v-34.328l29.705-17.164v34.328z" fill="#2FD3C7"/><path id="Vector_20" opacity=".1" d="M252.758 351.522l-29.705-17.164 29.705-17.164 29.705 17.164-29.705 17.164z" fill="#42E8E0"/><path id="Vector_21" opacity=".1" d="M252.758 351.522l-28.424-16.414-1.281.75 29.705 17.163 29.705-17.163-1.301-.75-28.404 16.414z" fill="#fff"/><path id="Vector_22" opacity=".1" d="M291.333 373.559l-29.705-17.164v34.328l29.705 17.163 29.705-17.163v-34.328l-29.705 17.164z" fill="#42E8E0"/><path id="Vector_23" opacity=".1" d="M291.333 407.886l-29.705-17.163v-34.328l29.705 17.164v34.327z" fill="#42E8E0"/><path id="Vector_24" opacity=".1" d="M321.038 390.723l-29.705 17.163v-34.327l29.705-17.164v34.328z" fill="#2FD3C7"/><path id="Vector_25" opacity=".1" d="M291.333 373.559l-29.705-17.164 29.705-17.164 29.705 17.164-29.705 17.164z" fill="#42E8E0"/><path id="Vector_26" opacity=".1" d="M291.333 373.559l-28.404-16.414-1.301.749 29.705 17.144 29.705-17.144-1.281-.749-28.424 16.414z" fill="#fff"/><path id="Vector_27" opacity=".1" d="M329.908 395.596l-29.685-17.164v34.327l29.685 17.144 29.705-17.144v-34.327l-29.705 17.164z" fill="#42E8E0"/><path id="Vector_28" opacity=".1" d="M329.908 429.903l-29.685-17.144v-34.327l29.685 17.164v34.307z" fill="#42E8E0"/><path id="Vector_29" opacity=".1" d="M359.613 412.759l-29.705 17.144v-34.307l29.705-17.164v34.327z" fill="#2FD3C7"/><path id="Vector_30" opacity=".1" d="M329.908 395.596l-29.685-17.164 29.685-17.164 29.705 17.164-29.705 17.164z" fill="#42E8E0"/><path id="Vector_31" opacity=".1" d="M329.908 395.596l-28.404-16.434-1.281.749 29.685 17.164 29.705-17.164v-1.479l-29.705 17.164z" fill="#fff"/><path id="Vector_32" opacity=".1" d="M214.183 375.038l-29.705-17.144v34.308l29.705 17.164 29.685-17.164v-34.308l-29.685 17.144z" fill="#42E8E0"/><path id="Vector_33" opacity=".1" d="M214.183 409.366l-29.705-17.164v-34.308l29.705 17.144v34.328z" fill="#42E8E0"/><path id="Vector_34" opacity=".1" d="M243.869 392.202l-29.686 17.164v-34.328l29.686-17.144v34.308z" fill="#2FD3C7"/><path id="Vector_35" opacity=".1" d="M214.183 375.039l-29.705-17.145 29.705-17.163 29.685 17.163-29.685 17.145z" fill="#42E8E0"/><path id="Vector_36" opacity=".1" d="M214.183 375.038l-29.705-17.144v1.48l29.705 17.164 29.685-17.164-1.281-.75-28.404 16.414z" fill="#fff"/><path id="Vector_37" opacity=".1" d="M252.758 397.075l-29.705-17.164v34.328l29.705 17.164 29.705-17.164v-34.328l-29.705 17.164z" fill="#42E8E0"/><path id="Vector_38" opacity=".1" d="M252.758 431.403l-29.705-17.164v-34.328l29.705 17.164v34.328z" fill="#42E8E0"/><path id="Vector_39" opacity=".1" d="M282.463 414.239l-29.705 17.164v-34.328l29.705-17.164v34.328z" fill="#2FD3C7"/><path id="Vector_40" opacity=".1" d="M252.758 397.075l-29.705-17.164 29.705-17.163 29.705 17.163-29.705 17.164z" fill="#42E8E0"/><path id="Vector_41" opacity=".1" d="M252.758 397.075l-29.705-17.164v1.5l29.705 17.163 29.705-17.163-1.301-.75-28.404 16.414z" fill="#fff"/><path id="Vector_42" opacity=".1" d="M291.333 419.112l-29.705-17.164v34.328l29.705 17.163 29.705-17.163v-34.328l-29.705 17.164z" fill="#42E8E0"/><path id="Vector_43" opacity=".1" d="M291.333 453.439l-29.705-17.163v-34.328l29.705 17.164v34.327z" fill="#42E8E0"/><path id="Vector_44" opacity=".1" d="M321.038 436.276l-29.705 17.163v-34.327l29.705-17.164v34.328z" fill="#2FD3C7"/><path id="Vector_45" opacity=".1" d="M291.333 419.112l-29.705-17.164 29.705-17.164 29.705 17.164-29.705 17.164z" fill="#42E8E0"/><path id="Vector_46" opacity=".1" d="M291.333 419.112l-29.705-17.164v1.48l29.705 17.163 29.705-17.163v-1.48l-29.705 17.164z" fill="#fff"/><path id="Vector_47" opacity=".1" d="M291.333 282.453l-29.705-17.164v34.327l29.705 17.164 29.705-17.164v-34.327l-29.705 17.164z" fill="#42E8E0"/><path id="Vector_48" opacity=".1" d="M291.333 316.78l-29.705-17.164v-34.327l29.705 17.164v34.327z" fill="#42E8E0"/><path id="Vector_49" opacity=".1" d="M321.038 299.616l-29.705 17.164v-34.327l29.705-17.164v34.327z" fill="#2FD3C7"/><path id="Vector_50" opacity=".1" d="M291.333 282.453l-29.705-17.164 29.705-17.164 29.705 17.164-29.705 17.164z" fill="#42E8E0"/><path id="Vector_51" opacity=".1" d="M291.333 282.453l-28.404-16.414-1.301.749 29.705 17.164 29.705-17.164-1.281-.749-28.424 16.414z" fill="#fff"/><path id="Vector_52" opacity=".7" d="M291.333 413.509L271.07 401.81l20.263-11.699 20.264 11.699-20.264 11.699z" fill="#18B2A3"/><path id="Vector_53" opacity=".7" d="M252.758 391.492l-20.263-11.719 20.263-11.699 20.264 11.699-20.264 11.719z" fill="#18B2A3"/><path id="Vector_54" opacity=".7" d="M329.908 389.993l-20.263-11.699 20.263-11.719 20.263 11.719-20.263 11.699z" fill="#18B2A3"/><path id="Vector_55" opacity=".7" d="M368.562 366.752l-20.263-11.718 20.263-11.699 20.264 11.699-20.264 11.718z" fill="#18B2A3"/><path id="Vector_56" opacity=".7" d="M214.183 369.455l-20.263-11.699 20.263-11.718 20.263 11.718-20.263 11.699z" fill="#18B2A3"/><path id="Vector_57" opacity=".1" d="M329.908 304.489l-29.685-17.163v34.327l29.685 17.164 29.705-17.164v-34.327l-29.705 17.163z" fill="#42E8E0"/><path id="Vector_58" opacity=".1" d="M329.908 338.817l-29.685-17.164v-34.327l29.685 17.163v34.328z" fill="#42E8E0"/><path id="Vector_59" opacity=".1" d="M359.613 321.653l-29.705 17.164v-34.328l29.705-17.163v34.327z" fill="#2FD3C7"/><path id="Vector_60" opacity=".1" d="M329.908 304.489l-29.685-17.163 29.685-17.164 29.705 17.164-29.705 17.163z" fill="#42E8E0"/><path id="Vector_61" opacity=".1" d="M329.908 304.489l-28.404-16.414-1.281.73 29.685 17.164 29.705-17.164-1.281-.73-28.424 16.414z" fill="#fff"/><path id="Vector_62" opacity=".1" d="M368.483 326.526l-29.685-17.164v34.308l29.685 17.164 29.705-17.164v-34.308l-29.705 17.164z" fill="#42E8E0"/><path id="Vector_63" opacity=".1" d="M368.483 360.834l-29.685-17.164v-34.308l29.685 17.164v34.308z" fill="#42E8E0"/><path id="Vector_64" opacity=".1" d="M398.188 343.67l-29.705 17.164v-34.308l29.705-17.164v34.308z" fill="#2FD3C7"/><path id="Vector_65" opacity=".1" d="M368.483 326.526l-29.685-17.164 29.685-17.164 29.705 17.164-29.705 17.164z" fill="#42E8E0"/><path id="Vector_66" opacity=".1" d="M368.483 326.526l-28.404-16.434-1.281.75 29.685 17.164 29.705-17.164v-1.48l-29.705 17.164z" fill="#fff"/><path id="Vector_67" opacity=".1" d="M252.758 305.969l-29.705-17.164v34.328l29.705 17.164 29.705-17.164v-34.328l-29.705 17.164z" fill="#42E8E0"/><path id="Vector_68" opacity=".1" d="M252.758 340.297l-29.705-17.164v-34.328l29.705 17.164v34.328z" fill="#42E8E0"/><path id="Vector_69" opacity=".1" d="M282.463 323.133l-29.705 17.164v-34.328l29.705-17.164v34.328z" fill="#2FD3C7"/><path id="Vector_70" opacity=".1" d="M252.758 305.969l-29.705-17.164 29.705-17.164 29.705 17.164-29.705 17.164z" fill="#42E8E0"/><path id="Vector_71" opacity=".1" d="M252.758 305.969l-28.424-16.414-1.281.75 29.705 17.163 29.705-17.163-1.301-.75-28.404 16.414z" fill="#fff"/><path id="Vector_72" opacity=".1" d="M291.333 328.006l-29.705-17.164v34.328l29.705 17.163 29.705-17.163v-34.328l-29.705 17.164z" fill="#42E8E0"/><path id="Vector_73" opacity=".1" d="M291.333 362.333l-29.705-17.163v-34.328l29.705 17.164v34.327z" fill="#42E8E0"/><path id="Vector_74" opacity=".1" d="M321.038 345.17l-29.705 17.163v-34.327l29.705-17.164v34.328z" fill="#2FD3C7"/><path id="Vector_75" opacity=".1" d="M291.333 328.006l-29.705-17.164 29.705-17.164 29.705 17.164-29.705 17.164z" fill="#42E8E0"/><path id="Vector_76" opacity=".1" d="M291.333 328.006l-28.404-16.414-1.301.749 29.705 17.144 29.705-17.144-1.281-.749-28.424 16.414z" fill="#fff"/><path id="Vector_77" opacity=".1" d="M329.908 350.042l-29.685-17.163v34.327l29.685 17.164 29.705-17.164v-34.327l-29.705 17.163z" fill="#42E8E0"/><path id="Vector_78" opacity=".1" d="M329.908 384.37l-29.685-17.164v-34.327l29.685 17.163v34.328z" fill="#42E8E0"/><path id="Vector_79" opacity=".1" d="M359.613 367.206l-29.705 17.164v-34.328l29.705-17.163v34.327z" fill="#2FD3C7"/><path id="Vector_80" opacity=".1" d="M329.908 350.042l-29.685-17.163 29.685-17.164 29.705 17.164-29.705 17.163z" fill="#42E8E0"/><path id="Vector_81" opacity=".1" d="M329.908 350.042l-28.404-16.414-1.281.73 29.685 17.164 29.705-17.164v-1.479l-29.705 17.163z" fill="#fff"/><path id="Vector_82" opacity=".1" d="M214.183 329.485l-29.705-17.144v34.308l29.705 17.164 29.685-17.164v-34.308l-29.685 17.144z" fill="#42E8E0"/><path id="Vector_83" opacity=".1" d="M214.183 363.813l-29.705-17.164v-34.308l29.705 17.144v34.328z" fill="#42E8E0"/><path id="Vector_84" opacity=".1" d="M243.869 346.649l-29.686 17.164v-34.328l29.686-17.144v34.308z" fill="#2FD3C7"/><path id="Vector_85" opacity=".1" d="M214.183 329.485l-29.705-17.144 29.705-17.164 29.685 17.164-29.685 17.144z" fill="#42E8E0"/><path id="Vector_86" opacity=".1" d="M214.183 329.485l-28.423-16.414-1.282.75 29.705 17.164 29.685-17.164-1.281-.75-28.404 16.414z" fill="#fff"/><path id="Vector_87" opacity=".1" d="M252.758 351.522l-29.705-17.164v34.328l29.705 17.164 29.705-17.164v-34.328l-29.705 17.164z" fill="#42E8E0"/><path id="Vector_88" opacity=".1" d="M252.758 385.85l-29.705-17.164v-34.328l29.705 17.164v34.328z" fill="#42E8E0"/><path id="Vector_89" opacity=".1" d="M282.463 368.686l-29.705 17.164v-34.328l29.705-17.164v34.328z" fill="#2FD3C7"/><path id="Vector_90" opacity=".1" d="M252.758 351.522l-29.705-17.164 29.705-17.164 29.705 17.164-29.705 17.164z" fill="#42E8E0"/><path id="Vector_91" opacity=".1" d="M252.758 351.522l-29.705-17.164v1.5l29.705 17.163 29.705-17.163-1.301-.75-28.404 16.414z" fill="#fff"/><path id="Vector_92" opacity=".1" d="M291.333 373.559l-29.705-17.164v34.328l29.705 17.163 29.705-17.163v-34.328l-29.705 17.164z" fill="#42E8E0"/><path id="Vector_93" opacity=".1" d="M291.333 407.886l-29.705-17.163v-34.328l29.705 17.164v34.327z" fill="#42E8E0"/><path id="Vector_94" opacity=".1" d="M321.038 390.723l-29.705 17.163v-34.327l29.705-17.164v34.328z" fill="#2FD3C7"/><path id="Vector_95" opacity=".1" d="M291.333 373.559l-29.705-17.164 29.705-17.164 29.705 17.164-29.705 17.164z" fill="#42E8E0"/><path id="Vector_96" opacity=".1" d="M291.333 373.559l-29.705-17.164v1.499l29.705 17.144 29.705-17.144v-1.499l-29.705 17.164z" fill="#fff"/><path id="Vector_97" opacity=".7" d="M368.562 321.397l-20.263-11.699 20.263-11.719 20.264 11.719-20.264 11.699z" fill="#18B2A3"/><path id="Vector_98" opacity=".7" d="M214.183 324.099L193.92 312.4l20.263-11.718 20.263 11.718-20.263 11.699z" fill="#18B2A3"/><path id="Vector_99" opacity=".1" d="M291.333 236.9l-29.705-17.164v34.327l29.705 17.164 29.705-17.164v-34.327L291.333 236.9z" fill="#42E8E0"/><path id="Vector_100" opacity=".1" d="M291.333 271.227l-29.705-17.164v-34.327l29.705 17.164v34.327z" fill="#42E8E0"/><path id="Vector_101" opacity=".1" d="M321.038 254.063l-29.705 17.164V236.9l29.705-17.164v34.327z" fill="#2FD3C7"/><path id="Vector_102" opacity=".1" d="M291.333 236.9l-29.705-17.164 29.705-17.164 29.705 17.164-29.705 17.164z" fill="#42E8E0"/><path id="Vector_103" opacity=".1" d="M291.333 236.9l-29.705-17.164v1.499l29.705 17.164 29.705-17.164v-1.499L291.333 236.9z" fill="#fff"/><path id="Vector_104" opacity=".1" d="M329.908 258.936l-29.685-17.164V276.1l29.685 17.164 29.705-17.164v-34.328l-29.705 17.164z" fill="#42E8E0"/><path id="Vector_105" opacity=".1" d="M329.908 293.264L300.223 276.1v-34.328l29.685 17.164v34.328z" fill="#42E8E0"/><path id="Vector_106" opacity=".1" d="M359.613 276.1l-29.705 17.164v-34.328l29.705-17.164V276.1z" fill="#2FD3C7"/><path id="Vector_107" opacity=".1" d="M329.908 258.936l-29.685-17.163 29.685-17.164 29.705 17.164-29.705 17.163z" fill="#42E8E0"/><path id="Vector_108" opacity=".1" d="M329.908 258.936l-29.685-17.164v1.5l29.685 17.144 29.705-17.144v-1.5l-29.705 17.164z" fill="#fff"/><path id="Vector_109" opacity=".1" d="M368.483 280.973l-29.685-17.164v34.328l29.685 17.144 29.705-17.144v-34.328l-29.705 17.164z" fill="#42E8E0"/><path id="Vector_110" opacity=".1" d="M368.483 315.281l-29.685-17.144v-34.328l29.685 17.164v34.308z" fill="#42E8E0"/><path id="Vector_111" opacity=".1" d="M398.188 298.137l-29.705 17.144v-34.308l29.705-17.164v34.328z" fill="#2FD3C7"/><path id="Vector_112" opacity=".1" d="M368.483 280.973l-29.685-17.164 29.685-17.163 29.705 17.163-29.705 17.164z" fill="#42E8E0"/><path id="Vector_113" opacity=".1" d="M368.483 280.973l-29.685-17.164v1.48l29.685 17.164 29.705-17.164v-1.48l-29.705 17.164z" fill="#fff"/><path id="Vector_114" opacity=".1" d="M252.758 260.416l-29.705-17.144v34.308l29.705 17.163 29.705-17.163v-34.308l-29.705 17.144z" fill="#42E8E0"/><path id="Vector_115" opacity=".1" d="M252.758 294.743l-29.705-17.163v-34.308l29.705 17.144v34.327z" fill="#42E8E0"/><path id="Vector_116" opacity=".1" d="M282.463 277.58l-29.705 17.163v-34.327l29.705-17.144v34.308z" fill="#2FD3C7"/><path id="Vector_117" opacity=".1" d="M252.758 260.416l-29.705-17.144 29.705-17.164 29.705 17.164-29.705 17.144z" fill="#42E8E0"/><path id="Vector_118" opacity=".1" d="M252.758 260.416l-29.705-17.144v1.479l29.705 17.164 29.705-17.164v-1.479l-29.705 17.144z" fill="#fff"/><path id="Vector_119" opacity=".1" d="M214.183 283.952l-29.705-17.164v34.328l29.705 17.144 29.685-17.144v-34.328l-29.685 17.164z" fill="#42E8E0"/><path id="Vector_120" opacity=".1" d="M214.183 318.26l-29.705-17.144v-34.328l29.705 17.164v34.308z" fill="#42E8E0"/><path id="Vector_121" opacity=".1" d="M243.869 301.116l-29.686 17.144v-34.308l29.686-17.164v34.328z" fill="#2FD3C7"/><path id="Vector_122" opacity=".1" d="M214.183 283.952l-29.705-17.164 29.705-17.164 29.685 17.164-29.685 17.164z" fill="#42E8E0"/><path id="Vector_123" opacity=".1" d="M214.183 283.952l-29.705-17.164v1.48l29.705 17.164 29.685-17.164v-1.48l-29.685 17.164z" fill="#fff"/></g><g id="Group_2" opacity=".2"><path d="M331.15 371.507l-20.717-11.975a14.283 14.283 0 01-6.445-11.166v-5.09a13.604 13.604 0 00-6.15-10.634l-4.317-2.505.315-.533 4.317 2.505a14.23 14.23 0 016.446 11.167v5.011a13.6 13.6 0 006.15 10.633l20.716 11.976-.315.611z" fill="#42E8E0" id="Vector_124" opacity=".2"/><path d="M339.212 366.95l-20.717-11.975a14.248 14.248 0 01-6.445-11.186v-4.992a13.63 13.63 0 00-6.15-10.653l-4.317-2.624.296-.552 4.336 2.505a14.285 14.285 0 016.446 11.186v4.992a13.608 13.608 0 006.15 10.653l20.716 11.955-.315.691z" fill="#42E8E0" id="Vector_125" opacity=".2"/><path d="M347.274 362.215l-20.717-11.975a14.239 14.239 0 01-6.465-11.167v-5.011a13.571 13.571 0 00-6.13-10.633l-4.317-2.506.296-.532 4.336 2.485a14.35 14.35 0 016.446 11.186v5.011a13.613 13.613 0 006.13 10.634l20.736 11.975-.315.533z" fill="#42E8E0" id="Vector_126" opacity=".2"/><path d="M355.336 357.579L334.6 345.604a14.324 14.324 0 01-6.446-11.186v-4.952a13.58 13.58 0 00-6.13-10.654l-4.337-2.505.316-.533 4.336 2.506a14.28 14.28 0 016.446 11.186v4.991a13.617 13.617 0 006.13 10.634l20.717 11.995-.296.493z" fill="#42E8E0" id="Vector_127" opacity=".2"/><path d="M363.378 352.923l-20.717-11.975a14.287 14.287 0 01-6.445-11.167v-5.011a13.614 13.614 0 00-6.13-10.633l-4.337-2.506.315-.532 4.317 2.485a14.3 14.3 0 016.466 11.186v5.011a13.571 13.571 0 006.13 10.634l20.716 11.975-.315.533z" fill="#42E8E0" id="Vector_128" opacity=".2"/><path d="M371.44 348.267l-20.717-11.955a14.347 14.347 0 01-6.445-11.186v-5.012a13.592 13.592 0 00-6.15-10.633l-4.317-2.506.315-.532 4.317 2.505a14.251 14.251 0 016.465 11.166v5.012a13.571 13.571 0 006.131 10.633l20.716 11.975-.315.533z" fill="#42E8E0" id="Vector_129" opacity=".2"/><path d="M379.502 343.631l-20.756-11.975a14.248 14.248 0 01-6.446-11.187v-4.991a13.656 13.656 0 00-6.15-10.653l-4.317-2.486.316-.552 4.317 2.505a14.273 14.273 0 016.445 11.186v4.991a13.597 13.597 0 006.15 10.654l20.717 11.975-.276.533z" fill="#42E8E0" id="Vector_130" opacity=".2"/><path d="M387.564 338.975L366.847 327a14.23 14.23 0 01-6.445-11.167v-5.011a13.6 13.6 0 00-6.15-10.633l-4.317-2.506.295-.532 4.337 2.505a14.282 14.282 0 016.446 11.166v5.011a13.579 13.579 0 001.806 6.052 13.576 13.576 0 004.344 4.582l20.716 11.975-.315.533z" fill="#42E8E0" id="Vector_131" opacity=".2"/><path d="M395.626 334.339l-20.717-11.975a14.272 14.272 0 01-6.465-11.187v-4.991a13.583 13.583 0 00-6.13-10.653l-4.337-2.486.315-.552 4.337 2.505a14.298 14.298 0 016.446 11.186v4.991a13.689 13.689 0 006.13 10.654l20.716 11.955-.295.553z" fill="#42E8E0" id="Vector_132" opacity=".2"/><path d="M403.668 329.683l-20.717-12.054a14.279 14.279 0 01-6.445-11.167v-5.011a13.622 13.622 0 00-6.13-10.633l-4.337-2.506.315-.533 4.337 2.486a14.35 14.35 0 016.446 11.186v5.011a13.578 13.578 0 006.13 10.634l20.815 12.054-.414.533z" fill="#42E8E0" id="Vector_133" opacity=".2"/><path d="M411.73 325.047l-20.717-11.976a14.325 14.325 0 01-6.445-11.225v-4.991a13.64 13.64 0 00-6.131-10.654l-4.336-2.505.315-.533 4.317 2.505a14.272 14.272 0 016.465 11.187v4.991c.115 2.13.73 4.203 1.796 6.05a13.565 13.565 0 004.335 4.584l20.637 12.014-.236.553z" fill="#42E8E0" id="Vector_134" opacity=".2"/><path d="M419.851 320.391l-20.717-11.975a14.284 14.284 0 01-6.445-11.187v-4.991a13.605 13.605 0 00-6.15-10.634l-4.317-2.505.315-.533 4.317 2.486a14.264 14.264 0 016.446 11.186v4.991a13.59 13.59 0 006.15 10.654l20.716 11.975-.315.533z" fill="#42E8E0" id="Vector_135" opacity=".2"/><path d="M427.854 315.656l-20.717-11.837a14.309 14.309 0 01-6.445-11.186v-5.011a13.593 13.593 0 00-6.15-10.634l-4.258-2.545.296-.533 4.336 2.506a14.288 14.288 0 016.446 11.166v5.011a13.595 13.595 0 006.15 10.634l20.716 11.975-.374.454z" fill="#42E8E0" id="Vector_136" opacity=".2"/><path d="M435.916 311.099l-20.717-11.976a14.26 14.26 0 01-6.465-11.186v-4.991a13.63 13.63 0 00-6.13-10.653l-4.337-2.486.315-.553 4.337 2.506a14.28 14.28 0 016.446 11.186v5.09a13.65 13.65 0 006.13 10.653l20.716 11.956-.295.454z" fill="#42E8E0" id="Vector_137" opacity=".2"/><path d="M443.958 306.443l-20.717-11.976a14.285 14.285 0 01-6.445-11.166v-5.011a13.618 13.618 0 00-6.13-10.634l-4.337-2.505.315-.533 4.337 2.506a14.288 14.288 0 016.446 11.166v5.011a13.617 13.617 0 006.13 10.634l20.716 11.975-.315.533z" fill="#42E8E0" id="Vector_138" opacity=".2"/><path d="M452.02 301.846l-20.717-11.975a14.284 14.284 0 01-6.445-11.186v-4.992a13.64 13.64 0 00-6.131-10.653l-4.336-2.506.315-.532 4.317 2.505a14.268 14.268 0 016.465 11.186v4.992a13.587 13.587 0 006.131 10.633l20.716 11.975-.315.553z" fill="#42E8E0" id="Vector_139" opacity=".2"/><path d="M460.082 297.15l-20.717-11.975a14.275 14.275 0 01-6.445-11.166v-5.011a13.605 13.605 0 00-6.15-10.634l-4.317-2.505.315-.533 4.317 2.486a14.296 14.296 0 016.446 11.186v5.011a13.595 13.595 0 006.15 10.634l20.716 11.975-.315.532z" fill="#42E8E0" id="Vector_140" opacity=".2"/><path d="M468.144 292.514l-20.697-11.975a14.278 14.278 0 01-6.446-11.186v-4.991a13.595 13.595 0 00-6.15-10.634l-4.317-2.505.296-.533 4.337 2.505a14.29 14.29 0 016.366 11.167v5.011a13.592 13.592 0 006.15 10.633l20.776 11.976-.315.532z" fill="#42E8E0" id="Vector_141" opacity=".2"/><path d="M476.206 287.858l-20.717-11.975a14.27 14.27 0 01-6.465-11.186v-4.991a13.636 13.636 0 00-6.131-10.654l-4.316-2.446.295-.552 4.337 2.505a14.325 14.325 0 016.445 11.186v4.992a13.64 13.64 0 006.131 10.653l20.736 11.975-.315.493z" fill="#42E8E0" id="Vector_142" opacity=".2"/><path d="M484.267 283.202l-20.736-11.955a14.341 14.341 0 01-6.445-11.186v-5.011a13.592 13.592 0 00-6.131-10.634l-4.336-2.505.315-.533 4.337 2.506a14.287 14.287 0 016.445 11.166v5.011a13.606 13.606 0 006.131 10.634l20.716 11.975-.296.532z" fill="#42E8E0" id="Vector_143" opacity=".2"/><path d="M250.945 371.507l-.296-.533 20.717-11.915a13.613 13.613 0 006.13-10.634v-5.149a14.287 14.287 0 016.445-11.167l4.337-2.505.315.533-4.336 2.505a13.565 13.565 0 00-6.13 10.634v5.011a14.242 14.242 0 01-6.466 11.166l-20.716 12.054z" fill="#42E8E0" id="Vector_144" opacity=".2"/><path d="M242.903 366.95l-.316-.553 20.717-11.955a13.598 13.598 0 006.13-10.653v-4.992a14.281 14.281 0 016.524-11.304l4.337-2.506.315.553-4.336 2.486a13.657 13.657 0 00-6.13 10.653v4.991a14.28 14.28 0 01-6.446 11.186l-20.795 12.094z" fill="#42E8E0" id="Vector_145" opacity=".2"/><path d="M234.841 362.215l-.316-.533 20.717-11.975a13.58 13.58 0 006.13-10.634v-5.011a14.325 14.325 0 016.465-11.186l4.317-2.485.315.532-4.336 2.506a13.606 13.606 0 00-6.13 10.633v5.011a14.282 14.282 0 01-6.446 11.167l-20.716 11.975z" fill="#42E8E0" id="Vector_146" opacity=".2"/><path d="M226.779 357.579l-.316-.553 20.717-11.975a13.592 13.592 0 006.15-10.633v-4.952a14.253 14.253 0 016.445-11.186l4.356-2.624.316.532-4.258 2.585a13.584 13.584 0 00-6.15 10.653v4.992a14.324 14.324 0 01-6.445 11.186l-20.815 11.975z" fill="#42E8E0" id="Vector_147" opacity=".2"/><path d="M218.796 352.923l-.316-.533 20.717-11.975a13.595 13.595 0 006.15-10.634v-5.011a14.324 14.324 0 016.366-11.087l4.337-2.486.296.533-4.317 2.505a13.595 13.595 0 00-6.15 10.634v5.011a14.237 14.237 0 01-6.446 11.166l-20.637 11.877z" fill="#42E8E0" id="Vector_148" opacity=".2"/><path d="M210.655 348.267l-.296-.533 20.717-11.975a13.616 13.616 0 006.13-10.633v-5.012a14.287 14.287 0 016.446-11.166l4.336-2.505.315.532-4.336 2.506a13.562 13.562 0 00-6.13 10.633v5.012a14.34 14.34 0 01-6.466 11.186l-20.716 11.955z" fill="#42E8E0" id="Vector_149" opacity=".2"/><path d="M202.613 343.631l-.316-.533 20.717-11.975a13.573 13.573 0 006.13-10.654v-4.991a14.324 14.324 0 016.446-11.186l4.336-2.505.315.552-4.336 2.486a13.702 13.702 0 00-6.13 10.653v4.991a14.285 14.285 0 01-6.446 11.187l-20.716 11.975z" fill="#42E8E0" id="Vector_150" opacity=".2"/><path d="M194.55 338.975l-.315-.533 20.717-11.975a13.58 13.58 0 006.13-10.634v-5.011a14.246 14.246 0 016.465-11.166l4.317-2.505.315.532-4.336 2.506a13.606 13.606 0 00-6.13 10.633v5.011A14.282 14.282 0 01215.267 327l-20.717 11.975z" fill="#42E8E0" id="Vector_151" opacity=".2"/><path d="M186.489 334.339l-.316-.553 20.796-11.955a13.654 13.654 0 006.15-10.654v-4.991A14.253 14.253 0 01219.564 295l4.317-2.505.315.552-4.316 2.486a13.587 13.587 0 00-6.15 10.653v4.991a14.285 14.285 0 01-6.446 11.187l-20.795 11.975z" fill="#42E8E0" id="Vector_152" opacity=".2"/><path d="M178.427 329.683l-.316-.533 20.717-11.975a13.595 13.595 0 006.15-10.634v-5.011a14.348 14.348 0 016.445-11.186l4.337-2.486.296.533-4.317 2.506a13.583 13.583 0 00-6.15 10.633v5.011a14.234 14.234 0 01-6.505 11.088l-20.657 12.054z" fill="#42E8E0" id="Vector_153" opacity=".2"/><path d="M170.365 325.047l-.316-.553 20.737-11.975a13.616 13.616 0 006.13-10.673v-4.991a14.285 14.285 0 016.445-11.187l4.337-2.505.296.533-4.317 2.505a13.575 13.575 0 00-6.13 10.654v4.991a14.295 14.295 0 01-6.466 11.186l-20.716 12.015z" fill="#42E8E0" id="Vector_154" opacity=".2"/><path d="M162.303 320.391l-.296-.533 20.717-11.975a13.624 13.624 0 006.13-10.654v-4.991a14.324 14.324 0 016.446-11.186l4.336-2.486.316.533-4.337 2.505a13.565 13.565 0 00-6.13 10.634v4.991a14.285 14.285 0 01-6.446 11.187l-20.736 11.975z" fill="#42E8E0" id="Vector_155" opacity=".2"/><path d="M154.261 315.656l-.316-.533 20.717-11.975a13.565 13.565 0 006.13-10.634v-5.011a14.263 14.263 0 011.914-6.314 14.233 14.233 0 014.551-4.773l4.317-2.506.316.533-4.337 2.505a13.625 13.625 0 00-6.209 10.634v5.011a14.339 14.339 0 01-6.367 11.226l-20.716 11.837z" fill="#42E8E0" id="Vector_156" opacity=".2"/><path d="M146.199 311.099l-.316-.553 20.717-11.955a13.592 13.592 0 006.13-10.654v-4.991a14.26 14.26 0 016.465-11.186l4.317-2.506.316.553-4.317 2.446a13.644 13.644 0 00-6.15 10.654v5.129a14.293 14.293 0 01-6.446 11.186l-20.716 11.877z" fill="#42E8E0" id="Vector_157" opacity=".2"/><path d="M138.137 306.443l-.316-.533 20.717-11.956a13.592 13.592 0 006.15-10.633v-5.011a14.232 14.232 0 016.445-11.167l4.297-2.525.316.533-4.258 2.505a13.605 13.605 0 00-6.15 10.634v5.011a14.212 14.212 0 01-1.886 6.356 14.21 14.21 0 01-4.559 4.81l-20.756 11.976z" fill="#42E8E0" id="Vector_158" opacity=".2"/><path d="M130.095 301.846l-.316-.553 20.717-11.975a13.592 13.592 0 006.15-10.633v-4.992a14.294 14.294 0 016.426-11.304l4.336-2.506.296.533-4.317 2.506a13.597 13.597 0 00-6.15 10.653v4.991a14.253 14.253 0 01-6.445 11.186l-20.697 12.094z" fill="#42E8E0" id="Vector_159" opacity=".2"/><path d="M122.013 297.15l-.296-.532 20.717-11.975a13.616 13.616 0 006.13-10.634v-5.011a14.357 14.357 0 016.446-11.186l4.336-2.486.316.533-4.337 2.584a13.565 13.565 0 00-6.13 10.634v5.011a14.242 14.242 0 01-6.465 11.166l-20.717 11.896z" fill="#42E8E0" id="Vector_160" opacity=".2"/><path d="M113.971 292.514l-.316-.552 20.717-11.975a13.565 13.565 0 006.13-10.634v-4.991a14.287 14.287 0 016.446-11.167l4.336-2.505.316.533-4.337 2.505a13.616 13.616 0 00-6.13 10.634v5.011a14.324 14.324 0 01-6.446 11.186l-20.716 11.955z" fill="#42E8E0" id="Vector_161" opacity=".2"/><path d="M105.909 287.858l-.315-.532 20.716-11.975a13.57 13.57 0 006.13-10.654v-4.991a14.28 14.28 0 016.466-11.127l4.316-2.506.316.553-4.337 2.486a13.682 13.682 0 00-6.13 10.653v4.991a14.285 14.285 0 01-6.446 11.186l-20.716 11.916z" fill="#42E8E0" id="Vector_162" opacity=".2"/><path d="M97.847 283.202l-.316-.532 20.737-11.975a13.605 13.605 0 006.15-10.634v-5.011a14.212 14.212 0 011.886-6.356 14.21 14.21 0 014.559-4.81l4.317-2.506.315.533-4.316 2.505a13.585 13.585 0 00-6.15 10.634v5.011a14.36 14.36 0 01-1.894 6.36 14.332 14.332 0 01-4.552 4.826l-20.736 11.955z" fill="#42E8E0" id="Vector_163" opacity=".2"/><path id="Vector_164" opacity=".2" d="M450.541 249.309v18.407l-159.208 92.013-159.208-92.013v-18.407h318.416z" fill="url(#paint0_linear)"/><path id="Vector_165" opacity=".2" d="M291.333 341.303l-159.208-91.994 159.208-91.994 159.208 91.994-159.208 91.994z" fill="#BCBEFF"/><path id="Vector_166" opacity=".2" d="M291.333 339.152l-157.336-90.908-1.872 1.065 159.208 91.994 159.208-91.994-1.872-1.065-157.336 90.908z" fill="#fff"/></g><path d="M274.756 131.017a6.022 6.022 0 01-2.957-.888l-20.736-11.975.315-.553 20.638 11.976a3.528 3.528 0 005.913-3.354v-5.011a4.142 4.142 0 014.439-4.932c.858.079 1.67.424 2.322.986l4.317 2.506-.295.532-4.337-2.505a3.53 3.53 0 00-4.243-.572 3.528 3.528 0 00-1.67 3.945v5.09a4.7 4.7 0 01-1.971 4.341 3.477 3.477 0 01-1.735.414z" fill="#42E8E0" id="Vector_167"/><path d="M266.694 135.673a6.126 6.126 0 01-2.957-.908l-20.716-11.975.295-.533 20.816 11.897a4.054 4.054 0 004.119.453 4.12 4.12 0 001.695-3.807v-4.952a4.152 4.152 0 01.287-2.509 4.136 4.136 0 014.152-2.423c.858.079 1.67.424 2.322.986l4.337 2.506-.316.533-4.336-2.486a4.1 4.1 0 00-4.139-.454 4.16 4.16 0 00-1.676 3.808v5.011a4.69 4.69 0 01-1.971 4.34 3.49 3.49 0 01-1.912.513z" fill="#42E8E0" id="Vector_168"/><path d="M258.632 140.309a6.129 6.129 0 01-2.956-.907l-20.717-11.976.315-.532 20.717 11.975a3.531 3.531 0 004.138.437 3.533 3.533 0 001.677-3.811v-5.011a4.144 4.144 0 011.975-4.385 4.136 4.136 0 014.786.44l4.336 2.505-.315.533-4.317-2.486a4.203 4.203 0 00-2.009-.777 4.204 4.204 0 00-2.13.323 4.129 4.129 0 00-1.695 3.808v5.011a4.72 4.72 0 01-1.972 4.34 3.546 3.546 0 01-1.833.513z" fill="#42E8E0" id="Vector_169"/><path d="M250.59 144.945a5.906 5.906 0 01-2.976-.907l-20.717-11.976.315-.532 20.717 11.975a3.523 3.523 0 004.178.44 3.533 3.533 0 001.637-3.873v-4.932a4.147 4.147 0 011.975-4.408 4.135 4.135 0 014.805.462l4.317 2.486-.315.553-4.337-2.466a3.545 3.545 0 00-5.713 1.141 3.557 3.557 0 00-.2 2.232v4.932a4.776 4.776 0 01-1.971 4.36c-.521.31-1.11.487-1.715.513z" fill="#42E8E0" id="Vector_170"/><path d="M242.449 149.581a5.906 5.906 0 01-2.976-.907l-20.677-11.975.315-.533 20.717 11.975a3.545 3.545 0 005.713-1.141 3.557 3.557 0 00.2-2.232v-4.992a4.73 4.73 0 01.395-2.447 4.725 4.725 0 011.576-1.913 4.69 4.69 0 014.77.454l4.317 2.486-.315.552-4.317-2.505a3.545 3.545 0 00-5.713 1.141 3.55 3.55 0 00-.2 2.232v4.992a4.742 4.742 0 01-1.972 4.36 3.667 3.667 0 01-1.833.453z" fill="#42E8E0" id="Vector_171"/><path d="M234.565 154.218a5.92 5.92 0 01-2.977-.908l-20.716-11.955.315-.553 20.717 11.975a3.545 3.545 0 005.713-1.141 3.557 3.557 0 00.2-2.232v-4.992a4.142 4.142 0 016.761-3.945l4.317 2.505-.296.533-4.336-2.506a3.531 3.531 0 00-4.243-.571 3.53 3.53 0 00-1.671 3.945v4.991a4.758 4.758 0 01-1.971 4.36 3.467 3.467 0 01-1.813.494z" fill="#42E8E0" id="Vector_172"/><path d="M226.404 158.873a6.062 6.062 0 01-2.956-.907l-20.717-11.975.296-.553 20.716 11.976a3.527 3.527 0 005.914-3.354v-5.011a4.144 4.144 0 011.975-4.385 4.137 4.137 0 014.786.439l4.336 2.506-.315.532-4.337-2.505a3.526 3.526 0 00-5.597 1.194 3.53 3.53 0 00-.218 2.179v5.011a4.689 4.689 0 01-.394 2.439 4.69 4.69 0 01-1.577 1.902 3.48 3.48 0 01-1.912.512z" fill="#42E8E0" id="Vector_173"/><path d="M218.342 163.51a6.119 6.119 0 01-2.956-.908l-20.717-11.975.315-.533 20.717 11.956a4.1 4.1 0 004.139.454 4.165 4.165 0 001.676-3.808v-5.011a4.144 4.144 0 011.975-4.385 4.144 4.144 0 012.463-.547c.858.079 1.67.424 2.323.986l4.336 2.506-.315.532-4.337-2.485a4.055 4.055 0 00-4.119-.454 4.126 4.126 0 00-1.695 3.807v5.011a4.705 4.705 0 01-1.972 4.341c-.55.34-1.186.518-1.833.513z" fill="#42E8E0" id="Vector_174"/><path d="M210.3 168.146a6.14 6.14 0 01-2.976-.908l-20.717-11.975.315-.533 20.717 11.976a3.528 3.528 0 005.913-3.374v-5.011a4.152 4.152 0 01.287-2.509 4.136 4.136 0 014.152-2.423 4.144 4.144 0 012.322.986l4.337 2.506-.316.552-4.316-2.505a3.528 3.528 0 00-5.914 3.354v5.011a4.714 4.714 0 01-1.971 4.34 3.527 3.527 0 01-1.833.513z" fill="#42E8E0" id="Vector_175"/><path d="M202.238 172.782a5.906 5.906 0 01-2.976-.907l-20.717-11.976.316-.532 20.716 11.975a3.542 3.542 0 004.217.526 3.553 3.553 0 001.697-3.9v-4.991a4.74 4.74 0 011.971-4.36 4.69 4.69 0 014.77.454l4.317 2.486-.316.552-4.317-2.506a3.544 3.544 0 00-4.217-.526 3.556 3.556 0 00-1.696 3.9v4.991a4.776 4.776 0 01-1.971 4.36 3.652 3.652 0 01-1.794.454z" fill="#42E8E0" id="Vector_176"/><path d="M194.176 177.418a5.906 5.906 0 01-2.976-.907l-20.717-11.975.316-.533 20.716 11.975a3.545 3.545 0 005.713-1.141 3.56 3.56 0 00.201-2.233v-4.912a4.144 4.144 0 011.975-4.385 4.144 4.144 0 012.463-.547c.858.079 1.67.424 2.323.986l4.316 2.486-.295.553-4.337-2.506a3.543 3.543 0 00-5.713 1.141 3.552 3.552 0 00-.2 2.233v4.991a4.746 4.746 0 01-1.971 4.36 3.667 3.667 0 01-1.814.414z" fill="#42E8E0" id="Vector_177"/><path d="M186.114 182.054a5.903 5.903 0 01-2.957-.907l-20.716-11.956.296-.552 20.716 11.975a4.132 4.132 0 004.14.434 4.09 4.09 0 001.636-3.807v-4.992a4.142 4.142 0 014.438-4.931 4.13 4.13 0 012.323.986l4.336 2.505-.315.533-4.278-2.466a3.526 3.526 0 00-5.913 3.373v4.992a4.718 4.718 0 01-1.971 4.36c-.529.3-1.127.457-1.735.453z" fill="#42E8E0" id="Vector_178"/><path d="M178.052 186.71a6.118 6.118 0 01-2.956-.907l-20.717-11.975.315-.553 20.737 11.975a4.1 4.1 0 004.139.454 4.167 4.167 0 001.675-3.807v-5.011a4.152 4.152 0 01.287-2.509 4.136 4.136 0 014.152-2.423c.858.079 1.67.423 2.322.986l4.317 2.644-.315.532-4.337-2.505a3.526 3.526 0 00-5.597 1.194 3.537 3.537 0 00-.218 2.179v4.913a4.69 4.69 0 01-1.971 4.34 3.476 3.476 0 01-1.833.473z" fill="#42E8E0" id="Vector_179"/><path d="M170.01 191.366a6.142 6.142 0 01-2.976-.907l-20.717-11.995.316-.533 20.716 11.956a4.095 4.095 0 004.139.453 4.163 4.163 0 001.676-3.807v-5.031a4.144 4.144 0 014.438-4.932c.858.079 1.67.424 2.323.986l4.336 2.506-.315.533-4.317-2.486a3.528 3.528 0 00-5.913 3.354v5.011a4.743 4.743 0 01-1.971 4.34 3.523 3.523 0 01-1.735.552z" fill="#42E8E0" id="Vector_180"/><path d="M161.948 195.983a6.143 6.143 0 01-2.976-.908L138.255 183.1l.316-.533 20.716 11.976a3.544 3.544 0 004.217.526 3.55 3.55 0 001.696-3.9v-5.011a4.142 4.142 0 014.439-4.932c.858.079 1.67.424 2.322.986l4.317 2.506-.315.552-4.475-2.466a3.528 3.528 0 00-4.228-.569 3.527 3.527 0 00-1.685 3.923v5.011a4.72 4.72 0 01-1.971 4.34 3.488 3.488 0 01-1.656.474z" fill="#42E8E0" id="Vector_181"/><path d="M153.886 200.619a5.907 5.907 0 01-2.976-.908l-20.717-11.975.316-.532 20.716 12.054a3.544 3.544 0 004.217.526 3.557 3.557 0 001.697-3.9v-5.07a4.74 4.74 0 011.971-4.36 4.68 4.68 0 014.77.454l4.258 2.485-.296.553-4.238-2.525a3.545 3.545 0 00-5.713 1.141 3.55 3.55 0 00-.2 2.232v4.991a4.786 4.786 0 01-1.971 4.36 3.672 3.672 0 01-1.834.474z" fill="#42E8E0" id="Vector_182"/><path d="M145.864 205.176a5.91 5.91 0 01-2.957-.907l-20.697-11.896.316-.533 20.716 11.975a4.141 4.141 0 004.14.434 4.107 4.107 0 001.695-3.808v-4.991a4.144 4.144 0 011.975-4.385 4.136 4.136 0 014.786.439l4.317 2.506-.296.533-4.337-2.506a3.525 3.525 0 00-5.744 1.119 3.533 3.533 0 00-.169 2.255v4.991a4.716 4.716 0 01-1.971 4.36 3.66 3.66 0 01-1.774.414z" fill="#42E8E0" id="Vector_183"/><path d="M137.762 209.891a5.906 5.906 0 01-2.956-.907l-20.717-11.956.296-.552 20.736 11.975a3.53 3.53 0 004.243.572 3.527 3.527 0 001.67-3.945v-4.992a4.15 4.15 0 011.976-4.385 4.136 4.136 0 014.785.44l4.337 2.505-.355.612-4.336-2.506a3.531 3.531 0 00-4.243-.572 3.537 3.537 0 00-1.671 3.946v5.05a4.716 4.716 0 01-1.971 4.36c-.555.277-1.175.4-1.794.355z" fill="#42E8E0" id="Vector_184"/><path d="M129.7 214.528a6.088 6.088 0 01-2.956-.888l-20.717-11.975.315-.553 20.717 11.956a4.095 4.095 0 004.139.453 4.163 4.163 0 001.676-3.807v-5.011a4.144 4.144 0 014.438-4.932c.858.079 1.67.424 2.323.986l4.336 2.506-.315.532-4.317-2.505a3.545 3.545 0 00-5.713 1.141 3.55 3.55 0 00-.2 2.232v5.011a4.746 4.746 0 01-1.971 4.341 3.554 3.554 0 01-1.755.513z" fill="#42E8E0" id="Vector_185"/><path d="M121.658 219.183a6.142 6.142 0 01-2.976-.907l-20.717-11.975.316-.533 20.716 11.956a4.1 4.1 0 004.14.453 4.16 4.16 0 001.675-3.807v-5.011a4.162 4.162 0 016.781-3.946l4.415 2.545-.315.533-4.317-2.486a4.1 4.1 0 00-4.139-.454 4.163 4.163 0 00-1.696 3.808v5.011a4.732 4.732 0 01-1.971 4.34 3.48 3.48 0 01-1.912.473z" fill="#42E8E0" id="Vector_186"/><path d="M307.773 131.411a3.486 3.486 0 01-1.794-.473 4.724 4.724 0 01-1.571-1.904 4.722 4.722 0 01-.4-2.436v-5.011a4.173 4.173 0 00-1.695-3.808 4.1 4.1 0 00-4.14.454l-4.317 2.486-.315-.533 4.317-2.506a4.144 4.144 0 012.322-.986 4.14 4.14 0 014.439 4.932v5.011a4.162 4.162 0 001.695 3.808 4.097 4.097 0 004.139-.454l20.697-11.995.316.533-20.717 11.975a6.142 6.142 0 01-2.976.907z" fill="#42E8E0" id="Vector_187"/><path d="M315.834 136.127a3.486 3.486 0 01-1.793-.474 4.72 4.72 0 01-1.972-4.34v-5.051a3.532 3.532 0 00-1.684-3.923 3.527 3.527 0 00-4.229.569l-4.336 2.506-.296-.552 4.376-2.545a4.14 4.14 0 016.761 3.945v5.011a3.552 3.552 0 003.892 4.339 3.552 3.552 0 002.021-.965l20.717-11.975.315.532-20.795 11.936a6.148 6.148 0 01-2.977.987z" fill="#42E8E0" id="Vector_188"/><path d="M323.896 140.684a3.486 3.486 0 01-1.793-.474 4.674 4.674 0 01-1.971-4.34v-4.991a3.525 3.525 0 00-3.818-4.268 3.531 3.531 0 00-1.997.894l-4.337 2.506-.295-.553 4.316-2.485a4.69 4.69 0 014.77-.454 4.74 4.74 0 011.972 4.36v4.991a4.106 4.106 0 001.695 3.808 4.138 4.138 0 004.139-.434l20.717-11.976.315.533-20.736 11.975a5.91 5.91 0 01-2.977.908z" fill="#42E8E0" id="Vector_189"/><path d="M331.958 145.32a3.66 3.66 0 01-1.793-.454 4.708 4.708 0 01-1.972-4.36v-4.991a3.522 3.522 0 00-.225-2.19 3.521 3.521 0 00-3.633-2.069 3.519 3.519 0 00-1.996.925l-4.336 2.505-.316-.532 4.337-2.506a4.141 4.141 0 016.761 3.946v4.991a3.537 3.537 0 001.677 3.811 3.518 3.518 0 002.14.457 3.534 3.534 0 001.998-.894l20.736-11.975.296.532-20.717 11.896a5.911 5.911 0 01-2.957.908z" fill="#42E8E0" id="Vector_190"/><path d="M340.02 149.936a3.42 3.42 0 01-1.794-.453 4.727 4.727 0 01-1.971-4.36v-5.051a4.108 4.108 0 00-1.695-3.807 4.138 4.138 0 00-4.139.434l-4.317 2.505-.315-.532 4.336-2.506a4.137 4.137 0 016.474 1.437c.354.786.455 1.663.287 2.509v4.991a3.534 3.534 0 001.671 3.945 3.523 3.523 0 004.242-.571l20.717-11.976.315.553-20.854 11.995a5.91 5.91 0 01-2.957.887z" fill="#42E8E0" id="Vector_191"/><path d="M348.062 154.612a3.485 3.485 0 01-1.793-.473 4.748 4.748 0 01-1.572-1.904 4.746 4.746 0 01-.4-2.437v-5.011a3.55 3.55 0 00-3.892-4.338 3.545 3.545 0 00-2.021.965l-4.258 2.604-.315-.533 4.317-2.505a4.156 4.156 0 016.477 1.441c.358.784.464 1.658.303 2.504v5.012a3.539 3.539 0 001.685 3.923 3.527 3.527 0 004.229-.57l20.716-11.975.316.553-20.717 11.975c-.94.521-2 .786-3.075.769z" fill="#42E8E0" id="Vector_192"/><path d="M356.124 159.248a3.485 3.485 0 01-1.793-.473 4.735 4.735 0 01-1.972-4.34v-5.011a4.162 4.162 0 00-1.695-3.808 4.094 4.094 0 00-4.139.454l-4.337 2.485-.315-.532 4.317-2.506a4.144 4.144 0 012.322-.986 4.14 4.14 0 014.439 4.932v5.011a4.168 4.168 0 001.695 3.808 4.1 4.1 0 004.1-.454l20.717-11.956.315.533-20.717 11.975a6.14 6.14 0 01-2.937.868z" fill="#42E8E0" id="Vector_193"/><path d="M364.186 163.885a3.486 3.486 0 01-1.793-.474 4.67 4.67 0 01-1.971-4.34v-5.011a3.542 3.542 0 00-.183-2.246 3.527 3.527 0 00-5.731-1.108l-4.336 2.505-.296-.552 4.317-2.486a4.118 4.118 0 016.499 1.419 4.13 4.13 0 01.262 2.527v5.011a3.55 3.55 0 005.913 3.374l20.717-11.976.315.533-20.717 11.975a6.139 6.139 0 01-2.996.849z" fill="#42E8E0" id="Vector_194"/><path d="M372.248 168.521a3.677 3.677 0 01-1.794-.454 4.72 4.72 0 01-1.971-4.36v-4.991a3.53 3.53 0 00-3.803-4.248 3.529 3.529 0 00-1.992.874l-4.396 2.486-.315-.553 4.337-2.485a4.687 4.687 0 014.77-.454 4.729 4.729 0 011.971 4.36v5.05a4.11 4.11 0 001.695 3.808 4.138 4.138 0 004.139-.434l20.717-11.975.296.532-20.697 12.015a5.914 5.914 0 01-2.957.829z" fill="#42E8E0" id="Vector_195"/><path d="M380.31 173.157a3.63 3.63 0 01-1.794-.454 4.713 4.713 0 01-1.971-4.36v-4.991a3.537 3.537 0 00-1.677-3.811 3.518 3.518 0 00-2.14-.457 3.534 3.534 0 00-1.998.894l-4.336 2.506-.315-.533 4.336-2.505a4.136 4.136 0 016.474 1.437c.354.786.455 1.663.287 2.508v4.992a3.536 3.536 0 001.751 3.648 3.522 3.522 0 004.024-.393l20.717-11.837.315.532-20.716 11.976a5.923 5.923 0 01-2.957.848z" fill="#42E8E0" id="Vector_196"/><path d="M388.313 177.793a3.52 3.52 0 01-1.794-.454 4.729 4.729 0 01-1.971-4.36v-4.991a3.55 3.55 0 00-3.892-4.338 3.545 3.545 0 00-2.021.965l-4.12 2.505-.315-.533 4.336-2.505a4.137 4.137 0 016.474 1.437c.355.786.455 1.663.287 2.509v4.991a3.534 3.534 0 001.671 3.945 3.523 3.523 0 004.243-.572l20.716-11.975.316.553-20.717 11.955a5.907 5.907 0 01-3.213.868z" fill="#42E8E0" id="Vector_197"/><path d="M396.414 182.449a3.494 3.494 0 01-1.793-.473 4.748 4.748 0 01-1.572-1.904 4.746 4.746 0 01-.4-2.437v-5.011a3.55 3.55 0 00-3.892-4.338 3.545 3.545 0 00-2.021.965l-4.336 2.505-.316-.532 4.317-2.506a4.137 4.137 0 016.474 1.437c.354.786.455 1.663.287 2.509v4.892a3.535 3.535 0 001.685 3.924 3.524 3.524 0 004.228-.57l20.776-11.896.316.552-20.776 11.936a6.145 6.145 0 01-2.977.947z" fill="#42E8E0" id="Vector_198"/><path d="M404.476 187.085a3.49 3.49 0 01-1.794-.473 4.743 4.743 0 01-1.971-4.34v-5.012a3.532 3.532 0 00-1.685-3.923 3.524 3.524 0 00-4.228.57l-4.337 2.485-.295-.532 4.317-2.506a4.138 4.138 0 016.761 3.946v5.011a4.16 4.16 0 001.695 3.808 4.094 4.094 0 004.139-.454l20.776-12.054.315.532-20.716 11.976a6.157 6.157 0 01-2.977.966z" fill="#42E8E0" id="Vector_199"/><path d="M412.538 191.721a3.481 3.481 0 01-1.794-.473 4.681 4.681 0 01-1.971-4.34v-5.011a4.094 4.094 0 00-.325-2.121 4.096 4.096 0 00-1.35-1.667 4.138 4.138 0 00-4.14.434l-4.336 2.505-.315-.552 4.336-2.506a4.144 4.144 0 012.323-.986 4.144 4.144 0 014.438 4.932v5.011a4.105 4.105 0 001.695 3.808 4.144 4.144 0 004.14-.434l20.716-11.975.296.532-20.717 11.975a5.895 5.895 0 01-2.996.868z" fill="#42E8E0" id="Vector_200"/><path d="M420.6 196.358a3.63 3.63 0 01-1.794-.454 4.727 4.727 0 01-1.971-4.36v-4.991a3.538 3.538 0 00-1.677-3.812 3.525 3.525 0 00-4.138.438l-4.336 2.506-.316-.553 4.337-2.486a4.144 4.144 0 012.323-.986 4.14 4.14 0 014.438 4.932v4.991a3.53 3.53 0 005.815 3.374l20.716-11.975.316.532-20.717 11.976a5.917 5.917 0 01-2.996.868z" fill="#42E8E0" id="Vector_201"/><path d="M428.642 200.994a3.727 3.727 0 01-1.794-.454 4.737 4.737 0 01-1.971-4.36v-4.991a4.11 4.11 0 00-1.695-3.808 4.13 4.13 0 00-4.139.434l-4.317 2.506-.315-.533 4.336-2.506a4.144 4.144 0 012.323-.986 4.144 4.144 0 014.438 4.932v4.991a3.532 3.532 0 003.817 4.268 3.524 3.524 0 001.998-.894l20.717-11.975.315.552-20.677 11.916a5.918 5.918 0 01-3.036.908z" fill="#42E8E0" id="Vector_202"/><path d="M436.704 205.63a3.468 3.468 0 01-1.794-.454 4.745 4.745 0 01-1.971-4.36v-4.991a3.55 3.55 0 00-5.913-3.374l-4.317 2.506-.315-.533 4.317-2.505a4.131 4.131 0 014.785-.439 4.15 4.15 0 011.976 4.384v4.992a3.55 3.55 0 003.892 4.338 3.545 3.545 0 002.021-.965l20.717-11.975.315.553-20.717 11.975a6.103 6.103 0 01-2.996.848z" fill="#42E8E0" id="Vector_203"/><path d="M444.766 210.286a3.49 3.49 0 01-1.794-.474 4.736 4.736 0 01-1.971-4.34v-5.011a4.157 4.157 0 00-1.695-3.807 4.09 4.09 0 00-4.139.453l-4.337 2.486-.296-.533 4.317-2.505a4.137 4.137 0 016.474 1.437c.355.786.455 1.663.287 2.509v5.011a3.539 3.539 0 001.685 3.923 3.526 3.526 0 004.229-.57l20.716-11.975.316.553-20.717 11.975a6.151 6.151 0 01-3.075.868z" fill="#42E8E0" id="Vector_204"/><path d="M452.828 214.922a3.488 3.488 0 01-1.794-.473 4.684 4.684 0 01-1.971-4.341v-4.932a4.16 4.16 0 00-1.616-3.945 4.1 4.1 0 00-4.14.453l-4.336 2.486-.296-.533 4.317-2.505a4.137 4.137 0 016.474 1.437c.354.786.455 1.663.287 2.509v5.011a3.532 3.532 0 003.895 4.35 3.527 3.527 0 002.018-.996l20.717-11.956.315.533-20.736 11.975a6.06 6.06 0 01-3.134.927z" fill="#42E8E0" id="Vector_205"/><path d="M460.89 219.558a3.488 3.488 0 01-1.794-.473 4.678 4.678 0 01-1.971-4.34v-4.992a3.537 3.537 0 00-1.677-3.811 3.529 3.529 0 00-4.138.438l-4.336 2.505-.316-.552 4.337-2.506a4.144 4.144 0 012.323-.986 4.14 4.14 0 014.438 4.932v4.991a3.53 3.53 0 005.815 3.374l20.736-11.975.296.532-20.717 11.975a5.897 5.897 0 01-2.996.888z" fill="#42E8E0" id="Vector_206"/><path id="Vector_207" d="M450.542 210.404v18.407l-159.209 91.994-159.208-91.994v-18.407h318.417z" fill="url(#paint1_linear)"/><path id="Vector_208" d="M291.333 302.398l-159.208-91.994 159.208-91.994 159.209 91.994-159.209 91.994z" fill="#BCBEFF"/><path id="Vector_209" d="M291.333 300.248l-157.335-90.929-1.873 1.085 159.208 91.994 159.209-91.994-1.873-1.085-157.336 90.929z" fill="#fff"/><path id="Vector_210" d="M291.333 281.17l-122.447-70.746 122.447-70.766 122.447 70.766-122.447 70.746z" fill="#0F054C"/><path id="Vector_211" opacity=".5" d="M291.333 281.19l-122.447-70.766 122.447-70.766 122.447 70.766-122.447 70.766z" fill="url(#paint2_linear)"/><path id="Vector_212" opacity=".5" d="M291.333 121.823l122.447 70.766v17.835l-122.447-70.766v-17.835z" fill="url(#paint3_linear)"/><path id="Vector_213" opacity=".5" d="M291.333 139.658l-122.447 70.766V192.57l122.447-70.747v17.835z" fill="url(#paint4_linear)"/><path id="Vector_214" opacity=".5" d="M291.333 263.336L168.886 192.57l122.447-70.747 122.447 70.766-122.447 70.747z" fill="url(#paint5_linear)"/><path id="Vector_215" opacity=".5" d="M291.333 220.86l-48.923-28.29 48.923-28.271 48.924 28.271-48.924 28.29z" fill="#42E8E0"/><path id="Vector_216" opacity=".5" d="M291.333 166.903l46.677 26.989 2.247-1.322-48.924-28.271-48.923 28.271 2.247 1.302 46.676-26.969z" fill="#42E8E0"/><path id="Vector_217" opacity=".5" d="M291.333 263.336v17.854l122.447-70.766v-17.835l-122.447 70.747z" fill="url(#paint6_linear)"/><path id="Vector_218" opacity=".5" d="M168.886 192.57v17.854l122.447 70.766v-17.854L168.886 192.57z" fill="url(#paint7_linear)"/><path id="Vector_219" opacity=".8" d="M291.333 261.402l-120.771-69.799-1.676.967 122.447 70.766 122.447-70.747-1.676-.986-120.771 69.799z" fill="#42E8E0"/><path d="M331.15 342.447l-20.716-11.975a14.285 14.285 0 01-6.446-11.186v-4.992a13.644 13.644 0 00-6.15-10.653l-4.317-2.486.316-.552 4.316 2.505a14.248 14.248 0 016.446 11.186v4.992a13.612 13.612 0 006.15 10.653l20.716 11.956-.315.552z" fill="#42E8E0" id="Vector_220"/><path d="M339.212 337.791l-20.717-11.975a14.228 14.228 0 01-6.445-11.166v-4.913a13.592 13.592 0 00-6.15-10.633l-4.317-2.605.296-.532 4.336 2.486a14.357 14.357 0 016.446 11.186v5.011a13.6 13.6 0 006.15 10.633l20.716 12.074-.315.434z" fill="#42E8E0" id="Vector_221"/><path d="M347.274 333.155l-20.717-11.975a14.288 14.288 0 01-6.465-11.186v-4.992a13.583 13.583 0 00-6.13-10.653l-4.317-2.486.296-.552 4.336 2.505a14.285 14.285 0 016.446 11.186v4.992a13.702 13.702 0 006.13 10.653l20.736 11.955-.315.553z" fill="#42E8E0" id="Vector_222"/><path d="M355.336 328.499L334.6 316.524a14.282 14.282 0 01-6.446-11.167v-5.011a13.572 13.572 0 00-6.13-10.633l-4.337-2.506.316-.532 4.336 2.485a14.36 14.36 0 014.552 4.826 14.36 14.36 0 011.894 6.36v5.011a13.613 13.613 0 006.13 10.634l20.717 11.975-.296.533z" fill="#42E8E0" id="Vector_223"/><path d="M363.378 323.863l-20.716-11.975a14.34 14.34 0 01-6.446-11.186v-5.011a13.616 13.616 0 00-6.13-10.634l-4.337-2.506.316-.532 4.316 2.505a14.251 14.251 0 016.466 11.167v5.011a13.582 13.582 0 006.13 10.633l20.717 11.976-.316.552z" fill="#42E8E0" id="Vector_224"/><path d="M371.44 319.207l-20.717-11.975a14.284 14.284 0 01-6.445-11.186v-4.992a13.654 13.654 0 00-6.15-10.653l-4.317-2.486.315-.552 4.317 2.505a14.278 14.278 0 016.465 11.186v4.992a13.576 13.576 0 006.131 10.653l20.716 11.975-.315.533z" fill="#42E8E0" id="Vector_225"/><path d="M379.502 314.551l-20.756-11.975a14.23 14.23 0 01-6.446-11.167v-5.011a13.6 13.6 0 00-6.15-10.633l-4.317-2.506.316-.532 4.317 2.505a14.228 14.228 0 016.445 11.166v5.011a13.604 13.604 0 006.15 10.634l20.717 11.975-.276.533z" fill="#42E8E0" id="Vector_226"/><path d="M387.564 309.915L366.847 297.9a14.24 14.24 0 01-6.445-11.186v-4.991a13.597 13.597 0 00-6.15-10.654l-4.317-2.485.296-.553 4.336 2.506a14.28 14.28 0 016.446 11.186v4.991a13.66 13.66 0 006.15 10.653l20.716 11.956-.315.592z" fill="#42E8E0" id="Vector_227"/><path d="M395.626 305.259l-20.717-11.975a14.245 14.245 0 01-6.465-11.167v-5.011a13.57 13.57 0 00-6.13-10.633l-4.337-2.506.315-.533 4.337 2.486a14.35 14.35 0 016.446 11.186v5.011a13.617 13.617 0 006.13 10.634l20.716 11.975-.295.533z" fill="#42E8E0" id="Vector_228"/><path d="M403.668 300.623l-20.717-11.975a14.322 14.322 0 01-6.445-11.187v-4.991a13.624 13.624 0 00-6.13-10.653l-4.337-2.506.315-.532 4.337 2.505a14.28 14.28 0 016.446 11.186v4.991a13.571 13.571 0 006.13 10.634l20.815 11.975-.414.553z" fill="#42E8E0" id="Vector_229"/><path d="M411.73 295.927l-20.717-11.837a14.277 14.277 0 01-6.445-11.186v-4.991a13.618 13.618 0 00-6.13-10.634l-4.337-2.505.315-.533 4.317 2.486a14.266 14.266 0 014.569 4.819 14.308 14.308 0 011.897 6.367v4.991a13.567 13.567 0 006.13 10.653l20.638 11.877-.237.493z" fill="#42E8E0" id="Vector_230"/><path d="M419.851 291.311l-20.717-11.956a14.344 14.344 0 01-6.445-11.186v-5.011a13.592 13.592 0 00-6.15-10.633l-4.317-2.506.316-.533 4.316 2.506a14.212 14.212 0 014.56 4.81 14.241 14.241 0 011.886 6.356v5.011a13.604 13.604 0 006.15 10.634l20.716 11.975-.315.533z" fill="#42E8E0" id="Vector_231"/><path d="M427.854 286.675l-20.717-11.976a14.253 14.253 0 01-6.445-11.186v-5.07a13.655 13.655 0 00-6.15-10.653l-4.258-2.407.296-.553 4.336 2.506a14.28 14.28 0 016.446 11.186v4.991a13.6 13.6 0 006.15 10.654l20.657 11.896-.315.612z" fill="#42E8E0" id="Vector_232"/><path d="M435.916 282.117l-20.717-11.975a14.242 14.242 0 01-6.465-11.166v-5.011a13.578 13.578 0 00-6.13-10.634l-4.337-2.505.315-.533 4.337 2.505a14.282 14.282 0 016.446 11.167v5.011a13.617 13.617 0 006.13 10.633l20.716 11.976-.295.532z" fill="#42E8E0" id="Vector_233"/><path d="M443.958 277.382l-20.717-11.975a14.277 14.277 0 01-6.445-11.186v-4.991a13.63 13.63 0 00-6.13-10.653l-4.337-2.506.315-.533 4.337 2.506a14.28 14.28 0 016.446 11.186v4.991a13.617 13.617 0 006.13 10.634l20.716 11.975-.315.552z" fill="#42E8E0" id="Vector_234"/><path d="M452.02 272.727l-20.717-11.976a14.287 14.287 0 01-6.445-11.166v-4.952A13.603 13.603 0 00418.727 234l-4.336-2.506.315-.533 4.317 2.486a14.32 14.32 0 016.465 11.186v5.011a13.571 13.571 0 006.19 10.575l20.657 12.034-.315.474z" fill="#42E8E0" id="Vector_235"/><path d="M460.082 268.09l-20.717-11.975a14.325 14.325 0 01-6.445-11.186v-4.991a13.584 13.584 0 00-6.15-10.653l-4.317-2.407.315-.533 4.317 2.505a14.248 14.248 0 016.446 11.187v4.991a13.6 13.6 0 006.15 10.633l20.716 11.976-.315.453z" fill="#42E8E0" id="Vector_236"/><path d="M468.144 263.434l-20.697-11.975a14.254 14.254 0 01-6.446-11.186v-4.991a13.595 13.595 0 00-6.15-10.634l-4.317-2.505.296-.553 4.337 2.506a14.32 14.32 0 016.445 11.186v4.991a13.597 13.597 0 006.15 10.654l20.717 11.975-.335.532z" fill="#42E8E0" id="Vector_237"/><path d="M476.206 258.778l-20.717-11.955a14.32 14.32 0 01-6.465-11.186v-5.011a13.579 13.579 0 00-6.131-10.634l-4.316-2.505.295-.533 4.337 2.506a14.275 14.275 0 016.445 11.166v5.011a13.606 13.606 0 006.131 10.634l20.736 11.975-.315.532z" fill="#42E8E0" id="Vector_238"/><path d="M484.268 254.142l-20.737-11.975a14.277 14.277 0 01-6.445-11.186v-4.991a13.607 13.607 0 00-6.13-10.654l-4.337-2.485.316-.553 4.336 2.506a14.28 14.28 0 016.446 11.186v4.991a13.65 13.65 0 006.13 10.653l20.716 11.956-.295.552z" fill="#42E8E0" id="Vector_239"/><path d="M250.945 342.447l-.296-.552 20.717-11.956a13.65 13.65 0 006.13-10.653v-4.992a14.285 14.285 0 016.446-11.186l4.336-2.505.315.552-4.336 2.486a13.624 13.624 0 00-6.13 10.653v4.992a14.271 14.271 0 01-6.466 11.186l-20.716 11.975z" fill="#42E8E0" id="Vector_240"/><path d="M242.903 337.791l-.316-.533 20.717-11.975a13.562 13.562 0 006.13-10.633v-4.913a14.348 14.348 0 016.446-11.186l4.336-2.486.315.533-4.336 2.506a13.599 13.599 0 00-4.342 4.582 13.623 13.623 0 00-1.808 6.051v5.011a14.287 14.287 0 01-6.446 11.167l-20.696 11.876z" fill="#42E8E0" id="Vector_241"/><path d="M234.841 333.155l-.316-.553 20.717-11.955a13.624 13.624 0 006.13-10.653v-4.992a14.283 14.283 0 011.894-6.368 14.278 14.278 0 014.571-4.818l4.317-2.505.315.552-4.395 2.486a13.625 13.625 0 00-6.13 10.653v4.992a14.334 14.334 0 01-6.446 11.186l-20.657 11.975z" fill="#42E8E0" id="Vector_242"/><path d="M226.779 328.499l-.316-.533 20.717-11.975a13.595 13.595 0 006.15-10.634v-5.011a14.313 14.313 0 016.445-11.186l4.317-2.485.316.532-4.219 2.506a13.586 13.586 0 00-6.149 10.633v5.011a14.301 14.301 0 01-6.446 11.167l-20.815 11.975z" fill="#42E8E0" id="Vector_243"/><path d="M218.796 323.863l-.316-.552 20.717-11.976a13.592 13.592 0 006.15-10.633v-5.011a14.287 14.287 0 016.445-11.167l4.337-2.505.296.532-4.317 2.506a13.592 13.592 0 00-6.15 10.634v5.011a14.313 14.313 0 01-6.446 11.186l-20.716 11.975z" fill="#42E8E0" id="Vector_244"/><path d="M210.655 319.207l-.296-.533 20.717-11.975a13.624 13.624 0 006.13-10.653v-4.992a14.324 14.324 0 016.446-11.186l4.336-2.505.315.552-4.336 2.486a13.624 13.624 0 00-6.13 10.653v4.992a14.271 14.271 0 01-6.466 11.186l-20.716 11.975z" fill="#42E8E0" id="Vector_245"/><path d="M202.613 314.551l-.316-.533 20.717-11.975a13.571 13.571 0 006.13-10.634v-5.011a14.296 14.296 0 016.446-11.166l4.336-2.505.316.532-4.337 2.506a13.616 13.616 0 00-6.13 10.633v5.011a14.287 14.287 0 01-6.446 11.167l-20.716 11.975z" fill="#42E8E0" id="Vector_246"/><path d="M194.551 309.915l-.316-.553 20.717-11.955a13.624 13.624 0 006.13-10.653v-4.992a14.271 14.271 0 016.465-11.186l4.317-2.505.316.552-4.337 2.486a13.624 13.624 0 00-6.13 10.653v4.992a14.285 14.285 0 01-6.446 11.186l-20.716 11.975z" fill="#42E8E0" id="Vector_247"/><path d="M153.058 324.119h-.157l-88.11-50.643.296-.532 87.971 50.544 33.115-18.683 20.796-12.054a13.595 13.595 0 006.15-10.634v-5.011a14.311 14.311 0 016.445-11.186l4.317-2.486.315.533-4.316 2.506a13.6 13.6 0 00-6.15 10.633v5.011a14.282 14.282 0 01-6.446 11.167l-20.716 11.975-33.51 18.86z" fill="#42E8E0" id="Vector_248"/><path d="M178.427 300.623l-.316-.553 20.717-12.034a13.595 13.595 0 006.15-10.634v-4.991a14.293 14.293 0 016.445-11.186l4.337-2.506.296.533-4.317 2.506a13.597 13.597 0 00-6.15 10.653v4.991a14.278 14.278 0 01-6.446 11.186l-20.716 12.035z" fill="#42E8E0" id="Vector_249"/><path d="M170.365 295.927l-.315-.532 20.736-11.976a13.63 13.63 0 006.13-10.653v-4.991a14.324 14.324 0 016.446-11.186l4.336-2.486.296.533-4.317 2.505a13.565 13.565 0 00-6.13 10.634v4.991a14.272 14.272 0 01-6.465 11.324l-20.717 11.837z" fill="#42E8E0" id="Vector_250"/><path d="M162.303 291.311l-.296-.533 20.717-11.975a13.616 13.616 0 006.13-10.634v-5.011a14.283 14.283 0 016.446-11.166l4.336-2.506.316.533-4.337 2.506a13.562 13.562 0 00-6.13 10.633v5.011a14.357 14.357 0 01-6.446 11.186l-20.736 11.956z" fill="#42E8E0" id="Vector_251"/><path d="M154.261 286.675l-.316-.612 20.717-11.837a13.573 13.573 0 006.13-10.653v-5.13a14.272 14.272 0 016.465-11.107l4.317-2.506.316.553-4.337 2.486a13.686 13.686 0 00-6.209 10.574v4.991a14.285 14.285 0 01-6.446 11.186l-20.637 12.055z" fill="#42E8E0" id="Vector_252"/><path d="M146.199 282.117l-.315-.532 20.716-11.976a13.562 13.562 0 006.13-10.633v-5.011a14.242 14.242 0 016.466-11.305l4.316-2.505.316.532-4.317 2.506a13.595 13.595 0 00-6.051 10.673v5.011a14.279 14.279 0 01-6.446 11.166l-20.815 12.074z" fill="#42E8E0" id="Vector_253"/><path d="M138.137 277.382l-.315-.552 20.716-11.975a13.586 13.586 0 006.15-10.634v-4.991a14.254 14.254 0 016.446-11.186l4.297-2.506.315.533-4.258 2.506a13.594 13.594 0 00-6.149 10.653v4.991a14.267 14.267 0 01-1.884 6.366 14.23 14.23 0 01-4.562 4.82l-20.756 11.975z" fill="#42E8E0" id="Vector_254"/><path d="M130.095 272.727l-.316-.533 20.717-11.975a13.595 13.595 0 006.15-10.634v-4.952a14.348 14.348 0 016.445-11.186l4.337-2.486.296.533-4.317 2.506a13.587 13.587 0 00-6.17 10.633v5.011a14.232 14.232 0 01-6.445 11.167l-20.697 11.916z" fill="#42E8E0" id="Vector_255"/><path d="M122.013 268.09l-.296-.552 20.717-11.975a13.616 13.616 0 006.13-10.634v-4.991a14.292 14.292 0 016.446-11.088l4.336-2.505.316.533-4.337 2.505a13.573 13.573 0 00-6.13 10.654v4.991a14.295 14.295 0 01-6.465 11.186l-20.717 11.876z" fill="#42E8E0" id="Vector_256"/><path d="M113.971 263.434l-.315-.532 20.716-11.975a13.57 13.57 0 006.13-10.654v-4.991a14.325 14.325 0 016.446-11.186l4.336-2.506.316.553-4.337 2.505a13.616 13.616 0 00-6.13 10.634v4.991a14.293 14.293 0 01-6.446 11.186l-20.716 11.975z" fill="#42E8E0" id="Vector_257"/><path d="M105.909 258.779l-.315-.533 20.716-11.975a13.565 13.565 0 006.13-10.634v-5.011a14.255 14.255 0 016.466-11.166l4.316-2.447.316.533-4.337 2.505a13.625 13.625 0 00-4.331 4.586 13.63 13.63 0 00-1.799 6.048v5.011a14.344 14.344 0 01-6.446 11.186l-20.716 11.897z" fill="#42E8E0" id="Vector_258"/><path d="M97.847 254.142l-.316-.552 20.737-11.956a13.59 13.59 0 004.346-4.591 13.638 13.638 0 001.804-6.062v-4.991a14.253 14.253 0 016.445-11.186l4.317-2.506.315.553-4.316 2.485a13.608 13.608 0 00-6.15 10.654v4.991a14.293 14.293 0 01-6.446 11.186l-20.736 11.975z" fill="#42E8E0" id="Vector_259"/><g id="Group_3" opacity=".1"><path id="Vector_260" opacity=".1" d="M132.125 166.942l-29.685-17.163v34.327l29.685 17.164 29.705-17.164v-34.327l-29.705 17.163z" fill="#42E8E0"/><path id="Vector_261" opacity=".1" d="M132.125 201.27l-29.685-17.164v-34.327l29.685 17.163v34.328z" fill="#42E8E0"/><path id="Vector_262" opacity=".1" d="M161.83 184.106l-29.705 17.164v-34.328l29.705-17.163v34.327z" fill="#2FD3C7"/><path id="Vector_263" opacity=".1" d="M132.125 166.942l-29.685-17.163 29.685-17.164 29.705 17.164-29.705 17.163z" fill="#42E8E0"/><path id="Vector_264" opacity=".1" d="M132.125 166.942l-29.685-17.163v1.479l29.685 17.164 29.705-17.164v-1.479l-29.705 17.163z" fill="#fff"/></g><g id="lewy dolny"><path id="Vector_265" opacity=".4" d="M132.125 146.129l-29.685-17.164 29.685-17.164 29.705 17.164-29.705 17.164z" fill="#03002D"/><path id="Vector_266" d="M132.685 97.328L103 80.164v34.308l29.685 17.163 29.705-17.163V80.164l-29.705 17.164z" fill="#42E8E0"/><path id="Vector_267" d="M132.685 131.635L103 114.491V80.164l29.685 17.164v34.307z" fill="#42E8E0"/><path id="Vector_268" d="M162.39 114.491l-29.705 17.144V97.328l29.705-17.164v34.327z" fill="#2FD3C7"/><path id="Vector_269" d="M132.685 97.328L103 80.164 132.685 63l29.705 17.164-29.705 17.164z" fill="#42E8E0"/><path id="Vector_270" d="M132.685 93.106l-22.392-12.942 22.392-12.942 22.412 12.942-22.412 12.942z" fill="#2FD3C7"/><path id="Vector_271" d="M132.685 97.328L103 80.164v1.48l29.685 17.163 29.705-17.163v-1.48l-29.705 17.164z" fill="#fff"/></g><g id="lewy grny"><path id="Vector_272" d="M132.125 34.328L102.44 17.164V51.49l29.685 17.164 29.705-17.164V17.164l-29.705 17.164z" fill="#42E8E0"/><path id="Vector_273" d="M132.125 68.655L102.44 51.491V17.164l29.685 17.164v34.327z" fill="#42E8E0"/><path id="Vector_274" d="M161.83 51.491l-29.705 17.164V34.328l29.705-17.164V51.49z" fill="#2FD3C7"/><path id="Vector_275" d="M132.125 34.328L102.44 17.164 132.125 0l29.705 17.164-29.705 17.164z" fill="#42E8E0"/><path id="Vector_276" d="M132.125 34.328L102.44 17.164v1.48l29.685 17.163 29.705-17.164v-1.48l-29.705 17.165z" fill="#fff"/></g><g id="prawy klocek"><g id="Group_4" opacity=".1"><path id="Vector_277" opacity=".1" d="M523.059 186.691l-29.705-17.164v34.327l29.705 17.164 29.705-17.164v-34.327l-29.705 17.164z" fill="#42E8E0"/><path id="Vector_278" opacity=".1" d="M523.059 221.018l-29.705-17.164v-34.327l29.705 17.164v34.327z" fill="#42E8E0"/><path id="Vector_279" opacity=".1" d="M552.765 203.854l-29.705 17.164v-34.327l29.705-17.164v34.327z" fill="#2FD3C7"/><path id="Vector_280" opacity=".1" d="M523.059 186.691l-29.705-17.164 29.705-17.164 29.705 17.164-29.705 17.164z" fill="#42E8E0"/><path id="Vector_281" opacity=".1" d="M523.059 186.691l-29.705-17.164v1.499l29.705 17.164 29.705-17.164v-1.499l-29.705 17.164z" fill="#fff"/></g><path d="M523.848 173.946h-.158l-43.483-25.213.473-.276 43.168-24.937h.158l43.463 25.134-.453.257-43.168 25.035zm-42.399-25.213l42.399 24.483 42.379-24.483-42.379-24.444-42.399 24.444z" fill="#42E8E0" id="Vector_282"/><path id="Vector_283" opacity=".4" d="M523.059 165.897l-29.705-17.164 29.705-17.164 29.705 17.164-29.705 17.164z" fill="#03002D"/><path id="Vector_284" d="M523.059 105.567l-29.705-17.164v34.328l29.705 17.164 29.705-17.164V88.403l-29.705 17.164z" fill="#42E8E0"/><path id="Vector_285" d="M523.059 139.895l-29.705-17.164V88.403l29.705 17.164v34.328z" fill="#42E8E0"/><path id="Vector_286" d="M552.765 122.731l-29.705 17.164v-34.328l29.705-17.164v34.328z" fill="#2FD3C7"/><path id="Vector_287" d="M523.059 105.567l-29.705-17.164 29.705-17.163 29.705 17.163-29.705 17.164z" fill="#42E8E0"/><path id="Vector_288" d="M523.059 105.567l-29.705-17.164v1.5l29.705 17.163 29.705-17.163v-1.5l-29.705 17.164z" fill="#fff"/></g><path d="M43.64 285.787l-.157-.099L0 260.574l.473-.276 43.168-24.937h.157l43.464 25.134-.453.276-43.168 25.016zM1.243 260.574l42.399 24.483 42.38-24.483-42.38-24.503-42.4 24.503z" fill="#42E8E0" id="Vector_289"/><g id="lewy klocek"><g id="Group_5" opacity=".1"><path id="Vector_290" opacity=".1" d="M44.705 290.451L15 273.287v34.328l29.705 17.164 29.685-17.164v-34.328l-29.685 17.164z" fill="#42E8E0"/><path id="Vector_291" opacity=".1" d="M44.705 324.779L15 307.615v-34.328l29.705 17.164v34.328z" fill="#42E8E0"/><path id="Vector_292" opacity=".1" d="M74.39 307.615l-29.685 17.164v-34.328l29.685-17.164v34.328z" fill="#2FD3C7"/><path id="Vector_293" opacity=".1" d="M44.705 290.451L15 273.287l29.705-17.163 29.685 17.163-29.685 17.164z" fill="#42E8E0"/><path id="Vector_294" opacity=".1" d="M44.705 290.451L15 273.287v1.48l29.705 17.164 29.685-17.164v-1.48l-29.685 17.164z" fill="#fff"/></g><path id="Vector_295" opacity=".4" d="M44.705 269.638L15 252.474l29.705-17.164 29.685 17.164-29.685 17.164z" fill="#03002D"/><path id="Vector_296" d="M44.705 209.327L15 192.164v34.308l29.705 17.163 29.685-17.163v-34.308l-29.685 17.163z" fill="#42E8E0"/><path id="Vector_297" d="M44.705 243.635L15 226.472v-34.308l29.705 17.163v34.308z" fill="#42E8E0"/><path id="Vector_298" d="M74.39 226.472l-29.685 17.163v-34.308l29.685-17.163v34.308z" fill="#2FD3C7"/><path id="Vector_299" d="M44.705 209.328L15 192.164 44.705 175l29.685 17.164-29.685 17.164z" fill="#42E8E0"/><path id="Vector_300" d="M44.705 209.327L15 192.164v1.479l29.705 17.164 29.685-17.164v-1.479l-29.685 17.163z" fill="#fff"/></g><g id="dolny kloeck"><g id="Group_6" opacity=".1"><path id="Vector_301" opacity=".1" d="M288.436 462.672l-29.705-17.163v34.327L288.436 497l29.705-17.164v-34.327l-29.705 17.163z" fill="#42E8E0"/><path id="Vector_302" opacity=".1" d="M288.436 497l-29.705-17.164v-34.327l29.705 17.163V497z" fill="#42E8E0"/><path id="Vector_303" opacity=".1" d="M318.141 479.836L288.436 497v-34.328l29.705-17.163v34.327z" fill="#2FD3C7"/><path id="Vector_304" opacity=".1" d="M288.436 462.672l-29.705-17.163 29.705-17.164 29.685 17.164-29.685 17.163z" fill="#42E8E0"/><path id="Vector_305" opacity=".1" d="M288.436 462.672l-29.705-17.163v1.479l29.705 17.164 29.685-17.164.02-1.479-29.705 17.163z" fill="#fff"/></g><path id="Vector_306" opacity=".4" d="M288.436 441.859l-29.705-17.164 29.705-17.164 29.685 17.164-29.685 17.164z" fill="#03002D"/><path id="Vector_307" d="M288.436 381.549l-29.705-17.164v34.308l29.705 17.164 29.705-17.164v-34.308l-29.705 17.164z" fill="#42E8E0"/><path id="Vector_308" d="M288.436 415.857l-29.705-17.164v-34.308l29.705 17.164v34.308z" fill="#42E8E0"/><path id="Vector_309" d="M318.141 398.693l-29.705 17.164v-34.308l29.705-17.164v34.308z" fill="#2FD3C7"/><path id="Vector_310" d="M288.436 381.549l-29.705-17.164 29.705-17.164 29.685 17.164-29.685 17.164z" fill="#42E8E0"/><path id="Vector_311" d="M288.436 381.549l-29.705-17.164v1.48l29.705 17.164 29.685-17.164.02-1.48-29.705 17.164z" fill="#fff"/></g><path id="Vector_312" opacity=".4" d="M537.902 399.028c-19.573 0-39.147-4.3-54.048-12.922-14.488-8.384-22.471-19.531-22.471-31.408 0-11.876 7.983-23.042 22.471-31.427 29.803-17.223 78.313-17.223 108.116 0 14.488 8.385 22.471 19.531 22.471 31.427 0 11.897-7.983 23.024-22.471 31.408-14.901 8.622-34.475 12.922-54.068 12.922zm0-88.048c-19.455 0-38.91 4.281-53.733 12.843-14.291 8.247-22.175 19.216-22.175 30.875 0 11.66 7.884 22.609 22.175 30.876 29.567 17.124 77.86 17.124 107.486 0 14.291-8.267 22.175-19.236 22.175-30.876 0-11.639-7.884-22.628-22.175-30.875-14.823-8.562-34.278-12.843-53.753-12.843z" fill="#42E8E0"/><path id="Vector_313" opacity=".2" d="M537.902 410.905c-24.836 0-49.673-5.465-68.576-16.394-18.39-10.634-28.502-24.76-28.502-39.813 0-15.052 10.112-29.198 28.502-39.831 37.807-21.84 99.345-21.84 137.171 0C624.888 325.481 635 339.626 635 354.679c0 15.053-10.151 29.198-28.503 39.891l-.157-.277.157.277c-18.903 10.87-43.739 16.335-68.595 16.335zm0-111.801c-24.718 0-49.456 5.445-68.28 16.315-18.233 10.496-28.089 24.444-28.089 39.279 0 14.836 10.014 28.765 28.188 39.26 37.668 21.701 98.911 21.701 136.559 0 18.194-10.495 28.188-24.443 28.188-39.26 0-14.816-10.014-28.783-28.188-39.279-18.883-10.87-43.64-16.315-68.378-16.315z" fill="#42E8E0"/><path id="Vector_314" d="M537.922 389.677c-15.434 0-30.868-3.393-42.616-10.18-11.433-6.609-17.74-15.428-17.74-24.799 0-9.371 6.307-18.189 17.74-24.798 23.496-13.573 61.716-13.573 85.212 0 11.432 6.609 17.74 15.408 17.74 24.798 0 9.391-6.308 18.19-17.74 24.799-11.748 6.787-27.182 10.18-42.596 10.18zm0-69.346c-15.316 0-30.632 3.374-42.281 10.101-11.236 6.491-17.425 15.112-17.425 24.266 0 9.154 6.189 17.756 17.425 24.247 23.318 13.474 61.263 13.474 84.581 0l.158.276-.158-.276c11.236-6.491 17.425-15.112 17.425-24.247 0-9.134-6.189-17.755-17.425-24.266-11.689-6.727-27.004-10.101-42.32-10.101h.02z" fill="#42E8E0"/><g id="dolny prawy"><g id="Group_7" opacity=".1"><path id="Vector_315" opacity=".1" d="M532.659 382.299l25.684 22.727 6.82-33.637-25.684-22.728-32.524 10.891-6.82 33.656 32.524-10.909z" fill="#42E8E0"/><path id="Vector_316" opacity=".1" d="M539.479 348.661l25.684 22.728-6.82 33.637-25.684-22.727 6.82-33.638z" fill="#42E8E0"/><path id="Vector_317" opacity=".1" d="M506.955 359.552l32.524-10.891-6.82 33.638-32.524 10.909 6.82-33.656z" fill="#2FD3C7"/><path id="Vector_318" opacity=".1" d="M532.659 382.299l25.684 22.727-32.524 10.91-25.684-22.728 32.524-10.909z" fill="#42E8E0"/><path id="Vector_319" opacity=".1" d="M532.659 382.299l25.684 22.727.295-1.46-25.683-22.727-32.524 10.909-.296 1.46 32.524-10.909z" fill="#fff"/></g><path id="Vector_320" opacity=".4" d="M537.902 369.219l-29.685-17.164 29.685-17.164 29.705 17.164-29.705 17.164z" fill="#03002D"/><path id="Vector_321" d="M534.492 321.87l-3.41-34.17-27.852 20.025 3.41 34.17 31.242 14.125 27.853-20.024-31.243-14.126z" fill="#42E8E0"/><path id="Vector_322" d="M506.64 341.895l-3.41-34.17 27.852-20.025 3.41 34.17-27.852 20.025z" fill="#42E8E0"/><path id="Vector_323" d="M537.882 356.02l-31.242-14.125 27.852-20.025 31.242 14.126-27.852 20.024z" fill="#2FD3C7"/><path id="Vector_324" d="M534.492 321.87l-3.41-34.17 31.262 14.146 3.39 34.15-31.242-14.126z" fill="#42E8E0"/><path id="Vector_325" d="M534.492 321.87l-3.41-34.17-1.202.868 3.41 34.17 31.242 14.126 1.202-.868-31.242-14.126z" fill="#fff"/><path id="Vector_326" opacity=".4" d="M520.359 348.089h28.562l-11.039 7.931-17.523-7.931z" fill="#03002D"/></g><path id="Vector_327" d="M291.333 130.346l-29.705-17.164v34.328l29.705 17.164 29.705-17.164v-34.328l-29.705 17.164z" fill="#42E8E0"/><path id="Vector_328" d="M291.333 164.674l-29.705-17.164v-34.328l29.705 17.164v34.328z" fill="#42E8E0"/><path id="Vector_329" d="M321.038 147.51l-29.705 17.164v-34.328l29.705-17.164v34.328z" fill="#2FD3C7"/><path id="Vector_330" d="M291.333 130.346l-29.705-17.164 29.705-17.163 29.705 17.163-29.705 17.164z" fill="#42E8E0"/><path id="Vector_331" d="M291.333 130.346l-28.404-16.414-1.301.75 29.705 17.163 29.705-17.163-1.281-.75-28.424 16.414z" fill="#fff"/><path id="Vector_332" d="M329.908 152.383l-29.685-17.164v34.328l29.685 17.163 29.705-17.163v-34.328l-29.705 17.164z" fill="#42E8E0"/><path id="Vector_333" d="M329.908 186.71l-29.685-17.163v-34.328l29.685 17.164v34.327z" fill="#42E8E0"/><path id="Vector_334" d="M359.613 169.547l-29.705 17.163v-34.327l29.705-17.164v34.328z" fill="#2FD3C7"/><path id="Vector_335" d="M329.908 152.383l-29.685-17.164 29.685-17.164 29.705 17.164-29.705 17.164z" fill="#42E8E0"/><path id="Vector_336" d="M329.908 152.383l-28.404-16.414-1.281.73 29.685 17.163 29.705-17.144-1.281-.749-28.424 16.414z" fill="#fff"/><path id="Vector_337" d="M368.483 174.42l-29.685-17.164v34.327l29.685 17.144 29.705-17.144v-34.327l-29.705 17.164z" fill="#42E8E0"/><path id="Vector_338" d="M368.483 208.727l-29.685-17.144v-34.327l29.685 17.164v34.307z" fill="#42E8E0"/><path id="Vector_339" d="M398.188 191.583l-29.705 17.144V174.42l29.705-17.164v34.327z" fill="#2FD3C7"/><path id="Vector_340" d="M368.483 174.42l-29.685-17.164 29.685-17.164 29.705 17.164-29.705 17.164z" fill="#42E8E0"/><path id="Vector_341" d="M368.483 174.42l-28.404-16.434-1.281.749 29.685 17.164 29.705-17.164v-1.479l-29.705 17.164z" fill="#fff"/><path id="Vector_342" d="M252.758 153.862l-29.705-17.163v34.327l29.705 17.164 29.705-17.164v-34.327l-29.705 17.163z" fill="#42E8E0"/><path id="Vector_343" d="M252.758 188.19l-29.705-17.164v-34.327l29.705 17.163v34.328z" fill="#42E8E0"/><path id="Vector_344" d="M282.463 171.026l-29.705 17.164v-34.328l29.705-17.163v34.327z" fill="#2FD3C7"/><path id="Vector_345" d="M252.758 153.862l-29.705-17.163 29.705-17.164 29.705 17.183-29.705 17.144z" fill="#42E8E0"/><path id="Vector_346" d="M252.758 153.862l-28.424-16.414-1.281.75 29.705 17.164 29.705-17.164-1.301-.75-28.404 16.414z" fill="#fff"/><path id="Vector_347" d="M291.333 175.899l-29.705-17.164v34.328l29.705 17.164 29.705-17.164v-34.328l-29.705 17.164z" fill="#42E8E0"/><path id="Vector_348" d="M291.333 210.227l-29.705-17.164v-34.328l29.705 17.164v34.328z" fill="#42E8E0"/><path id="Vector_349" d="M321.038 193.063l-29.705 17.164v-34.328l29.705-17.164v34.328z" fill="#2FD3C7"/><path id="Vector_350" d="M291.333 175.899l-29.705-17.164 29.705-17.163 29.705 17.163-29.705 17.164z" fill="#42E8E0"/><path id="Vector_351" d="M291.333 175.899l-28.404-16.414-1.301.75 29.705 17.164 29.705-17.164-1.281-.75-28.424 16.414z" fill="#fff"/><path id="Vector_352" d="M329.908 197.936l-29.685-17.164V215.1l29.685 17.163 29.705-17.163v-34.328l-29.705 17.164z" fill="#42E8E0"/><path id="Vector_353" d="M329.908 232.263L300.223 215.1v-34.328l29.685 17.164v34.327z" fill="#42E8E0"/><path id="Vector_354" d="M359.613 215.1l-29.705 17.163v-34.327l29.705-17.164V215.1z" fill="#2FD3C7"/><path id="Vector_355" d="M329.908 197.936l-29.685-17.164 29.685-17.164 29.705 17.164-29.705 17.164z" fill="#42E8E0"/><path id="Vector_356" d="M329.908 197.936l-28.404-16.414-1.281.73 29.685 17.163 29.705-17.163v-1.48l-29.705 17.164z" fill="#fff"/><path id="Vector_357" d="M214.183 177.399l-29.705-17.164v34.308l29.705 17.163 29.685-17.163v-34.308l-29.685 17.164z" fill="#42E8E0"/><path id="Vector_358" d="M214.183 211.706l-29.705-17.163v-34.308l29.705 17.164v34.307z" fill="#42E8E0"/><path id="Vector_359" d="M243.868 194.543l-29.685 17.163v-34.307l29.685-17.164v34.308z" fill="#2FD3C7"/><path id="Vector_360" d="M214.183 177.399l-29.705-17.164 29.705-17.164 29.685 17.164-29.685 17.164z" fill="#42E8E0"/><path id="Vector_361" d="M214.183 177.399l-29.705-17.164v1.479l29.705 17.164 29.685-17.164-1.281-.749-28.404 16.434z" fill="#fff"/><path id="Vector_362" d="M252.758 199.415l-29.705-17.163v34.327l29.705 17.164 29.705-17.164v-34.327l-29.705 17.163z" fill="#42E8E0"/><path id="Vector_363" d="M252.758 233.743l-29.705-17.164v-34.327l29.705 17.163v34.328z" fill="#42E8E0"/><path id="Vector_364" d="M282.463 216.579l-29.705 17.164v-34.328l29.705-17.163v34.327z" fill="#2FD3C7"/><path id="Vector_365" d="M252.758 199.415l-29.705-17.163 29.705-17.144 29.705 17.144-29.705 17.163z" fill="#42E8E0"/><path id="Vector_366" d="M252.758 199.415l-29.705-17.163v1.499l29.705 17.164 29.705-17.164-1.301-.75-28.404 16.414z" fill="#fff"/><path id="Vector_367" d="M291.333 221.452l-29.705-17.164v34.328l29.705 17.164 29.705-17.164v-34.328l-29.705 17.164z" fill="#42E8E0"/><path id="Vector_368" d="M291.333 255.78l-29.705-17.164v-34.328l29.705 17.164v34.328z" fill="#42E8E0"/><path id="Vector_369" d="M321.038 238.616l-29.705 17.164v-34.328l29.705-17.164v34.328z" fill="#2FD3C7"/><path id="Vector_370" d="M291.333 221.452l-29.705-17.164 29.705-17.163 29.705 17.163-29.705 17.164z" fill="#42E8E0"/><path id="Vector_371" d="M291.333 221.452l-29.705-17.164v1.5l29.705 17.144 29.705-17.144v-1.5l-29.705 17.164z" fill="#fff"/><path id="Vector_372" d="M291.333 84.793L261.628 67.63v34.328l29.705 17.164 29.705-17.164V67.629l-29.705 17.164z" fill="#42E8E0"/><path id="Vector_373" d="M291.333 119.121l-29.705-17.164V67.629l29.705 17.164v34.328z" fill="#42E8E0"/><path id="Vector_374" d="M321.038 101.957l-29.705 17.164V84.793l29.705-17.164v34.328z" fill="#2FD3C7"/><path id="Vector_375" d="M291.333 84.793l-29.705-17.164 29.705-17.164 29.705 17.164-29.705 17.164z" fill="#42E8E0"/><path id="Vector_376" d="M291.333 84.793l-28.404-16.414-1.301.75 29.705 17.163 29.705-17.163-1.281-.75-28.424 16.414z" fill="#fff"/><path id="Vector_377" opacity=".7" d="M291.333 215.869L271.07 204.15l20.263-11.699 20.264 11.699-20.264 11.719z" fill="#18B2A3"/><path id="Vector_378" opacity=".7" d="M252.758 193.832l-20.263-11.718 20.263-11.699 20.263 11.699-20.263 11.718z" fill="#18B2A3"/><path id="Vector_379" opacity=".7" d="M329.908 192.353l-20.263-11.719 20.263-11.699 20.263 11.699-20.263 11.719z" fill="#18B2A3"/><path id="Vector_380" opacity=".7" d="M368.562 169.093l-20.263-11.699 20.263-11.719 20.263 11.719-20.263 11.699z" fill="#18B2A3"/><path id="Vector_381" opacity=".7" d="M214.183 171.796l-20.263-11.699 20.263-11.719 20.263 11.719-20.263 11.699z" fill="#18B2A3"/><path id="Vector_382" d="M329.908 106.83l-29.685-17.164v34.328l29.685 17.163 29.705-17.163V89.666l-29.705 17.164z" fill="#42E8E0"/><path id="Vector_383" d="M329.908 141.157l-29.685-17.163V89.666l29.685 17.164v34.327z" fill="#42E8E0"/><path id="Vector_384" d="M359.613 123.994l-29.705 17.163V106.83l29.705-17.164v34.328z" fill="#2FD3C7"/><path id="Vector_385" d="M329.908 106.83l-29.685-17.164 29.685-17.164 29.705 17.164-29.705 17.164z" fill="#42E8E0"/><path id="Vector_386" d="M329.908 106.83l-28.404-16.414-1.281.73 29.685 17.183 29.705-17.164-1.281-.75-28.424 16.415z" fill="#fff"/><path id="Vector_387" d="M368.483 128.866l-29.685-17.163v34.327l29.685 17.164 29.705-17.164v-34.327l-29.705 17.163z" fill="#42E8E0"/><path id="Vector_388" d="M368.483 163.194l-29.685-17.164v-34.327l29.685 17.163v34.328z" fill="#42E8E0"/><path id="Vector_389" d="M398.188 146.03l-29.705 17.164v-34.328l29.705-17.163v34.327z" fill="#2FD3C7"/><path id="Vector_390" d="M368.483 128.866l-29.685-17.163 29.685-17.164 29.705 17.164-29.705 17.163z" fill="#42E8E0"/><path id="Vector_391" d="M368.483 128.866l-28.404-16.433-1.281.749 29.685 17.164 29.705-17.164v-1.479l-29.705 17.163z" fill="#fff"/><path id="Vector_392" d="M252.758 108.329l-29.705-17.164v34.308l29.705 17.164 29.705-17.164V91.165l-29.705 17.164z" fill="#42E8E0"/><path id="Vector_393" d="M252.758 142.637l-29.705-17.164V91.165l29.705 17.164v34.308z" fill="#42E8E0"/><path id="Vector_394" d="M282.463 125.473l-29.705 17.164v-34.308l29.705-17.164v34.308z" fill="#2FD3C7"/><path id="Vector_395" d="M252.758 108.329l-29.705-17.164 29.705-17.163 29.705 17.163-29.705 17.164z" fill="#42E8E0"/><path id="Vector_396" d="M252.758 108.329l-28.424-16.434-1.281.75 29.705 17.164 29.705-17.164-1.301-.75-28.404 16.434z" fill="#fff"/><path id="Vector_397" d="M291.333 130.346l-29.705-17.164v34.328l29.705 17.164 29.705-17.164v-34.328l-29.705 17.164z" fill="#42E8E0"/><path id="Vector_398" d="M291.333 164.674l-29.705-17.164v-34.328l29.705 17.164v34.328z" fill="#42E8E0"/><path id="Vector_399" d="M321.038 147.51l-29.705 17.164v-34.328l29.705-17.164v34.328z" fill="#2FD3C7"/><path id="Vector_400" d="M291.333 130.346l-29.705-17.164 29.705-17.163 29.705 17.163-29.705 17.164z" fill="#42E8E0"/><path id="Vector_401" d="M291.333 130.346l-28.404-16.414-1.301.75 29.705 17.163 29.705-17.163-1.281-.75-28.424 16.414z" fill="#fff"/><path id="Vector_402" d="M329.908 152.383l-29.685-17.164v34.328l29.685 17.163 29.705-17.163v-34.328l-29.705 17.164z" fill="#42E8E0"/><path id="Vector_403" d="M329.908 186.71l-29.685-17.163v-34.328l29.685 17.164v34.327z" fill="#42E8E0"/><path id="Vector_404" d="M359.613 169.547l-29.705 17.163v-34.327l29.705-17.164v34.328z" fill="#2FD3C7"/><path id="Vector_405" d="M329.908 152.383l-29.685-17.164 29.685-17.164 29.705 17.164-29.705 17.164z" fill="#42E8E0"/><path id="Vector_406" d="M329.908 152.383l-28.404-16.414-1.281.73 29.685 17.163 29.705-17.144v-1.499l-29.705 17.164z" fill="#fff"/><path id="Vector_407" d="M214.183 131.845l-29.705-17.163v34.327l29.705 17.144 29.685-17.144v-34.327l-29.685 17.163z" fill="#42E8E0"/><path id="Vector_408" d="M214.183 166.153l-29.705-17.144v-34.327l29.705 17.163v34.308z" fill="#42E8E0"/><path id="Vector_409" d="M243.868 149.009l-29.685 17.144v-34.308l29.685-17.163v34.327z" fill="#2FD3C7"/><path id="Vector_410" d="M214.183 131.845l-29.705-17.163 29.705-17.164 29.685 17.164-29.685 17.163z" fill="#42E8E0"/><path id="Vector_411" d="M214.183 131.845l-28.423-16.414-1.282.73 29.705 17.164 29.685-17.164-1.281-.73-28.404 16.414z" fill="#fff"/><path id="Vector_412" d="M252.758 153.862l-29.705-17.144v34.308l29.705 17.164 29.705-17.164v-34.308l-29.705 17.144z" fill="#42E8E0"/><path id="Vector_413" d="M252.758 188.19l-29.705-17.164v-34.308l29.705 17.144v34.328z" fill="#42E8E0"/><path id="Vector_414" d="M282.463 171.026l-29.705 17.164v-34.328l29.705-17.144v34.308z" fill="#2FD3C7"/><path id="Vector_415" d="M252.758 153.862l-29.705-17.144 29.705-17.163 29.705 17.163-29.705 17.144z" fill="#42E8E0"/><path id="Vector_416" d="M252.758 153.862l-29.705-17.163v1.499l29.705 17.164 29.705-17.164-1.301-.75-28.404 16.414z" fill="#fff"/><path id="Vector_417" d="M291.333 175.899l-29.705-17.164v34.328l29.705 17.164 29.705-17.164v-34.328l-29.705 17.164z" fill="#42E8E0"/><path id="Vector_418" d="M291.333 210.227l-29.705-17.164v-34.328l29.705 17.164v34.328z" fill="#42E8E0"/><path id="Vector_419" d="M321.038 193.063l-29.705 17.164v-34.328l29.705-17.164v34.328z" fill="#2FD3C7"/><path id="Vector_420" d="M291.333 175.899l-29.705-17.164 29.705-17.163 29.705 17.163-29.705 17.164z" fill="#42E8E0"/><path id="Vector_421" d="M291.333 175.899l-29.705-17.164v1.5l29.705 17.163 29.705-17.163v-1.5l-29.705 17.164z" fill="#fff"/><path id="Vector_422" opacity=".7" d="M368.562 123.737l-20.263-11.699 20.263-11.719 20.263 11.719-20.263 11.699z" fill="#18B2A3"/><path id="Vector_423" opacity=".7" d="M214.183 126.44l-20.263-11.699 20.263-11.699 20.263 11.699-20.263 11.699z" fill="#18B2A3"/><path id="Vector_424" d="M291.333 39.24l-29.705-17.164v34.328l29.705 17.163 29.705-17.163V22.076L291.333 39.24z" fill="#42E8E0"/><path id="Vector_425" d="M291.333 73.567l-29.705-17.163V22.096l29.705 17.144v34.327z" fill="#42E8E0"/><path id="Vector_426" d="M321.038 56.404l-29.705 17.163V39.24l29.705-17.144v34.308z" fill="#2FD3C7"/><path id="Vector_427" d="M291.333 39.24l-29.705-17.144 29.705-17.164 29.705 17.164-29.705 17.144z" fill="#42E8E0"/><path id="Vector_428" d="M291.333 39.24l-29.705-17.164v1.5l29.705 17.163 29.705-17.163v-1.5L291.333 39.24z" fill="#fff"/><path id="Vector_429" d="M329.908 61.277l-29.685-17.164V78.44l29.685 17.164 29.705-17.164V44.113l-29.705 17.164z" fill="#42E8E0"/><path id="Vector_430" d="M329.908 95.604L300.223 78.44V44.113l29.685 17.164v34.327z" fill="#42E8E0"/><path id="Vector_431" d="M359.613 78.44l-29.705 17.164V61.277l29.705-17.164V78.44z" fill="#2FD3C7"/><path id="Vector_432" d="M329.908 61.277l-29.685-17.164 29.685-17.164 29.705 17.164-29.705 17.164z" fill="#42E8E0"/><path id="Vector_433" d="M329.908 61.277l-29.685-17.164v1.5l29.685 17.163 29.705-17.164v-1.5l-29.705 17.165z" fill="#fff"/><path id="Vector_434" d="M368.483 83.313L338.798 66.15v34.327l29.685 17.164 29.705-17.164V66.15l-29.705 17.163z" fill="#42E8E0"/><path id="Vector_435" d="M368.483 117.641l-29.685-17.164V66.15l29.685 17.163v34.328z" fill="#42E8E0"/><path id="Vector_436" d="M398.188 100.477l-29.705 17.164V83.313l29.705-17.163v34.327z" fill="#2FD3C7"/><path id="Vector_437" d="M368.483 83.313L338.798 66.15l29.685-17.164 29.705 17.164-29.705 17.163z" fill="#42E8E0"/><path id="Vector_438" d="M368.483 83.313L338.798 66.15v1.48l29.685 17.163 29.705-17.164v-1.48l-29.705 17.164z" fill="#fff"/><path id="Vector_439" d="M252.758 62.776l-29.705-17.164V79.94l29.705 17.144 29.705-17.144V45.612l-29.705 17.164z" fill="#42E8E0"/><path id="Vector_440" d="M252.758 97.084L223.053 79.94V45.612l29.705 17.164v34.308z" fill="#42E8E0"/><path id="Vector_441" d="M282.463 79.94l-29.705 17.144V62.776l29.705-17.164V79.94z" fill="#2FD3C7"/><path id="Vector_442" d="M252.758 62.776l-29.705-17.164 29.705-17.164 29.705 17.164-29.705 17.164z" fill="#42E8E0"/><path id="Vector_443" d="M252.758 62.776l-29.705-17.164v1.48l29.705 17.164 29.705-17.164v-1.48l-29.705 17.164z" fill="#fff"/><path id="Vector_444" d="M214.183 86.292L184.478 69.13v34.327l29.705 17.164 29.685-17.164V69.129l-29.685 17.163z" fill="#42E8E0"/><path id="Vector_445" d="M214.183 120.62l-29.705-17.164V69.129l29.705 17.163v34.328z" fill="#42E8E0"/><path id="Vector_446" d="M243.868 103.456l-29.685 17.164V86.292l29.685-17.163v34.327z" fill="#2FD3C7"/><path id="Vector_447" d="M214.183 86.292L184.478 69.13l29.705-17.164 29.685 17.164-29.685 17.163z" fill="#42E8E0"/><path id="Vector_448" d="M214.183 86.292L184.478 69.13v1.48l29.705 17.163 29.685-17.164v-1.48l-29.685 17.164z" fill="#fff"/><path id="Vector_449" opacity=".4" d="M114.621 303.819a3.951 3.951 0 002.434 3.645 3.939 3.939 0 005.375-2.876 3.95 3.95 0 00-1.676-4.05 3.94 3.94 0 00-4.978.491 3.948 3.948 0 00-1.155 2.79z" fill="#42E8E0"/><path d="M118.623 305.515c.958 0 1.734-.777 1.734-1.736a1.735 1.735 0 10-3.469 0c0 .959.777 1.736 1.735 1.736z" fill="#42E8E0" id="Vector_450"/><path id="Vector_451" opacity=".4" d="M469.129 120.857a3.951 3.951 0 002.434 3.645 3.939 3.939 0 005.375-2.876 3.95 3.95 0 00-1.676-4.05 3.937 3.937 0 00-4.978.491 3.948 3.948 0 00-1.155 2.79z" fill="#42E8E0"/><path d="M471.436 120.857a1.732 1.732 0 001.07 1.604 1.738 1.738 0 001.891-.377 1.736 1.736 0 00-2.453-2.455 1.735 1.735 0 00-.508 1.228z" fill="#42E8E0" id="Vector_452"/><path id="Vector_453" opacity=".4" d="M585.919 372.059c0 .781.231 1.544.664 2.193a3.936 3.936 0 004.047 1.677 3.943 3.943 0 002.873-5.379 3.936 3.936 0 00-3.642-2.436 3.946 3.946 0 00-3.942 3.945z" fill="#42E8E0"/><path d="M589.92 373.796a1.736 1.736 0 000-3.473c-.958 0-1.734.778-1.734 1.737 0 .958.776 1.736 1.734 1.736z" fill="#42E8E0" id="Vector_454"/><path id="Vector_455" opacity=".4" d="M513.539 392.557a6.25 6.25 0 006.248-6.254 6.25 6.25 0 00-6.248-6.253 6.251 6.251 0 00-6.249 6.253 6.252 6.252 0 006.249 6.254z" fill="#42E8E0"/><path d="M510.838 386.303a2.722 2.722 0 004.651 1.918 2.717 2.717 0 00.577-2.973 2.726 2.726 0 00-4.444-.869 2.724 2.724 0 00-.584.884c-.134.33-.202.684-.2 1.04z" fill="#42E8E0" id="Vector_456"/><path id="Vector_457" opacity=".4" d="M488.486 331.675a4.24 4.24 0 007.192 3.1 4.243 4.243 0 00-2.895-7.282 4.235 4.235 0 00-4.297 4.182z" fill="#42E8E0"/><path d="M490.812 331.675a1.834 1.834 0 101.833-1.834 1.852 1.852 0 00-1.833 1.834z" fill="#42E8E0" id="Vector_458"/><path id="Vector_459" opacity=".4" d="M426.474 97.735a3.942 3.942 0 002.434 3.645 3.936 3.936 0 004.296-.855 3.95 3.95 0 00-.597-6.07 3.943 3.943 0 00-6.133 3.28z" fill="#42E8E0"/><path d="M428.741 97.735a1.758 1.758 0 001.074 1.638 1.75 1.75 0 001.921-.377 1.76 1.76 0 00.376-1.922 1.752 1.752 0 00-1.637-1.075 1.732 1.732 0 00-1.734 1.736z" fill="#42E8E0" id="Vector_460"/><path id="Vector_461" opacity=".4" d="M69.325 278.27a3.944 3.944 0 006.73 2.79 3.948 3.948 0 00-.598-6.07 3.936 3.936 0 00-4.978.49 3.948 3.948 0 00-1.154 2.79z" fill="#42E8E0"/><path d="M71.591 278.27a1.758 1.758 0 002.092 1.743 1.752 1.752 0 001.384-1.385 1.759 1.759 0 00-2.967-1.585 1.735 1.735 0 00-.509 1.227z" fill="#42E8E0" id="Vector_462"/></g><defs><linearGradient id="paint0_linear" x1="53.417" y1="304.509" x2="461.422" y2="304.509" gradientUnits="userSpaceOnUse"><stop stopColor="#5761D7"/><stop offset=".16" stopColor="#5E67DA"/><stop offset=".41" stopColor="#727AE2"/><stop offset=".69" stopColor="#9297EE"/><stop offset="1" stopColor="#BCBEFF"/></linearGradient><linearGradient id="paint1_linear" x1="8761.22" y1="15073.6" x2="74670.3" y2="15073.6" gradientUnits="userSpaceOnUse"><stop stopColor="#5761D7"/><stop offset=".16" stopColor="#5E67DA"/><stop offset=".41" stopColor="#727AE2"/><stop offset=".69" stopColor="#9297EE"/><stop offset="1" stopColor="#BCBEFF"/></linearGradient><linearGradient id="paint2_linear" x1="168.886" y1="210.424" x2="413.78" y2="210.424" gradientUnits="userSpaceOnUse"><stop stopColor="#42E8E0"/><stop offset=".15" stopColor="#43E3E0"/><stop offset=".33" stopColor="#45D5DF"/><stop offset=".52" stopColor="#49BDDD"/><stop offset=".72" stopColor="#4E9CDB"/><stop offset=".93" stopColor="#5472D8"/><stop offset="1" stopColor="#5761D7"/></linearGradient><linearGradient id="paint3_linear" x1="18389" y1="7582" x2="25995.3" y2="7582" gradientUnits="userSpaceOnUse"><stop stopColor="#42E8E0"/><stop offset=".15" stopColor="#43E3E0"/><stop offset=".33" stopColor="#45D5DF"/><stop offset=".52" stopColor="#49BDDD"/><stop offset=".72" stopColor="#4E9CDB"/><stop offset=".93" stopColor="#5472D8"/><stop offset="1" stopColor="#5761D7"/></linearGradient><linearGradient id="paint4_linear" x1="10660.1" y1="7582" x2="18266.5" y2="7582" gradientUnits="userSpaceOnUse"><stop stopColor="#42E8E0"/><stop offset=".15" stopColor="#43E3E0"/><stop offset=".33" stopColor="#45D5DF"/><stop offset=".52" stopColor="#49BDDD"/><stop offset=".72" stopColor="#4E9CDB"/><stop offset=".93" stopColor="#5472D8"/><stop offset="1" stopColor="#5761D7"/></linearGradient><linearGradient id="paint5_linear" x1="21151.4" y1="13936.3" x2="51576.9" y2="13936.3" gradientUnits="userSpaceOnUse"><stop stopColor="#42E8E0"/><stop offset=".15" stopColor="#43E3E0"/><stop offset=".33" stopColor="#45D5DF"/><stop offset=".52" stopColor="#49BDDD"/><stop offset=".72" stopColor="#4E9CDB"/><stop offset=".93" stopColor="#5472D8"/><stop offset="1" stopColor="#5761D7"/></linearGradient><linearGradient id="paint6_linear" x1="18389" y1="10830.9" x2="25995.3" y2="10830.9" gradientUnits="userSpaceOnUse"><stop stopColor="#42E8E0"/><stop offset=".15" stopColor="#43E3E0"/><stop offset=".33" stopColor="#45D5DF"/><stop offset=".52" stopColor="#49BDDD"/><stop offset=".72" stopColor="#4E9CDB"/><stop offset=".93" stopColor="#5472D8"/><stop offset="1" stopColor="#5761D7"/></linearGradient><linearGradient id="paint7_linear" x1="10660.1" y1="10833.2" x2="18266.5" y2="10833.2" gradientUnits="userSpaceOnUse"><stop stopColor="#42E8E0"/><stop offset=".15" stopColor="#43E3E0"/><stop offset=".33" stopColor="#45D5DF"/><stop offset=".52" stopColor="#49BDDD"/><stop offset=".72" stopColor="#4E9CDB"/><stop offset=".93" stopColor="#5472D8"/><stop offset="1" stopColor="#5761D7"/></linearGradient></defs></svg>