<svg width="440" height="382" viewBox="0 0 440 382" fill="none" xmlns="http://www.w3.org/2000/svg">
<g opacity="0.5">
<path style="mix-blend-mode:lighten" opacity="0.4" d="M73.4107 381.714L0 346.519L146.048 277.368L219.478 312.563L73.4107 381.714Z" fill="url(#paint0_linear)"/>
<path style="mix-blend-mode:lighten" opacity="0.4" d="M366.551 382L439.981 346.789L293.933 277.638L220.503 312.849L366.551 382Z" fill="url(#paint1_linear)"/>
</g>
<g opacity="0.5">
<path style="mix-blend-mode:lighten" opacity="0.4" d="M73.4486 174.006L0.0185547 209.216L146.086 278.368L219.497 243.157L73.4486 174.006Z" fill="url(#paint2_linear)"/>
<path style="mix-blend-mode:lighten" opacity="0.4" d="M366.589 173.736L440 208.931L293.952 278.082L220.522 242.887L366.589 173.736Z" fill="url(#paint3_linear)"/>
</g>
<path d="M219.478 313.42L144.521 277.876L219.478 242.348L294.435 277.876L219.478 313.42Z" fill="#312A91"/>
<path d="M219.478 303.197L144.521 267.652L219.478 232.124L294.435 267.652L219.478 303.197Z" fill="#312A91"/>
<path style="mix-blend-mode:lighten" opacity="0.7" d="M219.478 295.084L161.612 267.652L219.478 240.22L277.344 267.652L219.478 295.084Z" fill="url(#paint4_linear)"/>
<path d="M294.435 267.652V277.876L219.478 313.42V303.196L294.435 267.652Z" fill="url(#paint5_linear)"/>
<path d="M144.521 267.652V277.876L219.478 313.42V303.196L144.521 267.652Z" fill="#312A91"/>
<path style="mix-blend-mode:lighten" opacity="0.7" d="M144.521 267.652V277.876L219.478 313.42V303.196L144.521 267.652Z" fill="url(#paint6_linear)"/>
<path d="M219.478 160.544L144.521 125.016L219.478 89.4873L294.435 125.016L219.478 160.544Z" fill="#312A91"/>
<path d="M219.478 150.32L144.521 114.792L219.478 79.2639L294.435 114.792L219.478 150.32Z" fill="#312A91"/>
<path style="mix-blend-mode:lighten" opacity="0.7" d="M219.478 150.32L144.521 114.792L219.478 79.2639L294.435 114.792L219.478 150.32Z" fill="url(#paint7_linear)"/>
<path opacity="0.3" d="M219.478 127.952L191.734 114.792L219.478 101.632L247.222 114.792L219.478 127.952Z" fill="#42E8E0"/>
<path opacity="0.3" d="M219.478 110.569L237.806 119.253L247.222 114.792L219.478 101.632L191.734 114.792L201.149 119.253L219.478 110.569Z" fill="#42E8E0"/>
<path d="M219.478 110.569L237.806 119.253L247.222 114.792L219.478 101.632L191.734 114.792L201.149 119.253L219.478 110.569Z" fill="#42E8E0"/>
<path d="M294.435 114.792V125.016L219.478 160.544V150.32L294.435 114.792Z" fill="url(#paint8_linear)"/>
<path d="M144.521 114.792V125.016L219.478 160.544V150.32L144.521 114.792Z" fill="#312A91"/>
<path style="mix-blend-mode:lighten" opacity="0.7" d="M144.521 114.792V125.016L219.478 160.544V150.32L144.521 114.792Z" fill="url(#paint9_linear)"/>
<path opacity="0.3" d="M219.478 160.544V303.197L144.521 267.652V125.016L219.478 160.544Z" fill="#42E8E0"/>
<path opacity="0.3" d="M161.612 133.112V267.652L219.478 295.084L277.344 267.652V133.112L219.478 160.544L161.612 133.112Z" fill="#42E8E0"/>
<path opacity="0.3" d="M219.478 160.544V295.084L161.612 267.652V133.112L219.478 160.544Z" fill="#42E8E0"/>
<g opacity="0.7">
<path opacity="0.7" d="M219.478 240.078L161.612 212.63L219.478 185.198L277.344 212.63L219.478 240.078Z" fill="url(#paint10_linear)"/>
<path opacity="0.7" d="M277.344 212.63V267.653L219.478 295.084V240.078L277.344 212.63Z" fill="url(#paint11_linear)"/>
<path opacity="0.7" d="M161.612 212.63V267.653L219.478 295.084V240.078L161.612 212.63Z" fill="url(#paint12_linear)"/>
</g>
<path opacity="0.5" d="M144.521 125.016V267.652L219.478 303.197L294.435 267.652V125.016L219.478 160.544L144.521 125.016Z" fill="#5CFFF3"/>
<path style="mix-blend-mode:lighten" d="M146.299 114.792L220.367 79.6767L219.478 79.2639L144.521 114.792L219.478 150.32L220.367 149.908L146.299 114.792Z" fill="url(#paint13_linear)"/>
<path opacity="0.5" d="M144.521 125.016V267.652L145.545 268.145V125.508L144.521 125.016Z" fill="#42E8E0"/>
<path opacity="0.5" d="M294.435 125.016V267.652L293.391 268.145V125.508L294.435 125.016Z" fill="#42E8E0"/>
<path opacity="0.5" d="M219.478 160.544L217.699 159.702V302.371L219.478 303.197L221.257 302.371V159.702L219.478 160.544Z" fill="#42E8E0"/>
<path style="mix-blend-mode:lighten" opacity="0.7" d="M247.222 114.792L287.823 0H151.133L191.734 114.792L219.478 127.952L247.222 114.792Z" fill="url(#paint14_linear)"/>
<path style="mix-blend-mode:lighten" opacity="0.7" d="M247.222 114.792L270.635 0H166.677L191.734 114.792L219.478 127.952L247.222 114.792Z" fill="url(#paint15_linear)"/>
<path opacity="0.9" d="M225.471 101.568C226.699 101.568 227.695 100.751 227.695 99.7426C227.695 98.7344 226.699 97.917 225.471 97.917C224.243 97.917 223.248 98.7344 223.248 99.7426C223.248 100.751 224.243 101.568 225.471 101.568Z" fill="#42E8E0"/>
<path opacity="0.3" d="M198.791 85.2646C198.791 85.4875 198.71 85.7054 198.559 85.8908C198.409 86.0761 198.194 86.2206 197.943 86.3059C197.693 86.3912 197.417 86.4135 197.15 86.37C196.884 86.3266 196.639 86.2192 196.447 86.0616C196.255 85.9039 196.125 85.7031 196.072 85.4845C196.019 85.2658 196.046 85.0392 196.15 84.8332C196.254 84.6273 196.43 84.4513 196.655 84.3274C196.881 84.2036 197.147 84.1375 197.418 84.1375C197.782 84.1375 198.131 84.2562 198.389 84.4676C198.646 84.679 198.791 84.9656 198.791 85.2646Z" fill="#42E8E0"/>
<path opacity="0.2" d="M208.4 72.501C208.4 72.8042 208.253 73.0949 207.992 73.3093C207.731 73.5236 207.377 73.644 207.008 73.644C206.637 73.6441 206.28 73.5242 206.016 73.3103C205.752 73.0963 205.601 72.8056 205.596 72.501C205.596 72.1937 205.745 71.8989 206.01 71.6816C206.274 71.4643 206.633 71.3422 207.008 71.3422C207.379 71.3463 207.733 71.4703 207.993 71.6872C208.254 71.904 208.4 72.1964 208.4 72.501Z" fill="#42E8E0"/>
<path opacity="0.2" d="M248.073 69.0403C248.564 69.0403 248.962 68.7134 248.962 68.3101C248.962 67.9068 248.564 67.5798 248.073 67.5798C247.582 67.5798 247.183 67.9068 247.183 68.3101C247.183 68.7134 247.582 69.0403 248.073 69.0403Z" fill="#42E8E0"/>
<path opacity="0.2" d="M246.681 64.516C246.681 64.8299 246.567 65.1369 246.355 65.3979C246.142 65.659 245.841 65.8625 245.487 65.9826C245.134 66.1028 244.745 66.1342 244.37 66.073C243.995 66.0117 243.651 65.8605 243.38 65.6385C243.11 65.4165 242.926 65.1336 242.851 64.8257C242.777 64.5177 242.815 64.1985 242.961 63.9085C243.107 63.6184 243.355 63.3704 243.673 63.196C243.991 63.0216 244.365 62.9285 244.747 62.9285C245.26 62.9285 245.752 63.0957 246.114 63.3934C246.477 63.6911 246.681 64.0949 246.681 64.516Z" fill="#42E8E0"/>
<path opacity="0.2" d="M203.199 70.9295C203.69 70.9295 204.088 70.6026 204.088 70.1993C204.088 69.7959 203.69 69.469 203.199 69.469C202.708 69.469 202.31 69.7959 202.31 70.1993C202.31 70.6026 202.708 70.9295 203.199 70.9295Z" fill="#42E8E0"/>
<path opacity="0.3" d="M201.633 106.997C202.391 106.997 203.006 106.493 203.006 105.87C203.006 105.248 202.391 104.743 201.633 104.743C200.875 104.743 200.26 105.248 200.26 105.87C200.26 106.493 200.875 106.997 201.633 106.997Z" fill="#42E8E0"/>
<path opacity="0.2" d="M212.673 93.1069C212.673 93.4115 212.527 93.7039 212.266 93.9208C212.005 94.1376 211.651 94.2616 211.28 94.2657C210.906 94.2657 210.547 94.1436 210.283 93.9263C210.018 93.709 209.869 93.4142 209.869 93.1069C209.874 92.8023 210.025 92.5116 210.289 92.2977C210.553 92.0837 210.91 91.9638 211.28 91.9639C211.65 91.9639 212.004 92.0843 212.265 92.2986C212.526 92.513 212.673 92.8037 212.673 93.1069Z" fill="#42E8E0"/>
<path opacity="0.2" d="M207.414 91.5352C207.905 91.5352 208.303 91.2083 208.303 90.805C208.303 90.4016 207.905 90.0747 207.414 90.0747C206.923 90.0747 206.524 90.4016 206.524 90.805C206.524 91.2083 206.923 91.5352 207.414 91.5352Z" fill="#42E8E0"/>
<path opacity="0.9" d="M220.406 81.5499C220.507 81.8498 220.712 82.1189 220.998 82.3237C221.283 82.5284 221.635 82.6599 222.01 82.7016C222.386 82.7434 222.768 82.6937 223.109 82.5586C223.451 82.4236 223.736 82.2092 223.93 81.942C224.124 81.6749 224.219 81.3668 224.201 81.056C224.184 80.7453 224.056 80.4455 223.833 80.194C223.61 79.9425 223.302 79.7504 222.947 79.6415C222.592 79.5326 222.206 79.5117 221.837 79.5814C221.583 79.6294 221.343 79.7191 221.132 79.8452C220.921 79.9713 220.744 80.1311 220.61 80.315C220.476 80.4989 220.389 80.7031 220.354 80.9153C220.319 81.1276 220.337 81.3434 220.406 81.5499Z" fill="#42E8E0"/>
<path opacity="0.3" d="M241.383 63.8809C241.474 64.1276 241.677 64.336 241.95 64.4627C242.223 64.5895 242.545 64.6248 242.849 64.5614C243.153 64.4979 243.416 64.3406 243.582 64.1222C243.748 63.9037 243.806 63.641 243.742 63.3888C243.709 63.2566 243.643 63.1313 243.549 63.0204C243.455 62.9096 243.334 62.8156 243.195 62.744C243.055 62.6724 242.9 62.6247 242.737 62.6039C242.575 62.5831 242.409 62.5895 242.249 62.6227C242.09 62.656 241.94 62.7154 241.81 62.7974C241.679 62.8794 241.57 62.9823 241.489 63.0999C241.408 63.2175 241.357 63.3473 241.339 63.4815C241.321 63.6158 241.336 63.7516 241.383 63.8809Z" fill="#42E8E0"/>
<path opacity="0.2" d="M229.686 54.6259C229.745 54.8255 229.875 55.0061 230.06 55.1446C230.245 55.2832 230.476 55.3733 230.723 55.4035C230.97 55.4337 231.223 55.4026 231.449 55.3141C231.675 55.2257 231.863 55.0839 231.99 54.907C232.117 54.7301 232.177 54.5261 232.162 54.3211C232.147 54.116 232.058 53.9193 231.906 53.7562C231.754 53.593 231.546 53.4708 231.309 53.4051C231.072 53.3394 230.817 53.3334 230.576 53.3876C230.418 53.4209 230.27 53.4794 230.14 53.5596C230.011 53.6399 229.901 53.7404 229.819 53.8554C229.736 53.9704 229.682 54.0976 229.659 54.2298C229.636 54.362 229.646 54.4966 229.686 54.6259Z" fill="#42E8E0"/>
<path opacity="0.2" d="M193.667 58.3406C193.682 58.4313 193.721 58.5184 193.78 58.5961C193.839 58.6738 193.917 58.7405 194.01 58.7917C194.102 58.8428 194.207 58.8774 194.316 58.8932C194.426 58.9089 194.539 58.9054 194.647 58.8829C194.755 58.8604 194.856 58.8195 194.944 58.7627C195.031 58.706 195.103 58.6347 195.155 58.5535C195.207 58.4724 195.237 58.3832 195.244 58.2918C195.251 58.2004 195.234 58.1088 195.195 58.0231C195.126 57.8732 194.993 57.7493 194.82 57.6752C194.647 57.601 194.447 57.5817 194.258 57.621C194.069 57.6603 193.904 57.7554 193.795 57.8881C193.686 58.0209 193.641 58.182 193.667 58.3406Z" fill="#42E8E0"/>
<path opacity="0.2" d="M194.634 54.6576C194.735 54.9969 194.994 55.2901 195.356 55.4741C195.717 55.6582 196.152 55.7184 196.567 55.6418C196.777 55.5981 196.974 55.5208 197.147 55.4146C197.32 55.3083 197.466 55.1751 197.576 55.0225C197.687 54.8699 197.759 54.701 197.79 54.5254C197.821 54.3497 197.81 54.1708 197.756 53.9988C197.703 53.8268 197.609 53.6651 197.48 53.523C197.35 53.3808 197.188 53.261 197.002 53.1703C196.816 53.0797 196.611 53.02 196.397 52.9946C196.183 52.9692 195.965 52.9787 195.755 53.0225C195.344 53.1187 194.995 53.3445 194.785 53.6507C194.575 53.9569 194.521 54.3187 194.634 54.6576Z" fill="#42E8E0"/>
<path opacity="0.2" d="M232.78 51.8636C232.831 52.032 232.962 52.1768 233.143 52.2661C233.324 52.3554 233.541 52.3819 233.746 52.3398C233.951 52.2977 234.128 52.1904 234.237 52.0416C234.345 51.8927 234.378 51.7145 234.326 51.5461C234.272 51.3794 234.14 51.2366 233.96 51.1478C233.78 51.0589 233.565 51.031 233.36 51.0698C233.258 51.0902 233.162 51.127 233.077 51.1781C232.993 51.2291 232.922 51.2934 232.868 51.3673C232.814 51.4411 232.778 51.523 232.763 51.6082C232.748 51.6934 232.754 51.7802 232.78 51.8636Z" fill="#42E8E0"/>
<path opacity="0.2" d="M242.35 106.585C242.216 106.678 242.052 106.737 241.877 106.754C241.703 106.771 241.526 106.746 241.369 106.68C241.213 106.615 241.083 106.513 240.997 106.387C240.911 106.261 240.872 106.117 240.886 105.973C240.899 105.829 240.964 105.692 241.073 105.578C241.181 105.465 241.328 105.38 241.495 105.335C241.662 105.29 241.842 105.287 242.011 105.326C242.18 105.364 242.332 105.443 242.447 105.553C242.523 105.626 242.581 105.71 242.618 105.802C242.654 105.893 242.668 105.989 242.659 106.085C242.65 106.181 242.618 106.275 242.565 106.36C242.512 106.446 242.439 106.522 242.35 106.585Z" fill="#42E8E0"/>
<path opacity="0.2" d="M244.399 102.695C244.113 102.91 243.754 103.049 243.37 103.094C242.985 103.139 242.594 103.088 242.245 102.948C241.897 102.807 241.608 102.584 241.416 102.307C241.224 102.03 241.138 101.712 241.17 101.394C241.201 101.077 241.348 100.774 241.591 100.526C241.835 100.278 242.164 100.096 242.535 100.003C242.907 99.9107 243.303 99.9121 243.674 100.007C244.044 100.102 244.371 100.287 244.612 100.536C244.916 100.851 245.063 101.25 245.024 101.65C244.984 102.051 244.761 102.425 244.399 102.695Z" fill="#42E8E0"/>
<path opacity="0.3" d="M241.557 98.9647C241.419 99.1261 241.341 99.3178 241.335 99.5153C241.329 99.7129 241.394 99.9076 241.522 100.075C241.651 100.242 241.836 100.374 242.056 100.455C242.276 100.535 242.52 100.561 242.757 100.527C242.994 100.494 243.214 100.404 243.389 100.268C243.564 100.132 243.686 99.957 243.74 99.7644C243.794 99.5717 243.776 99.3703 243.691 99.1856C243.605 99.0009 243.455 98.8411 243.259 98.7265C243.128 98.6502 242.98 98.5958 242.824 98.5664C242.668 98.5371 242.506 98.5334 242.348 98.5555C242.19 98.5776 242.039 98.6251 241.903 98.6954C241.767 98.7656 241.65 98.8571 241.557 98.9647Z" fill="#42E8E0"/>
<path opacity="0.2" d="M242.582 85.725C242.474 85.9349 242.455 86.1685 242.529 86.3883C242.602 86.6081 242.763 86.8012 242.986 86.9368C243.209 87.0723 243.481 87.1424 243.759 87.1356C244.036 87.1289 244.302 87.0458 244.515 86.8997C244.611 86.7919 244.68 86.6694 244.718 86.5395C244.755 86.4095 244.76 86.2747 244.733 86.143C244.706 86.0114 244.647 85.8854 244.56 85.7727C244.473 85.66 244.359 85.5628 244.225 85.4868C243.965 85.351 243.652 85.3001 243.347 85.3442C243.043 85.3883 242.77 85.5241 242.582 85.725Z" fill="#42E8E0"/>
<path opacity="0.2" d="M247.145 85.8044C247.024 85.9481 246.976 86.1251 247.012 86.2972C247.048 86.4694 247.165 86.6231 247.338 86.7252C247.423 86.7752 247.519 86.811 247.621 86.8305C247.723 86.85 247.829 86.8528 247.932 86.8388C248.035 86.8248 248.134 86.7942 248.223 86.7489C248.312 86.7035 248.389 86.6442 248.45 86.5744C248.511 86.5045 248.554 86.4255 248.578 86.3418C248.602 86.2582 248.605 86.1715 248.588 86.0867C248.571 86.002 248.534 85.9208 248.479 85.8478C248.423 85.7749 248.351 85.7116 248.266 85.6615C248.181 85.6094 248.085 85.5717 247.982 85.5507C247.88 85.5296 247.773 85.5256 247.669 85.5389C247.564 85.5523 247.464 85.5826 247.374 85.6282C247.284 85.6738 247.206 85.7337 247.145 85.8044Z" fill="#42E8E0"/>
<g opacity="0.9">
<path opacity="0.9" d="M215.012 118.253C215.112 118.553 215.318 118.822 215.603 119.027C215.888 119.231 216.241 119.363 216.616 119.405C216.992 119.446 217.374 119.397 217.715 119.262C218.056 119.126 218.342 118.912 218.536 118.645C218.73 118.378 218.824 118.07 218.807 117.759C218.79 117.448 218.662 117.148 218.439 116.897C218.216 116.645 217.908 116.453 217.553 116.344C217.198 116.235 216.812 116.215 216.442 116.284C216.188 116.332 215.949 116.422 215.738 116.548C215.527 116.674 215.349 116.834 215.216 117.018C215.082 117.202 214.995 117.406 214.96 117.618C214.925 117.83 214.943 118.046 215.012 118.253Z" fill="#42E8E0"/>
<path opacity="0.9" d="M220.734 109.537C220.78 109.683 220.86 109.82 220.971 109.941C221.081 110.061 221.219 110.163 221.377 110.239C221.535 110.316 221.71 110.366 221.891 110.388C222.073 110.409 222.258 110.4 222.436 110.363C222.614 110.325 222.781 110.259 222.927 110.169C223.074 110.078 223.198 109.965 223.291 109.835C223.384 109.706 223.446 109.562 223.471 109.413C223.497 109.264 223.487 109.112 223.441 108.966C223.349 108.671 223.118 108.419 222.799 108.264C222.48 108.109 222.099 108.065 221.74 108.14C221.381 108.216 221.073 108.406 220.885 108.668C220.696 108.93 220.642 109.243 220.734 109.537Z" fill="#42E8E0"/>
</g>
<path opacity="0.9" d="M225.471 80.8196C226.699 80.8196 227.695 80.0022 227.695 78.994C227.695 77.9857 226.699 77.1683 225.471 77.1683C224.243 77.1683 223.248 77.9857 223.248 78.994C223.248 80.0022 224.243 80.8196 225.471 80.8196Z" fill="#42E8E0"/>
<path opacity="0.3" d="M198.791 64.516C198.791 64.739 198.71 64.9569 198.559 65.1422C198.409 65.3276 198.194 65.4721 197.943 65.5574C197.693 65.6427 197.417 65.665 197.15 65.6215C196.884 65.578 196.639 65.4707 196.447 65.313C196.255 65.1554 196.125 64.9546 196.072 64.7359C196.019 64.5173 196.046 64.2907 196.15 64.0847C196.254 63.8788 196.43 63.7027 196.655 63.5789C196.881 63.455 197.147 63.3889 197.418 63.3889C197.782 63.3889 198.131 63.5077 198.389 63.719C198.646 63.9304 198.791 64.2171 198.791 64.516Z" fill="#42E8E0"/>
<path opacity="0.2" d="M208.4 51.7366C208.4 52.0412 208.254 52.3336 207.993 52.5505C207.733 52.7674 207.379 52.8913 207.008 52.8955C206.633 52.8955 206.274 52.7734 206.01 52.5561C205.745 52.3387 205.596 52.044 205.596 51.7366C205.601 51.432 205.752 51.1413 206.016 50.9274C206.28 50.7135 206.637 50.5936 207.008 50.5936C207.377 50.5936 207.731 50.714 207.992 50.9284C208.253 51.1428 208.4 51.4335 208.4 51.7366Z" fill="#42E8E0"/>
<path opacity="0.2" d="M248.962 47.625C248.962 47.7694 248.91 47.9106 248.812 48.0307C248.714 48.1508 248.576 48.2444 248.413 48.2996C248.251 48.3549 248.072 48.3694 247.899 48.3412C247.727 48.313 247.568 48.2435 247.444 48.1413C247.319 48.0392 247.235 47.9091 247.2 47.7674C247.166 47.6258 247.184 47.4789 247.251 47.3455C247.318 47.2121 247.432 47.098 247.579 47.0178C247.725 46.9375 247.897 46.8947 248.073 46.8947C248.19 46.8925 248.307 46.9099 248.416 46.9459C248.525 46.9818 248.624 47.0355 248.707 47.1038C248.791 47.172 248.856 47.2534 248.9 47.343C248.943 47.4325 248.965 47.5285 248.962 47.625Z" fill="#42E8E0"/>
<path opacity="0.2" d="M246.681 43.7673C246.681 44.0813 246.567 44.3882 246.355 44.6493C246.142 44.9103 245.841 45.1138 245.487 45.234C245.134 45.3541 244.745 45.3856 244.37 45.3243C243.995 45.2631 243.651 45.1119 243.38 44.8898C243.11 44.6678 242.926 44.385 242.851 44.077C242.777 43.7691 242.815 43.4499 242.961 43.1598C243.107 42.8697 243.355 42.6218 243.673 42.4474C243.991 42.2729 244.365 42.1798 244.747 42.1798C245.26 42.1798 245.752 42.3471 246.114 42.6448C246.477 42.9425 246.681 43.3463 246.681 43.7673Z" fill="#42E8E0"/>
<path opacity="0.2" d="M203.199 50.1808C203.69 50.1808 204.088 49.8539 204.088 49.4506C204.088 49.0473 203.69 48.7203 203.199 48.7203C202.708 48.7203 202.31 49.0473 202.31 49.4506C202.31 49.8539 202.708 50.1808 203.199 50.1808Z" fill="#42E8E0"/>
<path opacity="0.3" d="M203.006 85.1218C203.006 85.3447 202.925 85.5626 202.774 85.7479C202.623 85.9333 202.409 86.0778 202.158 86.1631C201.907 86.2484 201.631 86.2707 201.365 86.2272C201.099 86.1837 200.854 86.0764 200.662 85.9188C200.47 85.7611 200.34 85.5603 200.287 85.3416C200.234 85.123 200.261 84.8964 200.365 84.6904C200.469 84.4845 200.645 84.3084 200.87 84.1846C201.096 84.0607 201.361 83.9946 201.633 83.9946C201.997 83.9946 202.346 84.1134 202.604 84.3248C202.861 84.5361 203.006 84.8228 203.006 85.1218Z" fill="#42E8E0"/>
<path opacity="0.2" d="M211.222 73.5012C211.991 73.5012 212.614 72.9895 212.614 72.3582C212.614 71.7269 211.991 71.2152 211.222 71.2152C210.454 71.2152 209.83 71.7269 209.83 72.3582C209.83 72.9895 210.454 73.5012 211.222 73.5012Z" fill="#42E8E0"/>
<path opacity="0.2" d="M207.414 70.7867C207.905 70.7867 208.303 70.4597 208.303 70.0564C208.303 69.6531 207.905 69.3262 207.414 69.3262C206.923 69.3262 206.524 69.6531 206.524 70.0564C206.524 70.4597 206.923 70.7867 207.414 70.7867Z" fill="#42E8E0"/>
<path opacity="0.9" d="M220.406 60.8012C220.507 61.1012 220.712 61.3702 220.998 61.575C221.283 61.7798 221.635 61.9112 222.01 61.953C222.386 61.9947 222.768 61.945 223.109 61.81C223.451 61.6749 223.736 61.4605 223.93 61.1934C224.124 60.9262 224.219 60.6181 224.201 60.3074C224.184 59.9966 224.056 59.6968 223.833 59.4454C223.61 59.1939 223.302 59.0017 222.947 58.8928C222.592 58.7839 222.206 58.763 221.837 58.8327C221.583 58.8807 221.343 58.9705 221.132 59.0965C220.921 59.2226 220.744 59.3824 220.61 59.5663C220.476 59.7502 220.389 59.9545 220.354 60.1667C220.319 60.3789 220.337 60.5948 220.406 60.8012Z" fill="#42E8E0"/>
<path opacity="0.3" d="M241.383 43.1324C241.424 43.2596 241.495 43.3789 241.591 43.4837C241.688 43.5884 241.809 43.6764 241.947 43.7428C242.086 43.8091 242.238 43.8524 242.397 43.8703C242.556 43.8881 242.717 43.8802 242.872 43.8468C243.027 43.8134 243.172 43.7554 243.3 43.6759C243.427 43.5964 243.535 43.4971 243.615 43.3836C243.696 43.2701 243.749 43.1446 243.771 43.0143C243.792 42.8841 243.783 42.7516 243.742 42.6244C243.702 42.4972 243.631 42.3778 243.534 42.273C243.437 42.1682 243.316 42.0801 243.178 42.0137C243.04 41.9474 242.887 41.9041 242.728 41.8863C242.57 41.8685 242.408 41.8766 242.253 41.9101C242.097 41.9414 241.95 41.9982 241.821 42.0771C241.692 42.1561 241.584 42.2556 241.502 42.3697C241.421 42.4837 241.369 42.61 241.348 42.7411C241.328 42.8721 241.34 43.0052 241.383 43.1324Z" fill="#42E8E0"/>
<path opacity="0.2" d="M229.686 33.8772C229.745 34.0768 229.875 34.2574 230.06 34.396C230.245 34.5345 230.476 34.6246 230.723 34.6548C230.97 34.685 231.223 34.6539 231.449 34.5655C231.675 34.477 231.863 34.3353 231.99 34.1584C232.117 33.9814 232.177 33.7774 232.162 33.5724C232.147 33.3674 232.058 33.1707 231.906 33.0075C231.754 32.8443 231.546 32.7221 231.309 32.6564C231.072 32.5908 230.817 32.5847 230.576 32.639C230.418 32.6722 230.27 32.7307 230.14 32.811C230.011 32.8912 229.901 32.9917 229.819 33.1067C229.736 33.2217 229.682 33.349 229.659 33.4812C229.636 33.6134 229.646 33.7479 229.686 33.8772Z" fill="#42E8E0"/>
<path opacity="0.2" d="M193.667 37.592C193.704 37.7182 193.785 37.8326 193.902 37.9205C194.018 38.0083 194.163 38.0657 194.319 38.0851C194.476 38.1046 194.635 38.0853 194.778 38.0297C194.921 37.9741 195.04 37.8848 195.121 37.7731C195.201 37.6615 195.239 37.5327 195.23 37.4032C195.22 37.2737 195.164 37.1494 195.068 37.0464C194.972 36.9433 194.841 36.8662 194.691 36.8248C194.542 36.7834 194.38 36.7797 194.228 36.8142C194.03 36.8589 193.861 36.965 193.756 37.1101C193.652 37.2552 193.62 37.428 193.667 37.592Z" fill="#42E8E0"/>
<path opacity="0.2" d="M194.634 33.9091C194.74 34.2462 195 34.5369 195.36 34.7203C195.72 34.9037 196.153 34.9657 196.567 34.8933C196.976 34.8033 197.327 34.5891 197.549 34.2942C197.772 33.9994 197.849 33.646 197.766 33.3058C197.657 32.9716 197.395 32.6848 197.035 32.5045C196.675 32.3243 196.245 32.2645 195.833 32.3375C195.424 32.4205 195.07 32.6309 194.846 32.9242C194.623 33.2174 194.547 33.5706 194.634 33.9091Z" fill="#42E8E0"/>
<path opacity="0.2" d="M232.78 31.1149C232.818 31.2393 232.901 31.3515 233.017 31.4374C233.134 31.5233 233.278 31.579 233.433 31.5975C233.588 31.6161 233.746 31.5966 233.887 31.5416C234.028 31.4866 234.147 31.3985 234.227 31.2884C234.308 31.1782 234.347 31.051 234.339 30.9228C234.332 30.7945 234.279 30.6709 234.186 30.5675C234.093 30.4641 233.965 30.3855 233.818 30.3417C233.671 30.2979 233.512 30.2907 233.36 30.3212C233.258 30.3416 233.162 30.3784 233.077 30.4294C232.993 30.4805 232.922 30.5448 232.868 30.6186C232.814 30.6924 232.778 30.7743 232.763 30.8595C232.748 30.9447 232.754 31.0315 232.78 31.1149Z" fill="#42E8E0"/>
<path opacity="0.2" d="M242.35 85.8202C242.219 85.9107 242.058 85.9674 241.888 85.9831C241.717 85.9988 241.545 85.9729 241.392 85.9085C241.24 85.8441 241.114 85.7442 241.031 85.6213C240.947 85.4983 240.91 85.3579 240.923 85.2176C240.936 85.0772 241 84.9433 241.106 84.8325C241.211 84.7217 241.355 84.6391 241.517 84.5949C241.68 84.5507 241.855 84.5471 242.021 84.5843C242.186 84.6215 242.334 84.698 242.447 84.8042C242.523 84.8758 242.58 84.959 242.617 85.0491C242.653 85.1392 242.667 85.2343 242.658 85.3289C242.649 85.4234 242.617 85.5156 242.564 85.6C242.511 85.6843 242.438 85.7592 242.35 85.8202Z" fill="#42E8E0"/>
<path opacity="0.2" d="M244.399 81.9308C244.018 82.0676 243.594 82.1 243.189 82.0231C242.784 81.9463 242.42 81.7642 242.151 81.5041C241.882 81.2439 241.722 80.9194 241.695 80.5788C241.668 80.2382 241.776 79.8995 242.002 79.6131C242.166 79.4054 242.387 79.232 242.647 79.1068C242.907 78.9817 243.199 78.9082 243.5 78.8922C243.8 78.8763 244.102 78.9183 244.379 79.0149C244.657 79.1115 244.903 79.2601 245.098 79.4488C245.293 79.6374 245.432 79.8609 245.503 80.1014C245.574 80.3419 245.576 80.5928 245.508 80.8339C245.44 81.0751 245.305 81.2999 245.112 81.4903C244.919 81.6808 244.675 81.8316 244.399 81.9308Z" fill="#42E8E0"/>
<path opacity="0.3" d="M241.557 78.2161C241.419 78.3776 241.341 78.5692 241.335 78.7668C241.329 78.9644 241.394 79.159 241.522 79.3262C241.651 79.4934 241.836 79.6256 242.056 79.7062C242.276 79.7867 242.52 79.812 242.757 79.7788C242.994 79.7455 243.214 79.6554 243.389 79.5196C243.564 79.3838 243.686 79.2085 243.74 79.0158C243.794 78.8232 243.776 78.6218 243.691 78.4371C243.605 78.2523 243.455 78.0926 243.259 77.978C243.128 77.9017 242.98 77.8473 242.824 77.8179C242.668 77.7885 242.506 77.7848 242.348 77.8069C242.19 77.8291 242.039 77.8766 241.903 77.9468C241.767 78.017 241.65 78.1086 241.557 78.2161Z" fill="#42E8E0"/>
<path opacity="0.2" d="M242.582 64.9128C242.444 65.078 242.369 65.2729 242.366 65.4729C242.363 65.673 242.432 65.8694 242.564 66.0374C242.697 66.2055 242.886 66.3377 243.11 66.4176C243.333 66.4975 243.58 66.5214 243.82 66.4864C244.06 66.4513 244.282 66.3589 244.458 66.2207C244.634 66.0825 244.757 65.9047 244.811 65.7095C244.864 65.5143 244.846 65.3105 244.76 65.1236C244.673 64.9367 244.52 64.775 244.322 64.6588C244.05 64.5046 243.714 64.4447 243.388 64.4923C243.063 64.5398 242.773 64.6909 242.582 64.9128Z" fill="#42E8E0"/>
<path opacity="0.2" d="M247.145 65.0875C247.024 65.2312 246.976 65.4081 247.012 65.5803C247.048 65.7525 247.165 65.9062 247.338 66.0082C247.423 66.0583 247.519 66.0941 247.621 66.1136C247.723 66.1331 247.829 66.1359 247.932 66.1219C248.035 66.1079 248.134 66.0773 248.223 66.0319C248.312 65.9866 248.389 65.9273 248.45 65.8574C248.511 65.7876 248.554 65.7086 248.578 65.6249C248.602 65.5412 248.605 65.4546 248.588 65.3698C248.571 65.285 248.534 65.2039 248.479 65.1309C248.423 65.058 248.351 64.9947 248.266 64.9446C248.181 64.8925 248.085 64.8548 247.982 64.8338C247.88 64.8127 247.773 64.8087 247.669 64.822C247.564 64.8353 247.464 64.8657 247.374 64.9113C247.284 64.9569 247.206 65.0168 247.145 65.0875Z" fill="#42E8E0"/>
<g opacity="0.9">
<path opacity="0.9" d="M215.012 97.5042C215.072 97.7132 215.184 97.91 215.34 98.0827C215.495 98.2553 215.692 98.4002 215.918 98.5085C216.144 98.6169 216.394 98.6864 216.654 98.713C216.914 98.7396 217.177 98.7226 217.429 98.6631C217.941 98.5557 218.381 98.2855 218.651 97.9118C218.922 97.5382 219 97.0918 218.869 96.6707C218.738 96.2497 218.409 95.8886 217.954 95.6668C217.499 95.445 216.955 95.3807 216.443 95.4881C216.182 95.5354 215.936 95.6265 215.72 95.7558C215.505 95.885 215.324 96.0495 215.19 96.2389C215.055 96.4283 214.97 96.6385 214.939 96.8563C214.909 97.074 214.934 97.2946 215.012 97.5042Z" fill="#42E8E0"/>
<path opacity="0.9" d="M220.735 88.7253C220.825 89.02 221.053 89.2734 221.37 89.4297C221.688 89.586 222.068 89.6324 222.426 89.5587C222.785 89.485 223.094 89.2973 223.284 89.0368C223.475 88.7763 223.531 88.4644 223.442 88.1696C223.397 88.0237 223.318 87.8864 223.209 87.7655C223.1 87.6447 222.963 87.5426 222.806 87.4652C222.649 87.3878 222.475 87.3366 222.293 87.3145C222.112 87.2923 221.928 87.2997 221.75 87.3362C221.572 87.3727 221.405 87.4376 221.258 87.5271C221.11 87.6167 220.986 87.7291 220.892 87.8581C220.798 87.9871 220.735 88.1301 220.708 88.2789C220.681 88.4276 220.69 88.5793 220.735 88.7253Z" fill="#42E8E0"/>
</g>
<path opacity="0.9" d="M225.471 60.071C226.699 60.071 227.695 59.2537 227.695 58.2454C227.695 57.2372 226.699 56.4198 225.471 56.4198C224.243 56.4198 223.248 57.2372 223.248 58.2454C223.248 59.2537 224.243 60.071 225.471 60.071Z" fill="#42E8E0"/>
<path opacity="0.3" d="M198.791 43.7674C198.791 43.9903 198.71 44.2082 198.559 44.3936C198.409 44.5789 198.194 44.7234 197.943 44.8087C197.693 44.894 197.417 44.9163 197.15 44.8728C196.884 44.8294 196.639 44.722 196.447 44.5644C196.255 44.4067 196.125 44.2059 196.072 43.9873C196.019 43.7686 196.046 43.542 196.15 43.336C196.254 43.1301 196.43 42.9541 196.655 42.8302C196.881 42.7064 197.147 42.6403 197.418 42.6403C197.782 42.6403 198.131 42.759 198.389 42.9704C198.646 43.1818 198.791 43.4684 198.791 43.7674Z" fill="#42E8E0"/>
<path opacity="0.2" d="M208.4 30.988C208.4 31.2926 208.254 31.585 207.993 31.8019C207.733 32.0187 207.379 32.1427 207.008 32.1468C206.633 32.1468 206.274 32.0247 206.01 31.8074C205.745 31.5901 205.596 31.2953 205.596 30.988C205.601 30.6834 205.752 30.3927 206.016 30.1788C206.28 29.9649 206.637 29.8449 207.008 29.845C207.377 29.845 207.731 29.9654 207.992 30.1797C208.253 30.3941 208.4 30.6848 208.4 30.988Z" fill="#42E8E0"/>
<path opacity="0.2" d="M248.073 27.5431C248.564 27.5431 248.962 27.2162 248.962 26.8129C248.962 26.4096 248.564 26.0826 248.073 26.0826C247.582 26.0826 247.183 26.4096 247.183 26.8129C247.183 27.2162 247.582 27.5431 248.073 27.5431Z" fill="#42E8E0"/>
<path opacity="0.2" d="M246.681 23.0029C246.681 23.3169 246.567 23.6238 246.355 23.8849C246.142 24.1459 245.841 24.3494 245.487 24.4696C245.134 24.5897 244.745 24.6212 244.37 24.5599C243.995 24.4986 243.651 24.3475 243.38 24.1254C243.11 23.9034 242.926 23.6206 242.851 23.3126C242.777 23.0047 242.815 22.6855 242.961 22.3954C243.107 22.1053 243.355 21.8574 243.673 21.6829C243.991 21.5085 244.365 21.4154 244.747 21.4154C245.26 21.4154 245.752 21.5827 246.114 21.8804C246.477 22.1781 246.681 22.5819 246.681 23.0029Z" fill="#42E8E0"/>
<path opacity="0.2" d="M203.199 29.4163C203.69 29.4163 204.088 29.0894 204.088 28.6861C204.088 28.2828 203.69 27.9558 203.199 27.9558C202.708 27.9558 202.31 28.2828 202.31 28.6861C202.31 29.0894 202.708 29.4163 203.199 29.4163Z" fill="#42E8E0"/>
<path opacity="0.3" d="M203.006 64.3731C203.006 64.596 202.925 64.8139 202.774 64.9993C202.623 65.1846 202.409 65.3291 202.158 65.4144C201.907 65.4997 201.631 65.522 201.365 65.4786C201.099 65.4351 200.854 65.3277 200.662 65.1701C200.47 65.0125 200.34 64.8116 200.287 64.593C200.234 64.3743 200.261 64.1477 200.365 63.9418C200.469 63.7358 200.645 63.5598 200.87 63.4359C201.096 63.3121 201.361 63.246 201.633 63.246C201.997 63.246 202.346 63.3647 202.604 63.5761C202.861 63.7875 203.006 64.0742 203.006 64.3731Z" fill="#42E8E0"/>
<path opacity="0.2" d="M212.673 51.6097C212.673 51.9128 212.526 52.2035 212.265 52.4179C212.004 52.6323 211.65 52.7527 211.28 52.7527C210.91 52.7527 210.553 52.6328 210.289 52.4189C210.025 52.205 209.874 51.9143 209.869 51.6097C209.869 51.3023 210.018 51.0076 210.283 50.7902C210.547 50.5729 210.906 50.4508 211.28 50.4508C211.651 50.455 212.005 50.5789 212.266 50.7958C212.527 51.0127 212.673 51.3051 212.673 51.6097Z" fill="#42E8E0"/>
<path opacity="0.2" d="M207.414 50.038C207.905 50.038 208.303 49.7111 208.303 49.3078C208.303 48.9045 207.905 48.5775 207.414 48.5775C206.923 48.5775 206.524 48.9045 206.524 49.3078C206.524 49.7111 206.923 50.038 207.414 50.038Z" fill="#42E8E0"/>
<path opacity="0.9" d="M220.406 40.0526C220.537 40.4737 220.866 40.8348 221.321 41.0566C221.776 41.2784 222.32 41.3427 222.833 41.2353C223.345 41.128 223.785 40.8577 224.055 40.4841C224.325 40.1105 224.404 39.664 224.273 39.243C224.208 39.0345 224.094 38.8386 223.937 38.6663C223.78 38.4941 223.583 38.3489 223.358 38.239C223.133 38.1292 222.883 38.0569 222.624 38.0262C222.365 37.9956 222.1 38.0072 221.846 38.0603C221.593 38.1135 221.354 38.2072 221.144 38.3361C220.934 38.465 220.758 38.6265 220.624 38.8115C220.49 38.9965 220.402 39.2014 220.365 39.4143C220.327 39.6273 220.341 39.8442 220.406 40.0526Z" fill="#42E8E0"/>
<path opacity="0.3" d="M241.383 22.3678C241.419 22.4958 241.486 22.6166 241.58 22.7231C241.674 22.8295 241.793 22.9194 241.93 22.9875C242.067 23.0556 242.219 23.1004 242.378 23.1194C242.536 23.1384 242.698 23.1311 242.853 23.098C243.014 23.0706 243.166 23.0166 243.301 22.9395C243.436 22.8623 243.551 22.7634 243.638 22.6489C243.725 22.5344 243.783 22.4065 243.809 22.2731C243.834 22.1397 243.826 22.0034 243.786 21.8725C243.745 21.7416 243.673 21.6188 243.573 21.5115C243.473 21.4042 243.348 21.3146 243.204 21.2481C243.061 21.1817 242.903 21.1397 242.74 21.1248C242.576 21.1099 242.411 21.1223 242.253 21.1613C242.099 21.1927 241.954 21.249 241.827 21.3269C241.699 21.4048 241.592 21.5028 241.511 21.615C241.43 21.7273 241.377 21.8517 241.355 21.9809C241.333 22.1101 241.343 22.2416 241.383 22.3678Z" fill="#42E8E0"/>
<path opacity="0.2" d="M229.686 13.1287C229.745 13.3283 229.875 13.5089 230.06 13.6474C230.245 13.786 230.476 13.8761 230.723 13.9063C230.97 13.9365 231.223 13.9054 231.449 13.8169C231.675 13.7285 231.863 13.5867 231.99 13.4098C232.117 13.2329 232.177 13.0289 232.162 12.8239C232.147 12.6188 232.058 12.4222 231.906 12.259C231.754 12.0958 231.547 11.9736 231.309 11.9079C231.072 11.8423 230.817 11.8362 230.576 11.8904C230.417 11.9218 230.267 11.9791 230.136 12.0588C230.005 12.1386 229.894 12.2392 229.811 12.3548C229.728 12.4703 229.675 12.5983 229.653 12.7313C229.632 12.8642 229.643 12.9994 229.686 13.1287Z" fill="#42E8E0"/>
<path opacity="0.2" d="M193.667 16.8433C193.736 16.9932 193.869 17.1171 194.042 17.1913C194.215 17.2655 194.415 17.2848 194.604 17.2455C194.793 17.2062 194.958 17.1111 195.067 16.9783C195.176 16.8455 195.221 16.6845 195.195 16.5258C195.18 16.4351 195.141 16.3481 195.082 16.2703C195.023 16.1926 194.945 16.126 194.852 16.0748C194.76 16.0236 194.655 15.989 194.546 15.9733C194.436 15.9576 194.323 15.9611 194.215 15.9835C194.107 16.006 194.006 16.047 193.918 16.1037C193.831 16.1605 193.759 16.2318 193.707 16.3129C193.655 16.3941 193.625 16.4833 193.618 16.5747C193.611 16.6661 193.628 16.7576 193.667 16.8433Z" fill="#42E8E0"/>
<path opacity="0.2" d="M194.634 13.1603C194.74 13.4975 195 13.7881 195.36 13.9715C195.72 14.1549 196.153 14.2169 196.567 14.1446C196.796 14.1155 197.015 14.0476 197.21 13.945C197.405 13.8425 197.572 13.7076 197.7 13.5491C197.828 13.3905 197.914 13.2118 197.953 13.0243C197.992 12.8368 197.982 12.6448 197.926 12.4604C197.869 12.2761 197.766 12.1035 197.623 11.9538C197.48 11.804 197.301 11.6804 197.097 11.5909C196.892 11.5013 196.667 11.4478 196.437 11.4338C196.206 11.4197 195.974 11.4455 195.755 11.5093C195.342 11.609 194.994 11.8379 194.784 12.1466C194.574 12.4554 194.52 12.8194 194.634 13.1603Z" fill="#42E8E0"/>
<path opacity="0.2" d="M232.78 10.3664C232.818 10.4908 232.901 10.603 233.017 10.6889C233.134 10.7747 233.278 10.8305 233.433 10.849C233.588 10.8675 233.746 10.8481 233.887 10.7931C234.028 10.7381 234.147 10.6499 234.227 10.5398C234.308 10.4297 234.347 10.3025 234.339 10.1742C234.332 10.046 234.279 9.92234 234.186 9.81895C234.093 9.71555 233.965 9.63699 233.818 9.59316C233.671 9.54933 233.512 9.54219 233.36 9.57263C233.258 9.59304 233.162 9.62984 233.077 9.68089C232.993 9.73195 232.922 9.79626 232.868 9.87008C232.814 9.9439 232.778 10.0258 232.763 10.111C232.748 10.1962 232.754 10.283 232.78 10.3664Z" fill="#42E8E0"/>
<path opacity="0.2" d="M242.35 65.0875C242.263 65.1498 242.161 65.1972 242.052 65.227C241.942 65.2567 241.826 65.2683 241.711 65.2609C241.596 65.2535 241.484 65.2273 241.381 65.184C241.278 65.1406 241.187 65.0808 241.113 65.0082C241.036 64.9353 240.978 64.8507 240.942 64.7594C240.905 64.668 240.891 64.5716 240.9 64.4757C240.909 64.3799 240.941 64.2864 240.994 64.2007C241.047 64.115 241.12 64.0387 241.209 63.9763C241.391 63.8738 241.613 63.8306 241.832 63.8549C242.05 63.8792 242.25 63.9694 242.392 64.1079C242.534 64.2464 242.609 64.4234 242.601 64.6044C242.593 64.7855 242.504 64.9576 242.35 65.0875Z" fill="#42E8E0"/>
<path opacity="0.2" d="M244.399 61.1822C244.018 61.319 243.594 61.3513 243.189 61.2745C242.784 61.1976 242.42 61.0156 242.151 60.7554C241.882 60.4952 241.722 60.1708 241.695 59.8301C241.668 59.4895 241.776 59.1509 242.002 58.8644C242.166 58.6567 242.387 58.4833 242.647 58.3582C242.907 58.233 243.199 58.1595 243.5 58.1436C243.8 58.1276 244.102 58.1696 244.379 58.2662C244.657 58.3629 244.903 58.5114 245.098 58.7001C245.293 58.8887 245.432 59.1122 245.503 59.3528C245.574 59.5933 245.576 59.8441 245.508 60.0853C245.44 60.3264 245.305 60.5512 245.112 60.7416C244.919 60.9321 244.675 61.083 244.399 61.1822Z" fill="#42E8E0"/>
<path opacity="0.3" d="M241.557 57.4516C241.375 57.6696 241.303 57.9376 241.357 58.1985C241.411 58.4594 241.587 58.6927 241.847 58.8486C241.977 58.9258 242.124 58.9812 242.279 59.0118C242.435 59.0424 242.596 59.0475 242.754 59.0269C242.912 59.0062 243.064 58.9602 243.2 58.8915C243.336 58.8228 243.455 58.7327 243.549 58.6264C243.732 58.4084 243.803 58.1404 243.749 57.8795C243.695 57.6186 243.519 57.3853 243.259 57.2294C243.129 57.1522 242.983 57.0968 242.827 57.0662C242.671 57.0356 242.51 57.0305 242.352 57.0511C242.194 57.0718 242.042 57.1177 241.906 57.1865C241.77 57.2552 241.651 57.3453 241.557 57.4516Z" fill="#42E8E0"/>
<path opacity="0.2" d="M242.582 44.1483C242.397 44.3713 242.324 44.6443 242.378 44.9105C242.432 45.1766 242.609 45.4154 242.872 45.5771C243.142 45.6975 243.455 45.7328 243.754 45.6763C244.053 45.6198 244.317 45.4755 244.495 45.2705C244.674 45.0655 244.755 44.814 244.723 44.5634C244.691 44.3128 244.548 44.0805 244.322 43.9102C244.052 43.7543 243.718 43.6919 243.393 43.7365C243.067 43.781 242.776 43.929 242.582 44.1483Z" fill="#42E8E0"/>
<path opacity="0.2" d="M247.145 44.3071C247.024 44.4508 246.976 44.6277 247.012 44.7999C247.048 44.9721 247.165 45.1258 247.338 45.2279C247.512 45.3023 247.713 45.3223 247.904 45.2842C248.095 45.2462 248.263 45.1526 248.376 45.0208C248.489 44.8891 248.541 44.7281 248.52 44.5676C248.5 44.4072 248.41 44.2583 248.266 44.1484C248.091 44.0489 247.876 44.0098 247.666 44.0395C247.456 44.0692 247.269 44.1653 247.145 44.3071Z" fill="#42E8E0"/>
<g opacity="0.9">
<path opacity="0.9" d="M215.012 76.7556C215.072 76.9647 215.184 77.1615 215.34 77.3341C215.495 77.5068 215.692 77.6516 215.918 77.76C216.144 77.8683 216.394 77.9379 216.654 77.9645C216.914 77.991 217.177 77.974 217.429 77.9145C217.941 77.8072 218.381 77.5369 218.651 77.1633C218.922 76.7897 219 76.3432 218.869 75.9222C218.738 75.5012 218.409 75.14 217.954 74.9182C217.499 74.6964 216.955 74.6322 216.443 74.7395C216.182 74.7869 215.936 74.878 215.72 75.0072C215.505 75.1365 215.324 75.3009 215.19 75.4903C215.055 75.6797 214.97 75.89 214.939 76.1077C214.909 76.3255 214.934 76.5461 215.012 76.7556Z" fill="#42E8E0"/>
<path opacity="0.9" d="M220.735 67.9767C220.801 68.1966 220.945 68.3954 221.149 68.5479C221.353 68.7004 221.608 68.7997 221.88 68.8332C222.153 68.8666 222.432 68.8328 222.681 68.7359C222.931 68.6391 223.14 68.4835 223.281 68.2891C223.423 68.0947 223.491 67.8701 223.476 67.6439C223.462 67.4177 223.366 67.2 223.201 67.0186C223.036 66.8371 222.809 66.7 222.549 66.6247C222.289 66.5494 222.007 66.5393 221.74 66.5956C221.563 66.6308 221.396 66.6947 221.249 66.7835C221.102 66.8723 220.978 66.9843 220.884 67.1129C220.791 67.2415 220.729 67.3841 220.704 67.5324C220.678 67.6807 220.689 67.8318 220.735 67.9767Z" fill="#42E8E0"/>
</g>
<defs>
<linearGradient id="paint0_linear" x1="58.5089" y1="353.531" x2="103.416" y2="257.13" gradientUnits="userSpaceOnUse">
<stop stop-color="#180D5B"/>
<stop offset="0.09" stop-color="#1A1660"/>
<stop offset="0.25" stop-color="#1E2D6E"/>
<stop offset="0.44" stop-color="#255385"/>
<stop offset="0.66" stop-color="#2F87A5"/>
<stop offset="0.9" stop-color="#3CCACE"/>
<stop offset="1" stop-color="#42E8E0"/>
</linearGradient>
<linearGradient id="paint1_linear" x1="235352" y1="-37690.2" x2="232381" y2="-44032.2" gradientUnits="userSpaceOnUse">
<stop stop-color="#180D5B"/>
<stop offset="0.09" stop-color="#1A1660"/>
<stop offset="0.25" stop-color="#1E2D6E"/>
<stop offset="0.44" stop-color="#255385"/>
<stop offset="0.66" stop-color="#2F87A5"/>
<stop offset="0.9" stop-color="#3CCACE"/>
<stop offset="1" stop-color="#42E8E0"/>
</linearGradient>
<linearGradient id="paint2_linear" x1="38292.5" y1="-263051" x2="41263" y2="-256709" gradientUnits="userSpaceOnUse">
<stop stop-color="#180D5B"/>
<stop offset="0.09" stop-color="#1A1660"/>
<stop offset="0.25" stop-color="#1E2D6E"/>
<stop offset="0.44" stop-color="#255385"/>
<stop offset="0.66" stop-color="#2F87A5"/>
<stop offset="0.9" stop-color="#3CCACE"/>
<stop offset="1" stop-color="#42E8E0"/>
</linearGradient>
<linearGradient id="paint3_linear" x1="70040.3" y1="-249451" x2="67070.3" y2="-243110" gradientUnits="userSpaceOnUse">
<stop stop-color="#180D5B"/>
<stop offset="0.09" stop-color="#1A1660"/>
<stop offset="0.25" stop-color="#1E2D6E"/>
<stop offset="0.44" stop-color="#255385"/>
<stop offset="0.66" stop-color="#2F87A5"/>
<stop offset="0.9" stop-color="#3CCACE"/>
<stop offset="1" stop-color="#42E8E0"/>
</linearGradient>
<linearGradient id="paint4_linear" x1="19239" y1="11034.7" x2="14108.3" y2="5099.68" gradientUnits="userSpaceOnUse">
<stop stop-color="#180D5B"/>
<stop offset="0.09" stop-color="#1A1660"/>
<stop offset="0.25" stop-color="#1E2D6E"/>
<stop offset="0.44" stop-color="#255385"/>
<stop offset="0.66" stop-color="#2F87A5"/>
<stop offset="0.9" stop-color="#3CCACE"/>
<stop offset="1" stop-color="#42E8E0"/>
</linearGradient>
<linearGradient id="paint5_linear" x1="194.557" y1="290.528" x2="301.705" y2="290.528" gradientUnits="userSpaceOnUse">
<stop stop-color="#2B237C"/>
<stop offset="1" stop-color="#180D5B"/>
</linearGradient>
<linearGradient id="paint6_linear" x1="227.308" y1="311.69" x2="140.03" y2="251.266" gradientUnits="userSpaceOnUse">
<stop stop-color="#180D5B"/>
<stop offset="0.1" stop-color="#1A1560"/>
<stop offset="0.25" stop-color="#1E2D6E"/>
<stop offset="0.28" stop-color="#1F3372"/>
<stop offset="0.38" stop-color="#22447C"/>
<stop offset="0.57" stop-color="#2B7097"/>
<stop offset="0.83" stop-color="#39B7C2"/>
<stop offset="1" stop-color="#42E8E0"/>
</linearGradient>
<linearGradient id="paint7_linear" x1="21038.1" y1="6410.4" x2="16222.1" y2="-189.076" gradientUnits="userSpaceOnUse">
<stop stop-color="#180D5B"/>
<stop offset="0.09" stop-color="#1A1660"/>
<stop offset="0.25" stop-color="#1E2D6E"/>
<stop offset="0.44" stop-color="#255385"/>
<stop offset="0.66" stop-color="#2F87A5"/>
<stop offset="0.9" stop-color="#3CCACE"/>
<stop offset="1" stop-color="#42E8E0"/>
</linearGradient>
<linearGradient id="paint8_linear" x1="7762.44" y1="4082.38" x2="11916.6" y2="4082.38" gradientUnits="userSpaceOnUse">
<stop stop-color="#2B237C"/>
<stop offset="1" stop-color="#180D5B"/>
</linearGradient>
<linearGradient id="paint9_linear" x1="8473.78" y1="4520.23" x2="6052.05" y2="2283.56" gradientUnits="userSpaceOnUse">
<stop stop-color="#180D5B"/>
<stop offset="0.1" stop-color="#1A1560"/>
<stop offset="0.25" stop-color="#1E2D6E"/>
<stop offset="0.28" stop-color="#1F3372"/>
<stop offset="0.38" stop-color="#22447C"/>
<stop offset="0.57" stop-color="#2B7097"/>
<stop offset="0.83" stop-color="#39B7C2"/>
<stop offset="1" stop-color="#42E8E0"/>
</linearGradient>
<linearGradient id="paint10_linear" x1="22125.3" y1="8396.87" x2="10804.6" y2="3487.28" gradientUnits="userSpaceOnUse">
<stop stop-color="#180D5B"/>
<stop offset="0.09" stop-color="#1A1660"/>
<stop offset="0.25" stop-color="#1E2D6E"/>
<stop offset="0.44" stop-color="#255385"/>
<stop offset="0.66" stop-color="#2F87A5"/>
<stop offset="0.9" stop-color="#3CCACE"/>
<stop offset="1" stop-color="#42E8E0"/>
</linearGradient>
<linearGradient id="paint11_linear" x1="9237.35" y1="14863.2" x2="4077.77" y2="12511.5" gradientUnits="userSpaceOnUse">
<stop stop-color="#180D5B"/>
<stop offset="0.09" stop-color="#1A1660"/>
<stop offset="0.25" stop-color="#1E2D6E"/>
<stop offset="0.44" stop-color="#255385"/>
<stop offset="0.66" stop-color="#2F87A5"/>
<stop offset="0.9" stop-color="#3CCACE"/>
<stop offset="1" stop-color="#42E8E0"/>
</linearGradient>
<linearGradient id="paint12_linear" x1="10359.5" y1="14984.4" x2="6365.87" y2="13489.7" gradientUnits="userSpaceOnUse">
<stop stop-color="#180D5B"/>
<stop offset="0.09" stop-color="#1A1660"/>
<stop offset="0.25" stop-color="#1E2D6E"/>
<stop offset="0.44" stop-color="#255385"/>
<stop offset="0.66" stop-color="#2F87A5"/>
<stop offset="0.9" stop-color="#3CCACE"/>
<stop offset="1" stop-color="#42E8E0"/>
</linearGradient>
<linearGradient id="paint13_linear" x1="9734.58" y1="5424.84" x2="5795.97" y2="4475.13" gradientUnits="userSpaceOnUse">
<stop stop-color="#180D5B"/>
<stop offset="0.09" stop-color="#1A1660"/>
<stop offset="0.25" stop-color="#1E2D6E"/>
<stop offset="0.44" stop-color="#255385"/>
<stop offset="0.66" stop-color="#2F87A5"/>
<stop offset="0.9" stop-color="#3CCACE"/>
<stop offset="1" stop-color="#42E8E0"/>
</linearGradient>
<linearGradient id="paint14_linear" x1="219.478" y1="127.952" x2="219.478" y2="0" gradientUnits="userSpaceOnUse">
<stop stop-color="#42E8E0"/>
<stop offset="0.1" stop-color="#3CCACE"/>
<stop offset="0.34" stop-color="#2F87A5"/>
<stop offset="0.56" stop-color="#255385"/>
<stop offset="0.75" stop-color="#1E2D6E"/>
<stop offset="0.91" stop-color="#1A1660"/>
<stop offset="1" stop-color="#180D5B"/>
</linearGradient>
<linearGradient id="paint15_linear" x1="11924.3" y1="10313" x2="11924.3" y2="0" gradientUnits="userSpaceOnUse">
<stop stop-color="#42E8E0"/>
<stop offset="0.1" stop-color="#3CCACE"/>
<stop offset="0.34" stop-color="#2F87A5"/>
<stop offset="0.56" stop-color="#255385"/>
<stop offset="0.75" stop-color="#1E2D6E"/>
<stop offset="0.91" stop-color="#1A1660"/>
<stop offset="1" stop-color="#180D5B"/>
</linearGradient>
</defs>
</svg>
