<svg width="63" height="70" viewBox="0 0 63 70" fill="none" xmlns="http://www.w3.org/2000/svg">
<path d="M31.4921 34.8702L28.082 0.700439L0.22998 20.7248L3.64003 54.8946L34.8825 69.0202L62.7346 48.9958L31.4921 34.8702Z" fill="#42E8E0"/>
<path d="M3.64003 54.8946L0.22998 20.7248L28.082 0.700439L31.4921 34.8702L3.64003 54.8946Z" fill="#42E8E0"/>
<path d="M34.8823 69.0203L3.63989 54.8947L31.492 34.8702L62.7344 48.9958L34.8823 69.0203Z" fill="#2FD3C7"/>
<path d="M31.4921 34.8702L28.082 0.700439L59.3442 14.8458L62.7345 48.9958L31.4921 34.8702Z" fill="#42E8E0"/>
<path d="M31.4921 34.8702L28.082 0.700439L26.8796 1.5685L30.2897 35.7382L61.5321 49.8638L62.7345 48.9958L31.4921 34.8702Z" fill="white"/>
<path opacity="0.4" d="M17.3589 61.0894H45.9207L34.8823 69.0202L17.3589 61.0894Z" fill="#03002D"/>
</svg>
