<svg width="10" height="56" viewBox="0 0 10 56" fill="none" xmlns="http://www.w3.org/2000/svg">
<path opacity="0.9" d="M9.7612 38.0118C9.76403 38.3419 9.66909 38.6653 9.4884 38.9412C9.30771 39.217 9.04943 39.4327 8.74634 39.561C8.44324 39.6893 8.10898 39.7243 7.786 39.6617C7.46303 39.599 7.16588 39.4415 6.93226 39.2091C6.69865 38.9768 6.53911 38.68 6.47388 38.3565C6.40866 38.033 6.44068 37.6973 6.56591 37.3921C6.69113 37.0869 6.90391 36.8259 7.17722 36.6422C7.45054 36.4586 7.77208 36.3605 8.10104 36.3605C8.53888 36.3605 8.95899 36.534 9.26993 36.8433C9.58086 37.1526 9.75742 37.5726 9.7612 38.0118Z" fill="#42E8E0"/>
<path opacity="0.9" d="M4.32276 21.4695C4.41955 21.8504 4.66316 22.177 4.99999 22.3777C5.33683 22.5783 5.73929 22.6364 6.11886 22.5393C6.49843 22.4422 6.824 22.1978 7.02396 21.8598C7.22391 21.5218 7.28189 21.118 7.1851 20.7372C7.14182 20.5484 7.06092 20.3703 6.94726 20.2137C6.8336 20.0571 6.68953 19.9252 6.52374 19.8259C6.35794 19.7267 6.17383 19.6621 5.9825 19.6361C5.79118 19.61 5.59659 19.6231 5.41044 19.6746C5.21812 19.7145 5.03605 19.7937 4.87556 19.9073C4.71507 20.0209 4.57961 20.1664 4.47759 20.3347C4.37556 20.5031 4.30915 20.6907 4.28251 20.886C4.25587 21.0812 4.26958 21.2798 4.32276 21.4695Z" fill="#42E8E0"/>
<path opacity="0.9" d="M0.329768 54.8558C0.406641 55.1256 0.560629 55.3669 0.772706 55.5499C0.984783 55.7329 1.24567 55.8495 1.52308 55.8853C1.80049 55.9212 2.08228 55.8747 2.33363 55.7515C2.58499 55.6284 2.79488 55.4341 2.93736 55.1926C3.07985 54.9511 3.14869 54.673 3.13537 54.3927C3.12205 54.1124 3.02716 53.8421 2.86242 53.6153C2.69767 53.3886 2.4703 53.2152 2.20842 53.1166C1.94653 53.0181 1.6616 52.9987 1.38884 53.0608C1.19909 53.1041 1.02012 53.1857 0.862875 53.3007C0.705628 53.4156 0.573414 53.5616 0.474291 53.7296C0.375168 53.8976 0.311224 54.0841 0.286376 54.2777C0.261529 54.4714 0.276291 54.6681 0.329768 54.8558Z" fill="#42E8E0"/>
<path opacity="0.9" d="M4.58034 46.8287C4.60463 46.9714 4.65814 47.1076 4.73747 47.2285C4.8168 47.3495 4.92024 47.4526 5.04128 47.5315C5.16232 47.6103 5.29832 47.6631 5.44072 47.6866C5.58312 47.7101 5.72884 47.7038 5.86866 47.6679C6.00849 47.6321 6.1394 47.5676 6.25314 47.4785C6.36689 47.3894 6.46102 47.2776 6.52957 47.1502C6.59812 47.0228 6.63962 46.8825 6.65145 46.7382C6.66328 46.5939 6.64519 46.4487 6.59832 46.3118C6.51306 46.0627 6.33748 45.8549 6.1065 45.7298C5.87552 45.6047 5.60608 45.5714 5.35175 45.6366C5.09743 45.7017 4.87684 45.8606 4.73391 46.0814C4.59098 46.3023 4.53616 46.5691 4.58034 46.8287Z" fill="#42E8E0"/>
<path opacity="0.9" d="M9.76123 19.1432C9.76122 19.4733 9.66348 19.7959 9.48042 20.0701C9.29735 20.3443 9.03724 20.5578 8.73305 20.6835C8.42886 20.8091 8.09432 20.8413 7.7719 20.7758C7.44947 20.7104 7.15369 20.5503 6.92209 20.3159C6.69049 20.0815 6.53352 19.7833 6.47109 19.4593C6.40866 19.1352 6.44359 18.7999 6.57144 18.4957C6.69929 18.1916 6.9143 17.9325 7.18919 17.7512C7.46408 17.5699 7.78644 17.4746 8.11539 17.4775C8.5532 17.4813 8.9718 17.6584 9.28005 17.9704C9.5883 18.2824 9.76125 18.7039 9.76123 19.1432Z" fill="#42E8E0"/>
<path opacity="0.9" d="M4.32274 2.60078C4.37066 2.78936 4.45514 2.96662 4.57134 3.12244C4.68754 3.27825 4.83319 3.40959 4.99998 3.50893C5.16676 3.60827 5.35141 3.67367 5.54339 3.70141C5.73537 3.72914 5.9309 3.71867 6.11884 3.67059C6.30679 3.6225 6.48346 3.53774 6.63876 3.42115C6.79406 3.30456 6.92493 3.15842 7.02394 2.99108C7.12294 2.82373 7.18814 2.63846 7.21578 2.44584C7.24343 2.25322 7.233 2.05702 7.18508 1.86845C7.13408 1.68453 7.04702 1.51265 6.92903 1.36288C6.81104 1.21311 6.66448 1.08845 6.4979 0.996195C6.33133 0.903937 6.14808 0.845932 5.9589 0.825572C5.76972 0.805212 5.5784 0.822909 5.39612 0.877622C5.21281 0.919944 5.03962 0.998104 4.88644 1.10764C4.73327 1.21717 4.60312 1.35592 4.50343 1.51596C4.40374 1.676 4.33647 1.85418 4.30547 2.04033C4.27446 2.22647 4.28033 2.41692 4.32274 2.60078Z" fill="#42E8E0"/>
<path opacity="0.9" d="M0.329768 35.9728C0.406641 36.2426 0.560629 36.4839 0.772706 36.6669C0.984783 36.8499 1.24567 36.9665 1.52308 37.0023C1.80049 37.0382 2.08228 36.9917 2.33363 36.8685C2.58499 36.7454 2.79488 36.5511 2.93736 36.3096C3.07985 36.0681 3.14869 35.79 3.13537 35.5097C3.12205 35.2294 3.02716 34.9591 2.86242 34.7323C2.69767 34.5055 2.4703 34.3322 2.20842 34.2336C1.94653 34.1351 1.6616 34.1157 1.38884 34.1778C1.19909 34.2211 1.02012 34.3027 0.862875 34.4177C0.705628 34.5326 0.573414 34.6786 0.474291 34.8466C0.375168 35.0146 0.311224 35.2011 0.286376 35.3948C0.261529 35.5884 0.276291 35.7851 0.329768 35.9728Z" fill="#42E8E0"/>
<path opacity="0.9" d="M4.58034 28.0032C4.63004 28.2053 4.73862 28.388 4.89222 28.528C5.04581 28.668 5.23747 28.7589 5.44278 28.7892C5.64809 28.8195 5.85774 28.7878 6.04499 28.698C6.23225 28.6083 6.38862 28.4646 6.49419 28.2854C6.59975 28.1061 6.64974 27.8994 6.63775 27.6916C6.62576 27.4837 6.55235 27.2841 6.42688 27.1183C6.30141 26.9525 6.12954 26.8279 5.93323 26.7604C5.73691 26.6929 5.52503 26.6857 5.32457 26.7395C5.19273 26.773 5.06879 26.8323 4.95991 26.914C4.85104 26.9958 4.75937 27.0984 4.69019 27.2158C4.62101 27.3333 4.57568 27.4633 4.55682 27.5985C4.53797 27.7336 4.54597 27.8711 4.58034 28.0032Z" fill="#42E8E0"/>
</svg>
