<svg width="574" height="480" fill="none" xmlns="http://www.w3.org/2000/svg"><g id="Górne kolumny"><g id="Asset 2 3"><g id="Group"><g id="Layer 2"><g id="—ÎÓÈ_1"><g id="Group_2" opacity=".5"><path id="Vector" style="mix-blend-mode:lighten" opacity=".4" d="M207.411 479.714L134 444.519l146.048-69.151 73.43 35.195-146.067 69.151z" fill="url(#paint0_linear)"/><path id="Vector_2" style="mix-blend-mode:lighten" opacity=".4" d="M500.551 480l73.43-35.211-146.048-69.151-73.43 35.211L500.551 480z" fill="url(#paint1_linear)"/></g><g id="Group_3" opacity=".5"><path id="Vector_3" style="mix-blend-mode:lighten" opacity=".4" d="M207.449 272.006l-73.43 35.21 146.067 69.152 73.411-35.211-146.048-69.151z" fill="url(#paint2_linear)"/><path id="Vector_4" style="mix-blend-mode:lighten" opacity=".4" d="M500.589 271.736L574 306.931l-146.048 69.151-73.43-35.195 146.067-69.151z" fill="url(#paint3_linear)"/></g><path id="Vector_5" d="M353.478 411.42l-74.957-35.544 74.957-35.528 74.957 35.528-74.957 35.544z" fill="#312A91"/><path id="Vector_6" d="M353.478 401.197l-74.957-35.545 74.957-35.528 74.957 35.528-74.957 35.545z" fill="#312A91"/><path id="Vector_7" style="mix-blend-mode:lighten" opacity=".7" d="M353.478 393.084l-57.866-27.432 57.866-27.432 57.866 27.432-57.866 27.432z" fill="url(#paint4_linear)"/><path id="Vector_8" d="M428.435 365.652v10.224l-74.957 35.544v-10.224l74.957-35.544z" fill="url(#paint5_linear)"/><path id="Vector_9" d="M278.521 365.652v10.224l74.957 35.544v-10.224l-74.957-35.544z" fill="#312A91"/><path id="Vector_10" style="mix-blend-mode:lighten" opacity=".7" d="M278.521 365.652v10.224l74.957 35.544v-10.224l-74.957-35.544z" fill="url(#paint6_linear)"/><path id="Vector_11" d="M353.478 258.544l-74.957-35.528 74.957-35.529 74.957 35.529-74.957 35.528z" fill="#312A91"/><path id="Vector_12" d="M353.478 248.32l-74.957-35.528 74.957-35.528 74.957 35.528-74.957 35.528z" fill="#312A91"/><path id="Vector_13" style="mix-blend-mode:lighten" opacity=".7" d="M353.478 248.32l-74.957-35.528 74.957-35.528 74.957 35.528-74.957 35.528z" fill="url(#paint7_linear)"/><path id="Vector_14" opacity=".3" d="M353.478 225.952l-27.744-13.16 27.744-13.16 27.744 13.16-27.744 13.16z" fill="#42E8E0"/><path id="Vector_15" opacity=".3" d="M353.478 208.569l18.328 8.684 9.416-4.461-27.744-13.16-27.744 13.16 9.415 4.461 18.329-8.684z" fill="#42E8E0"/><path id="Vector_16" d="M353.478 208.569l18.328 8.684 9.416-4.461-27.744-13.16-27.744 13.16 9.415 4.461 18.329-8.684z" fill="#42E8E0"/><path id="Vector_17" d="M428.435 212.792v10.224l-74.957 35.528V248.32l74.957-35.528z" fill="url(#paint8_linear)"/><path id="Vector_18" d="M278.521 212.792v10.224l74.957 35.528V248.32l-74.957-35.528z" fill="#312A91"/><path id="Vector_19" style="mix-blend-mode:lighten" opacity=".7" d="M278.521 212.792v10.224l74.957 35.528V248.32l-74.957-35.528z" fill="url(#paint9_linear)"/><path id="Vector_20" opacity=".3" d="M353.478 258.544v142.653l-74.957-35.545V223.016l74.957 35.528z" fill="#42E8E0"/><path id="Vector_21" opacity=".3" d="M295.612 231.112v134.54l57.866 27.432 57.866-27.432v-134.54l-57.866 27.432-57.866-27.432z" fill="#42E8E0"/><path id="Vector_22" opacity=".3" d="M353.478 258.544v134.54l-57.866-27.432v-134.54l57.866 27.432z" fill="#42E8E0"/><g id="Group_4" opacity=".7"><path id="Vector_23" opacity=".7" d="M353.478 338.078l-57.866-27.448 57.866-27.432 57.866 27.432-57.866 27.448z" fill="url(#paint10_linear)"/><path id="Vector_24" opacity=".7" d="M411.344 310.63v55.022l-57.866 27.432v-55.006l57.866-27.448z" fill="url(#paint11_linear)"/><path id="Vector_25" opacity=".7" d="M295.612 310.63v55.022l57.866 27.432v-55.006l-57.866-27.448z" fill="url(#paint12_linear)"/></g><path id="Vector_26" opacity=".5" d="M278.521 223.016v142.636l74.957 35.545 74.957-35.545V223.016l-74.957 35.528-74.957-35.528z" fill="#5CFFF3"/><path id="Vector_27" style="mix-blend-mode:lighten" d="M280.299 212.792l74.068-35.115-.889-.413-74.957 35.528 74.957 35.528.889-.412-74.068-35.116z" fill="url(#paint13_linear)"/><path id="Vector_28" opacity=".5" d="M278.521 223.016v142.636l1.024.493V223.508l-1.024-.492z" fill="#42E8E0"/><path id="Vector_29" opacity=".5" d="M428.435 223.016v142.636l-1.044.493V223.508l1.044-.492z" fill="#42E8E0"/><path id="Vector_30" opacity=".5" d="M353.478 258.544l-1.779-.842v142.669l1.779.826 1.779-.826V257.702l-1.779.842z" fill="#42E8E0"/><path id="Vector_31" style="mix-blend-mode:lighten" opacity=".7" d="M381.222 212.792L421.823 98h-136.69l40.601 114.792 27.744 13.16 27.744-13.16z" fill="url(#paint14_linear)"/><path id="Vector_32" style="mix-blend-mode:lighten" opacity=".7" d="M381.222 212.792L404.635 98H300.677l25.057 114.792 27.744 13.16 27.744-13.16z" fill="url(#paint15_linear)"/><path id="Vector_33" opacity=".3" d="M332.791 183.265c0 .222-.081.44-.232.626-.15.185-.365.33-.616.415-.25.085-.526.108-.793.064a1.489 1.489 0 01-.703-.308 1.084 1.084 0 01-.375-.578.94.94 0 01.078-.651c.104-.206.28-.382.505-.506.226-.123.492-.19.763-.19.364 0 .713.119.971.331.257.211.402.498.402.797z" fill="#42E8E0"/><path id="Vector_34" opacity=".2" d="M342.4 170.501c0 .303-.147.594-.408.808a1.555 1.555 0 01-.984.335c-.371 0-.728-.12-.992-.334-.264-.214-.415-.504-.42-.809 0-.307.149-.602.414-.819.264-.218.623-.34.998-.34.371.004.725.128.985.345.261.217.407.509.407.814z" fill="#42E8E0"/><path id="Vector_35" opacity=".2" d="M382.073 167.04c.491 0 .889-.327.889-.73 0-.403-.398-.73-.889-.73s-.89.327-.89.73c0 .403.399.73.89.73z" fill="#42E8E0"/><path id="Vector_36" opacity=".2" d="M380.681 162.516c0 .314-.114.621-.326.882a1.91 1.91 0 01-.868.585c-.353.12-.742.151-1.117.09a2.085 2.085 0 01-.99-.435 1.527 1.527 0 01-.529-.812 1.334 1.334 0 01.11-.918c.146-.29.394-.538.712-.712a2.25 2.25 0 011.074-.268c.513 0 1.005.168 1.367.465.363.298.567.702.567 1.123z" fill="#42E8E0"/><path id="Vector_37" opacity=".2" d="M337.199 168.93c.491 0 .889-.327.889-.731 0-.403-.398-.73-.889-.73s-.889.327-.889.73c0 .404.398.731.889.731z" fill="#42E8E0"/><path id="Vector_38" opacity=".3" d="M335.633 204.997c.758 0 1.373-.504 1.373-1.127 0-.622-.615-1.127-1.373-1.127s-1.373.505-1.373 1.127c0 .623.615 1.127 1.373 1.127z" fill="#42E8E0"/><path id="Vector_39" opacity=".2" d="M346.673 191.107c0 .304-.146.597-.407.814a1.576 1.576 0 01-.986.345c-.374 0-.733-.122-.997-.34-.265-.217-.414-.512-.414-.819.005-.305.156-.595.42-.809.264-.214.621-.334.991-.334s.724.12.985.335c.261.214.408.505.408.808z" fill="#42E8E0"/><path id="Vector_40" opacity=".2" d="M341.414 189.535c.491 0 .889-.327.889-.73 0-.403-.398-.73-.889-.73s-.89.327-.89.73c0 .403.399.73.89.73z" fill="#42E8E0"/><path id="Vector_41" opacity=".3" d="M375.383 161.881c.091.247.294.455.567.582.273.126.595.162.899.098.304-.063.567-.22.733-.439a.852.852 0 00-.033-1.102 1.176 1.176 0 00-.354-.276 1.455 1.455 0 00-.946-.121 1.332 1.332 0 00-.439.174c-.131.082-.24.185-.321.303a.837.837 0 00-.106.781z" fill="#42E8E0"/><path id="Vector_42" opacity=".2" d="M363.686 152.626c.059.199.189.38.374.519a1.489 1.489 0 001.389.169c.226-.088.414-.23.541-.407a.89.89 0 00.172-.586.929.929 0 00-.256-.565 1.285 1.285 0 00-.597-.351 1.503 1.503 0 00-.733-.017 1.343 1.343 0 00-.436.172 1.11 1.11 0 00-.321.295.907.907 0 00-.16.375.845.845 0 00.027.396z" fill="#42E8E0"/><path id="Vector_43" opacity=".2" d="M327.667 156.341c.015.09.054.177.113.255a.735.735 0 00.23.196.905.905 0 00.306.101c.11.016.223.012.331-.01a.905.905 0 00.297-.12.713.713 0 00.211-.209.547.547 0 00.04-.531.713.713 0 00-.375-.348.953.953 0 00-.562-.054.806.806 0 00-.463.267.565.565 0 00-.128.453z" fill="#42E8E0"/><path id="Vector_44" opacity=".2" d="M328.634 152.658c.101.339.36.632.722.816a1.93 1.93 0 001.211.168c.21-.044.407-.121.58-.227a1.5 1.5 0 00.429-.392c.111-.153.183-.322.214-.498.031-.175.02-.354-.034-.526a1.264 1.264 0 00-.276-.476 1.598 1.598 0 00-.478-.353 1.896 1.896 0 00-.605-.175 2.005 2.005 0 00-.642.027c-.411.097-.76.322-.97.629-.21.306-.264.668-.151 1.007z" fill="#42E8E0"/><path id="Vector_45" opacity=".2" d="M366.78 149.864a.682.682 0 00.363.402.95.95 0 00.603.074.808.808 0 00.491-.298.556.556 0 00.089-.496.696.696 0 00-.366-.398.962.962 0 00-.6-.078.88.88 0 00-.283.108.719.719 0 00-.209.189.543.543 0 00-.088.497z" fill="#42E8E0"/><path id="Vector_46" opacity=".2" d="M376.35 204.585a1.054 1.054 0 01-.981.095.836.836 0 01-.372-.293.624.624 0 01.076-.809.91.91 0 01.422-.243c.167-.045.347-.048.516-.009a.923.923 0 01.436.227.717.717 0 01.171.249.61.61 0 01-.053.558.778.778 0 01-.215.225z" fill="#42E8E0"/><path id="Vector_47" opacity=".2" d="M378.399 200.695a2.13 2.13 0 01-1.029.399 2.316 2.316 0 01-1.125-.146 1.84 1.84 0 01-.829-.641 1.355 1.355 0 01-.246-.913c.031-.317.178-.62.421-.868.244-.248.573-.43.944-.523a2.348 2.348 0 011.139.004c.37.095.697.28.938.529.304.315.451.714.412 1.114-.04.401-.263.775-.625 1.045z" fill="#42E8E0"/><path id="Vector_48" opacity=".3" d="M375.557 196.965a.888.888 0 00-.222.55.874.874 0 00.187.56c.129.167.314.299.534.38.22.08.464.106.701.072a1.33 1.33 0 00.632-.259.978.978 0 00.351-.504.832.832 0 00-.049-.578 1.052 1.052 0 00-.432-.459 1.37 1.37 0 00-.435-.161 1.49 1.49 0 00-.476-.011 1.42 1.42 0 00-.445.14 1.164 1.164 0 00-.346.27z" fill="#42E8E0"/><path id="Vector_49" opacity=".2" d="M376.582 183.725a.844.844 0 00-.053.663c.073.22.234.413.457.549.223.135.495.205.773.199.277-.007.543-.09.756-.236a.943.943 0 00.203-.361.83.83 0 00.015-.396.897.897 0 00-.173-.37 1.113 1.113 0 00-.335-.286 1.461 1.461 0 00-.878-.143c-.304.044-.577.18-.765.381z" fill="#42E8E0"/><path id="Vector_50" opacity=".2" d="M381.145 183.804a.577.577 0 00-.133.493.665.665 0 00.326.428.955.955 0 00.885.024.765.765 0 00.227-.175.598.598 0 00.128-.232.538.538 0 00.01-.255.589.589 0 00-.109-.239.86.86 0 00-.497-.297.967.967 0 00-.313-.012.911.911 0 00-.295.089.764.764 0 00-.229.176z" fill="#42E8E0"/><g id="Group_5" opacity=".9" fill="#42E8E0"><path id="Vector_51" opacity=".9" d="M349.012 216.253c.1.3.306.569.591.774a2.16 2.16 0 001.013.378 2.32 2.32 0 001.099-.143c.341-.136.627-.35.821-.617.194-.267.288-.575.271-.886a1.414 1.414 0 00-.368-.862 1.936 1.936 0 00-.886-.553 2.345 2.345 0 00-1.111-.06 2.154 2.154 0 00-.704.264 1.743 1.743 0 00-.522.47 1.409 1.409 0 00-.256.6 1.32 1.32 0 00.052.635z"/><path id="Vector_52" opacity=".9" d="M354.734 207.537c.046.146.126.283.237.404.11.12.248.222.406.298.158.077.333.127.514.149.182.021.367.012.545-.025.178-.038.345-.104.491-.194.147-.091.271-.204.364-.334a1.01 1.01 0 00.18-.422.942.942 0 00-.03-.447c-.092-.295-.323-.547-.642-.702a1.67 1.67 0 00-1.059-.124c-.359.076-.667.266-.855.528a.971.971 0 00-.151.869z"/></g><path id="Vector_53" opacity=".3" d="M332.791 162.516a.988.988 0 01-.232.626c-.15.186-.365.33-.616.415-.25.086-.526.108-.793.065a1.49 1.49 0 01-.703-.309 1.081 1.081 0 01-.375-.577.94.94 0 01.078-.651c.104-.206.28-.382.505-.506.226-.124.492-.19.763-.19.364 0 .713.119.971.33.257.211.402.498.402.797z" fill="#42E8E0"/><path id="Vector_54" opacity=".2" d="M342.4 149.737c0 .304-.146.597-.407.814-.26.216-.614.34-.985.345a1.58 1.58 0 01-.998-.34c-.265-.217-.414-.512-.414-.819.005-.305.156-.596.42-.81a1.59 1.59 0 01.992-.333c.369 0 .723.12.984.334.261.215.408.505.408.809z" fill="#42E8E0"/><path id="Vector_55" opacity=".2" d="M382.962 145.625a.641.641 0 01-.15.406.88.88 0 01-.399.269 1.076 1.076 0 01-.514.041.962.962 0 01-.455-.2.701.701 0 01-.244-.374.611.611 0 01.051-.421.774.774 0 01.328-.328c.146-.08.318-.123.494-.123.117-.002.234.015.343.051a.91.91 0 01.291.158.708.708 0 01.193.239c.043.09.065.185.062.282z" fill="#42E8E0"/><path id="Vector_56" opacity=".2" d="M380.681 141.767c0 .314-.114.621-.326.882a1.901 1.901 0 01-.868.585 2.32 2.32 0 01-1.117.09 2.093 2.093 0 01-.99-.434 1.53 1.53 0 01-.529-.813 1.33 1.33 0 01.11-.917c.146-.29.394-.538.712-.713a2.25 2.25 0 011.074-.267c.513 0 1.005.167 1.367.465.363.297.567.701.567 1.122z" fill="#42E8E0"/><path id="Vector_57" opacity=".2" d="M337.199 148.181c.491 0 .889-.327.889-.73 0-.404-.398-.731-.889-.731s-.889.327-.889.731c0 .403.398.73.889.73z" fill="#42E8E0"/><path id="Vector_58" opacity=".3" d="M337.006 183.122a.988.988 0 01-.232.626 1.35 1.35 0 01-.616.415 1.65 1.65 0 01-.793.064 1.489 1.489 0 01-.703-.308 1.085 1.085 0 01-.375-.577.942.942 0 01.078-.652c.104-.206.28-.382.505-.505.226-.124.491-.19.763-.19.364 0 .713.118.971.33.257.211.402.498.402.797z" fill="#42E8E0"/><path id="Vector_59" opacity=".2" d="M345.222 171.501c.769 0 1.392-.512 1.392-1.143s-.623-1.143-1.392-1.143c-.768 0-1.392.512-1.392 1.143s.624 1.143 1.392 1.143z" fill="#42E8E0"/><path id="Vector_60" opacity=".2" d="M341.414 168.787c.491 0 .889-.327.889-.731 0-.403-.398-.73-.889-.73s-.89.327-.89.73c0 .404.399.731.89.731z" fill="#42E8E0"/><path id="Vector_61" opacity=".3" d="M375.383 141.132a.954.954 0 00.208.352c.097.104.218.192.356.259a1.484 1.484 0 00.925.104c.155-.034.3-.092.428-.171.127-.08.235-.179.315-.292a.893.893 0 00.156-.37.834.834 0 00-.029-.39.932.932 0 00-.208-.351 1.17 1.17 0 00-.356-.259 1.39 1.39 0 00-.45-.128 1.486 1.486 0 00-.907.191 1.097 1.097 0 00-.319.293.826.826 0 00-.119.762z" fill="#42E8E0"/><path id="Vector_62" opacity=".2" d="M363.686 131.877c.059.2.189.38.374.519s.416.229.663.259c.247.03.5-.001.726-.09.226-.088.414-.23.541-.407a.89.89 0 00.172-.586.926.926 0 00-.256-.564 1.278 1.278 0 00-.597-.352 1.527 1.527 0 00-1.169.155c-.129.08-.239.181-.321.296a.903.903 0 00-.16.374.845.845 0 00.027.396z" fill="#42E8E0"/><path id="Vector_63" opacity=".2" d="M327.667 135.592a.634.634 0 00.235.328.864.864 0 00.417.165.95.95 0 00.459-.055.762.762 0 00.343-.257.563.563 0 00.109-.37.592.592 0 00-.162-.357.802.802 0 00-.377-.221.954.954 0 00-.463-.011.796.796 0 00-.472.296.555.555 0 00-.089.482z" fill="#42E8E0"/><path id="Vector_64" opacity=".2" d="M328.634 131.909c.106.337.366.628.726.811.36.184.793.246 1.207.173.409-.09.76-.304.982-.599.223-.295.3-.648.217-.988-.109-.334-.371-.621-.731-.801a1.946 1.946 0 00-1.202-.168c-.409.084-.763.294-.987.587a1.141 1.141 0 00-.212.985z" fill="#42E8E0"/><path id="Vector_65" opacity=".2" d="M366.78 129.115a.636.636 0 00.237.322.884.884 0 00.416.161.954.954 0 00.454-.056.76.76 0 00.34-.254.554.554 0 00-.041-.721.804.804 0 00-.368-.225.959.959 0 00-.458-.021.903.903 0 00-.283.108.722.722 0 00-.209.19.538.538 0 00-.088.496z" fill="#42E8E0"/><path id="Vector_66" opacity=".2" d="M376.35 183.82a1.029 1.029 0 01-.958.088.812.812 0 01-.361-.287.61.61 0 01.075-.789.892.892 0 01.411-.237 1.06 1.06 0 01.504-.011.925.925 0 01.426.22.708.708 0 01.17.245.598.598 0 01-.053.551.77.77 0 01-.214.22z" fill="#42E8E0"/><path id="Vector_67" opacity=".2" d="M378.399 179.931a2.321 2.321 0 01-1.21.092 2.04 2.04 0 01-1.038-.519 1.45 1.45 0 01-.456-.925 1.378 1.378 0 01.307-.966c.164-.208.385-.381.645-.506a2.303 2.303 0 011.732-.092c.278.097.524.245.719.434.195.188.334.412.405.652.071.241.073.492.005.733a1.492 1.492 0 01-.396.656 1.944 1.944 0 01-.713.441z" fill="#42E8E0"/><path id="Vector_68" opacity=".3" d="M375.557 176.216a.89.89 0 00-.222.551.873.873 0 00.187.559c.129.167.314.3.534.38.22.081.464.106.701.073a1.34 1.34 0 00.632-.259.978.978 0 00.351-.504.835.835 0 00-.049-.579 1.057 1.057 0 00-.432-.459 1.367 1.367 0 00-.435-.16 1.49 1.49 0 00-.476-.011c-.158.022-.309.07-.445.14s-.253.162-.346.269z" fill="#42E8E0"/><path id="Vector_69" opacity=".2" d="M376.582 162.913a.892.892 0 00-.216.56c-.003.2.066.396.198.564.133.168.322.301.546.381.223.079.47.103.71.068.24-.035.462-.127.638-.265a.993.993 0 00.353-.511.854.854 0 00-.051-.586 1.074 1.074 0 00-.438-.465 1.486 1.486 0 00-.934-.167 1.314 1.314 0 00-.806.421z" fill="#42E8E0"/><path id="Vector_70" opacity=".2" d="M381.145 163.087a.577.577 0 00-.133.493.662.662 0 00.326.428.9.9 0 00.283.106.983.983 0 00.311.008.923.923 0 00.291-.09.749.749 0 00.227-.175.598.598 0 00.128-.232.537.537 0 00.01-.255.589.589 0 00-.109-.239.739.739 0 00-.213-.186.881.881 0 00-.284-.111.967.967 0 00-.313-.012.911.911 0 00-.295.089.764.764 0 00-.229.176z" fill="#42E8E0"/><path id="Vector_71" opacity=".3" d="M332.791 141.767a.993.993 0 01-.232.627c-.15.185-.365.329-.616.415a1.66 1.66 0 01-.793.064 1.49 1.49 0 01-.703-.309 1.078 1.078 0 01-.375-.577.94.94 0 01.078-.651c.104-.206.28-.382.505-.506.226-.124.492-.19.763-.19.364 0 .713.119.971.33.257.212.402.498.402.797z" fill="#42E8E0"/><path id="Vector_72" opacity=".2" d="M342.4 128.988c0 .305-.146.597-.407.814-.26.217-.614.341-.985.345-.375 0-.734-.122-.998-.34-.265-.217-.414-.512-.414-.819.005-.305.156-.595.42-.809.264-.214.621-.334.992-.334.369 0 .723.12.984.335.261.214.408.505.408.808z" fill="#42E8E0"/><path id="Vector_73" opacity=".2" d="M382.073 125.543c.491 0 .889-.327.889-.73 0-.403-.398-.73-.889-.73s-.89.327-.89.73c0 .403.399.73.89.73z" fill="#42E8E0"/><path id="Vector_74" opacity=".2" d="M380.681 121.003c0 .314-.114.621-.326.882a1.91 1.91 0 01-.868.585c-.353.12-.742.151-1.117.09a2.094 2.094 0 01-.99-.435 1.527 1.527 0 01-.529-.812 1.333 1.333 0 01.11-.918c.146-.29.394-.538.712-.712a2.25 2.25 0 011.074-.268c.513 0 1.005.168 1.367.465.363.298.567.702.567 1.123z" fill="#42E8E0"/><path id="Vector_75" opacity=".2" d="M337.199 127.416c.491 0 .889-.327.889-.73 0-.403-.398-.73-.889-.73s-.889.327-.889.73c0 .403.398.73.889.73z" fill="#42E8E0"/><path id="Vector_76" opacity=".3" d="M337.006 162.373a.988.988 0 01-.232.626c-.151.186-.365.33-.616.415a1.65 1.65 0 01-.793.065 1.49 1.49 0 01-.703-.309 1.081 1.081 0 01-.375-.577.94.94 0 01.078-.651c.104-.206.28-.382.505-.506.226-.124.491-.19.763-.19.364 0 .713.119.971.33.257.211.402.498.402.797z" fill="#42E8E0"/><path id="Vector_77" opacity=".2" d="M346.673 149.61c0 .303-.147.594-.408.808a1.562 1.562 0 01-.985.335c-.37 0-.727-.12-.991-.334-.264-.214-.415-.505-.42-.809 0-.308.149-.602.414-.82.264-.217.623-.339.997-.339.371.004.725.128.986.345.261.217.407.509.407.814z" fill="#42E8E0"/><path id="Vector_78" opacity=".2" d="M341.414 148.038c.491 0 .889-.327.889-.73 0-.404-.398-.73-.889-.73s-.89.326-.89.73c0 .403.399.73.89.73z" fill="#42E8E0"/><path id="Vector_79" opacity=".3" d="M375.383 120.368a.906.906 0 00.197.355c.094.107.213.196.35.264.137.069.289.113.448.132.158.019.32.012.475-.021.161-.027.313-.081.448-.159a1.12 1.12 0 00.337-.29.84.84 0 00.148-.777.956.956 0 00-.213-.361 1.188 1.188 0 00-.369-.263 1.474 1.474 0 00-.951-.087 1.333 1.333 0 00-.426.166 1.083 1.083 0 00-.316.288.877.877 0 00-.156.366.82.82 0 00.028.387z" fill="#42E8E0"/><path id="Vector_80" opacity=".2" d="M363.686 111.129c.059.199.189.38.374.518.185.139.416.229.663.259.247.03.5-.001.726-.089a1.2 1.2 0 00.541-.407.89.89 0 00.172-.586.929.929 0 00-.256-.565 1.28 1.28 0 00-.597-.351 1.515 1.515 0 00-.733-.018 1.36 1.36 0 00-.44.169c-.131.08-.242.18-.325.296a.842.842 0 00-.125.774z" fill="#42E8E0"/><path id="Vector_81" opacity=".2" d="M327.667 114.843c.069.15.202.274.375.348a.945.945 0 00.562.054.806.806 0 00.463-.267.563.563 0 00.128-.452.582.582 0 00-.113-.256.732.732 0 00-.23-.195.906.906 0 00-.306-.102.968.968 0 00-.331.011.864.864 0 00-.297.12.701.701 0 00-.211.209.543.543 0 00-.04.53z" fill="#42E8E0"/><path id="Vector_82" opacity=".2" d="M328.634 111.16c.106.337.366.628.726.812.36.183.793.245 1.207.173.229-.029.448-.097.643-.2a1.56 1.56 0 00.49-.396c.128-.158.214-.337.253-.525a1.137 1.137 0 00-.027-.564 1.287 1.287 0 00-.303-.506 1.62 1.62 0 00-.526-.363 2.005 2.005 0 00-1.342-.082c-.413.1-.761.329-.971.638-.21.308-.264.672-.15 1.013z" fill="#42E8E0"/><path id="Vector_83" opacity=".2" d="M366.78 108.366a.638.638 0 00.237.323.883.883 0 00.416.16.942.942 0 00.454-.056.758.758 0 00.34-.253.555.555 0 00-.041-.721.806.806 0 00-.368-.226.946.946 0 00-.741.088.719.719 0 00-.209.189.538.538 0 00-.088.496z" fill="#42E8E0"/><path id="Vector_84" opacity=".2" d="M376.35 163.088a.948.948 0 01-.298.139 1.056 1.056 0 01-.671-.043.843.843 0 01-.268-.176.69.69 0 01-.171-.249.599.599 0 01-.042-.283.631.631 0 01.094-.275.778.778 0 01.215-.225c.182-.102.404-.145.623-.121a.95.95 0 01.56.253.652.652 0 01.209.496.675.675 0 01-.251.484z" fill="#42E8E0"/><path id="Vector_85" opacity=".2" d="M378.399 159.182a2.321 2.321 0 01-1.21.092 2.025 2.025 0 01-1.038-.519 1.449 1.449 0 01-.456-.925 1.38 1.38 0 01.307-.966c.164-.207.385-.381.645-.506a2.322 2.322 0 011.732-.092c.278.097.524.245.719.434.195.189.334.412.405.653.071.24.073.491.005.732a1.5 1.5 0 01-.396.657c-.193.19-.437.341-.713.44z" fill="#42E8E0"/><path id="Vector_86" opacity=".3" d="M375.557 155.452a.877.877 0 00-.2.746c.054.261.23.495.49.651.13.077.277.132.432.163.156.03.317.036.475.015.158-.021.31-.067.446-.135.136-.069.255-.159.349-.266a.874.874 0 00.2-.746 1.013 1.013 0 00-.49-.651 1.37 1.37 0 00-.432-.163 1.485 1.485 0 00-.475-.015c-.158.021-.31.067-.446.135a1.163 1.163 0 00-.349.266z" fill="#42E8E0"/><path id="Vector_87" opacity=".2" d="M376.582 142.148a.902.902 0 00-.204.762c.054.267.231.505.494.667.27.12.583.156.882.099.299-.056.563-.201.741-.406a.896.896 0 00.228-.707.983.983 0 00-.401-.653 1.48 1.48 0 00-.929-.174 1.322 1.322 0 00-.811.412z" fill="#42E8E0"/><path id="Vector_88" opacity=".2" d="M381.145 142.307a.577.577 0 00-.133.493.665.665 0 00.326.428.974.974 0 00.566.056.832.832 0 00.472-.263.578.578 0 00.144-.453.63.63 0 00-.254-.42.962.962 0 00-.6-.109.849.849 0 00-.521.268z" fill="#42E8E0"/><g id="Prawe kropki" fill="#42E8E0"><path id="p1" opacity=".9" d="M359.471 199.568c1.228 0 2.224-.817 2.224-1.825 0-1.009-.996-1.826-2.224-1.826-1.228 0-2.223.817-2.223 1.826 0 1.008.995 1.825 2.223 1.825z"/><path id="p4" opacity=".9" d="M354.406 179.55c.101.3.306.569.592.774.285.204.637.336 1.012.378a2.32 2.32 0 001.099-.143c.342-.135.627-.35.821-.617.194-.267.289-.575.271-.886a1.416 1.416 0 00-.368-.862 1.945 1.945 0 00-.886-.553 2.354 2.354 0 00-1.11-.06 2.16 2.16 0 00-.705.264 1.755 1.755 0 00-.522.47 1.409 1.409 0 00-.256.6c-.035.213-.017.428.052.635z"/><path id="p5" opacity=".9" d="M359.471 178.82c1.228 0 2.224-.818 2.224-1.826s-.996-1.826-2.224-1.826c-1.228 0-2.223.818-2.223 1.826s.995 1.826 2.223 1.826z"/><path id="p8" opacity=".9" d="M354.406 158.801c.101.3.306.569.592.774.285.205.637.336 1.012.378.376.042.758-.008 1.099-.143.342-.135.627-.349.821-.617.194-.267.289-.575.271-.886a1.419 1.419 0 00-.368-.862 1.943 1.943 0 00-.886-.552 2.328 2.328 0 00-1.11-.06 2.137 2.137 0 00-.705.264 1.752 1.752 0 00-.522.469 1.407 1.407 0 00-.256.601c-.035.212-.017.428.052.634z"/><path id="p2" opacity=".9" d="M349.012 195.504c.06.209.172.406.328.579.155.172.352.317.578.426a2.318 2.318 0 001.511.154c.512-.107.952-.378 1.222-.751.271-.374.349-.82.218-1.241-.131-.421-.46-.782-.915-1.004a2.377 2.377 0 00-1.511-.179 2.159 2.159 0 00-.723.268 1.738 1.738 0 00-.53.483 1.329 1.329 0 00-.178 1.265z"/><path id="p3" opacity=".9" d="M354.735 186.725c.09.295.318.548.635.705.318.156.698.202 1.056.129.359-.074.668-.262.858-.522a.973.973 0 00.158-.867 1.072 1.072 0 00-.233-.404 1.346 1.346 0 00-.403-.301 1.63 1.63 0 00-.513-.151 1.706 1.706 0 00-.543.022 1.566 1.566 0 00-.492.191c-.148.09-.272.202-.366.331a1.027 1.027 0 00-.184.421.937.937 0 00.027.446z"/><path id="p9" opacity=".9" d="M359.471 158.071c1.228 0 2.224-.817 2.224-1.826 0-1.008-.996-1.825-2.224-1.825-1.228 0-2.223.817-2.223 1.825 0 1.009.995 1.826 2.223 1.826z"/><path id="p10" opacity=".9" d="M354.406 138.053c.131.421.46.782.915 1.004.455.221.999.286 1.512.178.512-.107.952-.377 1.222-.751s.349-.82.218-1.241a1.548 1.548 0 00-.336-.577 1.928 1.928 0 00-.579-.427 2.297 2.297 0 00-.734-.213 2.447 2.447 0 00-.778.034 2.21 2.21 0 00-.702.276c-.21.129-.386.291-.52.476a1.448 1.448 0 00-.259.602c-.038.213-.024.43.041.639z"/><path id="p6" opacity=".9" d="M349.012 174.756c.06.209.172.405.328.578.155.173.352.318.578.426.226.108.476.178.736.204.26.027.523.01.775-.049.512-.108.952-.378 1.222-.752.271-.373.349-.82.218-1.241-.131-.421-.46-.782-.915-1.004a2.37 2.37 0 00-1.511-.178 2.157 2.157 0 00-.723.267 1.75 1.75 0 00-.53.483 1.331 1.331 0 00-.178 1.266z"/><path id="p7" opacity=".9" d="M354.735 165.977c.066.22.21.418.414.571.204.152.459.252.731.285.273.034.552 0 .801-.097.25-.097.459-.252.6-.447a.978.978 0 00.195-.645 1.023 1.023 0 00-.275-.625 1.4 1.4 0 00-.652-.394 1.665 1.665 0 00-.809-.029 1.54 1.54 0 00-.491.187 1.25 1.25 0 00-.365.33.998.998 0 00-.18.419.933.933 0 00.031.445z"/></g></g></g></g></g><g id="Asset 2 2"><g id="Group_6"><g id="Layer 2_2"><g id="—ÎÓÈ_1_2"><g id="Group_7" opacity=".5"><path id="Vector_89" style="mix-blend-mode:lighten" opacity=".4" d="M-14.59 381.714L-88 346.519l146.048-69.151 73.43 35.195-146.067 69.151z" fill="url(#paint16_linear)"/><path id="Vector_90" style="mix-blend-mode:lighten" opacity=".4" d="M278.551 382l73.43-35.211-146.048-69.151-73.43 35.211L278.551 382z" fill="url(#paint17_linear)"/></g><g id="Group_8" opacity=".5"><path id="Vector_91" style="mix-blend-mode:lighten" opacity=".4" d="M-14.551 174.006l-73.43 35.21 146.067 69.152 73.411-35.211-146.048-69.151z" fill="url(#paint18_linear)"/><path id="Vector_92" style="mix-blend-mode:lighten" opacity=".4" d="M278.589 173.736L352 208.931l-146.048 69.151-73.43-35.195 146.067-69.151z" fill="url(#paint19_linear)"/></g><path id="Vector_93" d="M131.478 313.42L56.52 277.876l74.958-35.528 74.957 35.528-74.957 35.544z" fill="#312A91"/><path id="Vector_94" d="M131.478 303.197L56.52 267.652l74.958-35.528 74.957 35.528-74.957 35.545z" fill="#312A91"/><path id="Vector_95" style="mix-blend-mode:lighten" opacity=".7" d="M131.478 295.084l-57.866-27.432 57.866-27.432 57.866 27.432-57.866 27.432z" fill="url(#paint20_linear)"/><path id="Vector_96" d="M206.435 267.652v10.224l-74.957 35.544v-10.224l74.957-35.544z" fill="url(#paint21_linear)"/><path id="Vector_97" d="M56.52 267.652v10.224l74.958 35.544v-10.224L56.52 267.652z" fill="#312A91"/><path id="Vector_98" style="mix-blend-mode:lighten" opacity=".7" d="M56.52 267.652v10.224l74.958 35.544v-10.224L56.52 267.652z" fill="url(#paint22_linear)"/><path id="Vector_99" d="M131.478 160.544L56.52 125.016l74.958-35.529 74.957 35.529-74.957 35.528z" fill="#312A91"/><path id="Vector_100" d="M131.478 150.32L56.52 114.792l74.958-35.528 74.957 35.528-74.957 35.528z" fill="#312A91"/><path id="Vector_101" style="mix-blend-mode:lighten" opacity=".7" d="M131.478 150.32L56.52 114.792l74.958-35.528 74.957 35.528-74.957 35.528z" fill="url(#paint23_linear)"/><path id="Vector_102" opacity=".3" d="M131.478 127.952l-27.744-13.16 27.744-13.16 27.744 13.16-27.744 13.16z" fill="#42E8E0"/><path id="Vector_103" opacity=".3" d="M131.478 110.569l18.328 8.684 9.416-4.461-27.744-13.16-27.744 13.16 9.415 4.461 18.329-8.684z" fill="#42E8E0"/><path id="Vector_104" d="M131.478 110.569l18.328 8.684 9.416-4.461-27.744-13.16-27.744 13.16 9.415 4.461 18.329-8.684z" fill="#42E8E0"/><path id="Vector_105" d="M206.435 114.792v10.224l-74.957 35.528V150.32l74.957-35.528z" fill="url(#paint24_linear)"/><path id="Vector_106" d="M56.52 114.792v10.224l74.958 35.528V150.32L56.52 114.792z" fill="#312A91"/><path id="Vector_107" style="mix-blend-mode:lighten" opacity=".7" d="M56.52 114.792v10.224l74.958 35.528V150.32L56.52 114.792z" fill="url(#paint25_linear)"/><path id="Vector_108" opacity=".3" d="M131.478 160.544v142.653L56.52 267.652V125.016l74.958 35.528z" fill="#42E8E0"/><path id="Vector_109" opacity=".3" d="M73.612 133.112v134.54l57.866 27.432 57.866-27.432v-134.54l-57.866 27.432-57.866-27.432z" fill="#42E8E0"/><path id="Vector_110" opacity=".3" d="M131.478 160.544v134.54l-57.866-27.432v-134.54l57.866 27.432z" fill="#42E8E0"/><g id="Group_9" opacity=".7"><path id="Vector_111" opacity=".7" d="M131.478 240.078L73.612 212.63l57.866-27.432 57.866 27.432-57.866 27.448z" fill="url(#paint26_linear)"/><path id="Vector_112" opacity=".7" d="M189.344 212.63v55.023l-57.866 27.431v-55.006l57.866-27.448z" fill="url(#paint27_linear)"/><path id="Vector_113" opacity=".7" d="M73.612 212.63v55.023l57.866 27.431v-55.006L73.612 212.63z" fill="url(#paint28_linear)"/></g><path id="Vector_114" opacity=".5" d="M56.52 125.016v142.636l74.958 35.545 74.957-35.545V125.016l-74.957 35.528-74.958-35.528z" fill="#5CFFF3"/><path id="Vector_115" style="mix-blend-mode:lighten" d="M58.3 114.792l74.067-35.115-.889-.413-74.958 35.528 74.958 35.528.889-.412-74.068-35.116z" fill="url(#paint29_linear)"/><path id="Vector_116" opacity=".5" d="M56.52 125.016v142.636l1.025.493V125.508l-1.025-.492z" fill="#42E8E0"/><path id="Vector_117" opacity=".5" d="M206.435 125.016v142.636l-1.044.493V125.508l1.044-.492z" fill="#42E8E0"/><path id="Vector_118" opacity=".5" d="M131.478 160.544l-1.779-.842v142.669l1.779.826 1.779-.826V159.702l-1.779.842z" fill="#42E8E0"/><path id="Vector_119" style="mix-blend-mode:lighten" opacity=".7" d="M159.222 114.792L199.823 0H63.133l40.601 114.792 27.744 13.16 27.744-13.16z" fill="url(#paint30_linear)"/><path id="Vector_120" style="mix-blend-mode:lighten" opacity=".7" d="M159.222 114.792L182.635 0H78.677l25.057 114.792 27.744 13.16 27.744-13.16z" fill="url(#paint31_linear)"/><path id="Vector_121" opacity=".3" d="M110.791 85.265a.99.99 0 01-.232.626c-.15.185-.365.33-.616.415a1.65 1.65 0 01-.793.064 1.487 1.487 0 01-.703-.308 1.082 1.082 0 01-.375-.578.94.94 0 01.078-.65c.104-.207.28-.383.505-.507.226-.123.492-.19.763-.19.364 0 .713.12.971.33.257.212.402.499.402.798z" fill="#42E8E0"/><path id="Vector_122" opacity=".2" d="M120.4 72.501c0 .303-.147.594-.408.808a1.559 1.559 0 01-.984.335c-.371 0-.728-.12-.992-.334-.264-.214-.415-.504-.42-.809 0-.307.149-.602.414-.82.264-.217.623-.339.998-.339.371.004.725.128.985.345.261.217.407.51.407.814z" fill="#42E8E0"/><path id="Vector_123" opacity=".2" d="M160.073 69.04c.491 0 .889-.327.889-.73 0-.403-.398-.73-.889-.73s-.89.327-.89.73c0 .403.399.73.89.73z" fill="#42E8E0"/><path id="Vector_124" opacity=".2" d="M158.681 64.516c0 .314-.114.62-.326.882a1.9 1.9 0 01-.868.585c-.353.12-.742.151-1.117.09a2.097 2.097 0 01-.99-.434 1.53 1.53 0 01-.529-.813 1.33 1.33 0 01.11-.917 1.7 1.7 0 01.712-.713 2.245 2.245 0 011.074-.267c.513 0 1.005.167 1.367.464.363.298.567.702.567 1.123z" fill="#42E8E0"/><path id="Vector_125" opacity=".2" d="M115.199 70.93c.491 0 .889-.327.889-.73 0-.404-.398-.731-.889-.731s-.889.327-.889.73c0 .404.398.73.889.73z" fill="#42E8E0"/><path id="Vector_126" opacity=".3" d="M113.633 106.997c.758 0 1.373-.504 1.373-1.127 0-.622-.615-1.127-1.373-1.127s-1.373.505-1.373 1.127c0 .623.615 1.127 1.373 1.127z" fill="#42E8E0"/><path id="Vector_127" opacity=".2" d="M124.673 93.107c0 .305-.146.597-.407.814-.261.217-.615.34-.986.345-.374 0-.733-.122-.997-.34-.265-.217-.414-.512-.414-.82.005-.304.156-.594.42-.808.264-.214.621-.334.991-.334s.724.12.985.335c.261.214.408.505.408.808z" fill="#42E8E0"/><path id="Vector_128" opacity=".2" d="M119.414 91.535c.491 0 .889-.327.889-.73 0-.403-.398-.73-.889-.73s-.89.327-.89.73c0 .403.399.73.89.73z" fill="#42E8E0"/><path id="Vector_129" opacity=".3" d="M153.383 63.88c.091.248.294.456.567.583.273.127.595.162.899.098.304-.063.567-.22.733-.439a.853.853 0 00-.033-1.102 1.158 1.158 0 00-.354-.276 1.393 1.393 0 00-.458-.14 1.481 1.481 0 00-.488.019 1.34 1.34 0 00-.439.174c-.131.082-.24.185-.321.303a.838.838 0 00-.106.781z" fill="#42E8E0"/><path id="Vector_130" opacity=".2" d="M141.686 54.626c.059.2.189.38.374.519.185.138.416.228.663.258.247.03.5 0 .726-.089.226-.088.414-.23.541-.407a.889.889 0 00.172-.586.928.928 0 00-.256-.565 1.28 1.28 0 00-.597-.35 1.516 1.516 0 00-1.169.154c-.129.08-.239.18-.321.295a.904.904 0 00-.16.375.845.845 0 00.027.396z" fill="#42E8E0"/><path id="Vector_131" opacity=".2" d="M105.667 58.34a.58.58 0 00.113.256.727.727 0 00.23.196.899.899 0 00.306.101c.11.016.223.012.331-.01a.878.878 0 00.297-.12.708.708 0 00.211-.21.546.546 0 00.04-.53.713.713 0 00-.375-.348.95.95 0 00-.562-.054.81.81 0 00-.463.267.564.564 0 00-.128.453z" fill="#42E8E0"/><path id="Vector_132" opacity=".2" d="M106.634 54.658c.101.339.36.632.722.816.361.184.796.244 1.211.168.21-.044.407-.121.58-.227.173-.107.319-.24.429-.392.111-.153.183-.322.214-.498.031-.175.02-.354-.034-.526a1.264 1.264 0 00-.276-.476 1.588 1.588 0 00-.478-.353 1.892 1.892 0 00-.605-.175 1.999 1.999 0 00-.642.028c-.411.096-.76.321-.97.628-.21.306-.264.668-.151 1.007z" fill="#42E8E0"/><path id="Vector_133" opacity=".2" d="M144.78 51.864a.682.682 0 00.363.402c.181.09.398.116.603.074a.806.806 0 00.491-.298.555.555 0 00.089-.496.697.697 0 00-.366-.398.964.964 0 00-.6-.078.887.887 0 00-.283.108.72.72 0 00-.209.19.54.54 0 00-.088.496z" fill="#42E8E0"/><path id="Vector_134" opacity=".2" d="M154.35 106.585a1.054 1.054 0 01-.981.095.836.836 0 01-.372-.293.624.624 0 01.076-.809.91.91 0 01.422-.243c.167-.045.347-.048.516-.009a.923.923 0 01.436.227.717.717 0 01.171.249.61.61 0 01-.053.558.778.778 0 01-.215.225z" fill="#42E8E0"/><path id="Vector_135" opacity=".2" d="M156.399 102.695a2.13 2.13 0 01-1.029.399 2.316 2.316 0 01-1.125-.146 1.84 1.84 0 01-.829-.641 1.355 1.355 0 01-.246-.913c.031-.317.178-.62.421-.868.244-.248.573-.43.944-.523.372-.092.768-.09 1.139.004.37.095.697.28.938.529.304.315.451.714.412 1.114-.04.401-.263.775-.625 1.045z" fill="#42E8E0"/><path id="Vector_136" opacity=".3" d="M153.557 98.965a.89.89 0 00-.222.55.875.875 0 00.187.56c.129.167.314.299.534.38.22.08.464.106.701.072a1.33 1.33 0 00.632-.259.978.978 0 00.351-.504.834.834 0 00-.049-.578 1.057 1.057 0 00-.432-.46 1.37 1.37 0 00-.435-.16 1.479 1.479 0 00-.476-.01 1.39 1.39 0 00-.445.14c-.136.07-.253.161-.346.269z" fill="#42E8E0"/><path id="Vector_137" opacity=".2" d="M154.582 85.725a.844.844 0 00-.053.663c.073.22.234.413.457.549.223.135.495.205.773.199.277-.007.543-.09.756-.236a.94.94 0 00.203-.36.832.832 0 00.015-.397.904.904 0 00-.173-.37 1.117 1.117 0 00-.335-.286 1.462 1.462 0 00-.878-.143c-.304.044-.577.18-.765.381z" fill="#42E8E0"/><path id="Vector_138" opacity=".2" d="M159.145 85.804a.576.576 0 00-.133.493.665.665 0 00.326.428c.085.05.181.086.283.106a.969.969 0 00.602-.082.757.757 0 00.227-.175.609.609 0 00.128-.232.537.537 0 00.01-.255.59.59 0 00-.109-.24.743.743 0 00-.213-.185.879.879 0 00-.284-.111.956.956 0 00-.608.077.747.747 0 00-.229.176z" fill="#42E8E0"/><g id="Group_10" opacity=".9" fill="#42E8E0"><path id="Vector_139" opacity=".9" d="M127.012 118.253c.1.3.306.569.591.774a2.16 2.16 0 001.013.378 2.32 2.32 0 001.099-.143c.341-.136.627-.35.821-.617.194-.267.288-.575.271-.886a1.414 1.414 0 00-.368-.862 1.936 1.936 0 00-.886-.553 2.345 2.345 0 00-1.111-.06 2.154 2.154 0 00-.704.264 1.743 1.743 0 00-.522.47 1.409 1.409 0 00-.256.6 1.32 1.32 0 00.052.635z"/><path id="Vector_140" opacity=".9" d="M132.734 109.537c.046.146.126.283.237.404.11.12.248.222.406.298.158.077.333.127.514.149.182.021.367.012.545-.025.178-.038.345-.104.491-.194.147-.091.271-.204.364-.334a1.01 1.01 0 00.18-.422.942.942 0 00-.03-.447c-.092-.295-.323-.547-.642-.702a1.67 1.67 0 00-1.059-.124c-.359.076-.667.266-.855.528a.971.971 0 00-.151.869z"/></g><path id="Vector_141" opacity=".3" d="M110.791 64.516a.99.99 0 01-.232.626c-.15.186-.365.33-.616.415a1.65 1.65 0 01-.793.064 1.487 1.487 0 01-.703-.308 1.081 1.081 0 01-.375-.577.94.94 0 01.078-.651c.104-.206.28-.382.505-.506.226-.124.492-.19.763-.19.364 0 .713.119.971.33.257.211.402.498.402.797z" fill="#42E8E0"/><path id="Vector_142" opacity=".2" d="M120.4 51.737c0 .304-.146.597-.407.813-.26.217-.614.341-.985.346-.375 0-.734-.123-.998-.34-.265-.217-.414-.512-.414-.82.005-.304.156-.595.42-.809.264-.213.621-.333.992-.333.369 0 .723.12.984.334.261.215.408.506.408.809z" fill="#42E8E0"/><path id="Vector_143" opacity=".2" d="M160.962 47.625a.64.64 0 01-.15.406.872.872 0 01-.399.269 1.07 1.07 0 01-.514.041.962.962 0 01-.455-.2.703.703 0 01-.244-.374.614.614 0 01.051-.422.778.778 0 01.328-.327 1.03 1.03 0 01.494-.123c.117-.003.234.015.343.05.109.037.208.09.291.159.084.068.149.15.193.239.043.09.065.185.062.282z" fill="#42E8E0"/><path id="Vector_144" opacity=".2" d="M158.681 43.767c0 .314-.114.621-.326.882a1.902 1.902 0 01-.868.585c-.353.12-.742.152-1.117.09a2.095 2.095 0 01-.99-.434 1.529 1.529 0 01-.529-.813 1.331 1.331 0 01.11-.917c.146-.29.394-.538.712-.713a2.244 2.244 0 011.074-.267c.513 0 1.005.167 1.367.465.363.297.567.701.567 1.122z" fill="#42E8E0"/><path id="Vector_145" opacity=".2" d="M115.199 50.18c.491 0 .889-.326.889-.73 0-.403-.398-.73-.889-.73s-.889.327-.889.73c0 .404.398.73.889.73z" fill="#42E8E0"/><path id="Vector_146" opacity=".3" d="M115.006 85.122a.99.99 0 01-.232.626 1.35 1.35 0 01-.616.415 1.652 1.652 0 01-.793.064 1.488 1.488 0 01-.703-.308 1.082 1.082 0 01-.375-.577.94.94 0 01.078-.652c.104-.206.28-.382.505-.505.226-.124.491-.19.763-.19.364 0 .713.118.971.33.257.211.402.498.402.797z" fill="#42E8E0"/><path id="Vector_147" opacity=".2" d="M123.222 73.501c.769 0 1.392-.511 1.392-1.143 0-.631-.623-1.143-1.392-1.143-.768 0-1.392.512-1.392 1.143 0 .632.624 1.143 1.392 1.143z" fill="#42E8E0"/><path id="Vector_148" opacity=".2" d="M119.414 70.787c.491 0 .889-.327.889-.73 0-.404-.398-.73-.889-.73s-.89.326-.89.73c0 .403.399.73.89.73z" fill="#42E8E0"/><path id="Vector_149" opacity=".3" d="M153.383 43.132a.957.957 0 00.208.352c.097.104.218.192.356.259a1.478 1.478 0 00.925.104c.155-.034.3-.092.428-.171.127-.08.235-.179.315-.292a.833.833 0 00.127-.76.93.93 0 00-.208-.351 1.182 1.182 0 00-.356-.26 1.477 1.477 0 00-1.357.063 1.094 1.094 0 00-.319.294.827.827 0 00-.119.763z" fill="#42E8E0"/><path id="Vector_150" opacity=".2" d="M141.686 33.877c.059.2.189.38.374.519s.416.229.663.259c.247.03.5-.001.726-.09.226-.088.414-.23.541-.407a.89.89 0 00.172-.586.929.929 0 00-.256-.565 1.28 1.28 0 00-.597-.35 1.516 1.516 0 00-1.169.154c-.129.08-.239.18-.321.296a.904.904 0 00-.16.374.845.845 0 00.027.396z" fill="#42E8E0"/><path id="Vector_151" opacity=".2" d="M105.667 37.592c.037.126.118.24.235.328a.87.87 0 00.417.165c.157.02.316 0 .459-.055a.76.76 0 00.343-.257.565.565 0 00.109-.37.59.59 0 00-.162-.357.806.806 0 00-.377-.221.956.956 0 00-.463-.01.794.794 0 00-.472.295.555.555 0 00-.089.482z" fill="#42E8E0"/><path id="Vector_152" opacity=".2" d="M106.634 33.91c.106.336.366.627.726.81.36.184.793.246 1.207.173.409-.09.76-.304.982-.599.223-.295.3-.648.217-.988-.109-.334-.371-.621-.731-.801-.36-.18-.79-.24-1.202-.168-.409.083-.763.294-.987.587a1.14 1.14 0 00-.212.985z" fill="#42E8E0"/><path id="Vector_153" opacity=".2" d="M144.78 31.115a.639.639 0 00.237.322.88.88 0 00.416.16c.155.02.313 0 .454-.055a.758.758 0 00.34-.254.556.556 0 00-.041-.72.8.8 0 00-.368-.226.955.955 0 00-.741.087.723.723 0 00-.209.19.54.54 0 00-.088.496z" fill="#42E8E0"/><path id="Vector_154" opacity=".2" d="M154.35 85.82a.973.973 0 01-.462.163 1.04 1.04 0 01-.496-.075.815.815 0 01-.361-.287.611.611 0 01.075-.788.887.887 0 01.411-.238c.163-.044.338-.048.504-.01a.915.915 0 01.426.22.703.703 0 01.17.244.598.598 0 01-.053.551.768.768 0 01-.214.22z" fill="#42E8E0"/><path id="Vector_155" opacity=".2" d="M156.399 81.93c-.381.138-.805.17-1.21.093a2.038 2.038 0 01-1.038-.519 1.45 1.45 0 01-.456-.925c-.027-.34.081-.68.307-.966.164-.208.385-.381.645-.506s.552-.199.853-.215c.3-.016.602.026.879.123.278.097.524.245.719.434.195.188.334.412.405.652.071.24.073.492.005.733a1.494 1.494 0 01-.396.656c-.193.19-.437.342-.713.44z" fill="#42E8E0"/><path id="Vector_156" opacity=".3" d="M153.557 78.216a.89.89 0 00-.222.55.874.874 0 00.187.56c.129.167.314.3.534.38.22.08.464.106.701.073.237-.033.457-.124.632-.26a.977.977 0 00.351-.503.834.834 0 00-.049-.579 1.056 1.056 0 00-.432-.459 1.37 1.37 0 00-.435-.16 1.476 1.476 0 00-.476-.011c-.158.022-.309.07-.445.14s-.253.162-.346.27z" fill="#42E8E0"/><path id="Vector_157" opacity=".2" d="M154.582 64.913a.893.893 0 00-.216.56.89.89 0 00.198.564c.133.168.322.3.546.38.223.08.47.104.71.07.24-.036.462-.128.638-.266a.993.993 0 00.353-.511.854.854 0 00-.051-.586 1.075 1.075 0 00-.438-.465 1.48 1.48 0 00-.934-.167 1.311 1.311 0 00-.806.42z" fill="#42E8E0"/><path id="Vector_158" opacity=".2" d="M159.145 65.088a.576.576 0 00-.133.492.664.664 0 00.326.428c.085.05.181.086.283.106a.969.969 0 00.602-.082.754.754 0 00.227-.175.607.607 0 00.128-.232.537.537 0 00.01-.255.59.59 0 00-.109-.24.743.743 0 00-.213-.185.879.879 0 00-.284-.111.956.956 0 00-.608.077.747.747 0 00-.229.177z" fill="#42E8E0"/><path id="Vector_159" opacity=".3" d="M110.791 43.767a.99.99 0 01-.232.627c-.15.185-.365.33-.616.415a1.65 1.65 0 01-.793.064 1.487 1.487 0 01-.703-.309 1.082 1.082 0 01-.375-.577.94.94 0 01.078-.651c.104-.206.28-.382.505-.506.226-.124.492-.19.763-.19.364 0 .713.119.971.33.257.212.402.498.402.797z" fill="#42E8E0"/><path id="Vector_160" opacity=".2" d="M120.4 30.988c0 .305-.146.597-.407.814-.26.217-.614.34-.985.345-.375 0-.734-.122-.998-.34-.265-.217-.414-.512-.414-.819.005-.305.156-.595.42-.81.264-.213.621-.333.992-.333.369 0 .723.12.984.335.261.214.408.505.408.808z" fill="#42E8E0"/><path id="Vector_161" opacity=".2" d="M160.073 27.543c.491 0 .889-.327.889-.73 0-.403-.398-.73-.889-.73s-.89.327-.89.73c0 .403.399.73.89.73z" fill="#42E8E0"/><path id="Vector_162" opacity=".2" d="M158.681 23.003c0 .314-.114.62-.326.882a1.902 1.902 0 01-.868.585c-.353.12-.742.151-1.117.09a2.096 2.096 0 01-.99-.435 1.529 1.529 0 01-.529-.812 1.331 1.331 0 01.11-.918 1.7 1.7 0 01.712-.712 2.245 2.245 0 011.074-.268c.513 0 1.005.168 1.367.465.363.298.567.702.567 1.123z" fill="#42E8E0"/><path id="Vector_163" opacity=".2" d="M115.199 29.416c.491 0 .889-.327.889-.73 0-.403-.398-.73-.889-.73s-.889.327-.889.73c0 .403.398.73.889.73z" fill="#42E8E0"/><path id="Vector_164" opacity=".3" d="M115.006 64.373a.99.99 0 01-.232.626 1.35 1.35 0 01-.616.415 1.654 1.654 0 01-.793.065 1.488 1.488 0 01-.703-.309 1.081 1.081 0 01-.375-.577.94.94 0 01.078-.651c.104-.206.28-.382.505-.506.226-.124.491-.19.763-.19.364 0 .713.119.971.33.257.212.402.498.402.797z" fill="#42E8E0"/><path id="Vector_165" opacity=".2" d="M124.673 51.61c0 .303-.147.593-.408.808a1.56 1.56 0 01-.985.335c-.37 0-.727-.12-.991-.334-.264-.214-.415-.505-.42-.81 0-.307.149-.601.414-.819.264-.217.623-.34.997-.34.371.005.725.129.986.346.261.217.407.51.407.814z" fill="#42E8E0"/><path id="Vector_166" opacity=".2" d="M119.414 50.038c.491 0 .889-.327.889-.73 0-.404-.398-.73-.889-.73s-.89.326-.89.73c0 .403.399.73.89.73z" fill="#42E8E0"/><path id="Vector_167" opacity=".3" d="M153.383 22.368a.91.91 0 00.197.355c.094.107.213.196.35.265a1.454 1.454 0 00.923.11c.161-.027.313-.081.448-.159.135-.077.25-.176.337-.29a.909.909 0 00.171-.376.837.837 0 00-.023-.4.944.944 0 00-.213-.361 1.176 1.176 0 00-.369-.264 1.477 1.477 0 00-.951-.087 1.32 1.32 0 00-.426.166 1.08 1.08 0 00-.316.288.877.877 0 00-.156.366.82.82 0 00.028.387z" fill="#42E8E0"/><path id="Vector_168" opacity=".2" d="M141.686 13.129c.059.2.189.38.374.518.185.139.416.23.663.26.247.03.5-.002.726-.09.226-.088.414-.23.541-.407a.889.889 0 00.172-.586.929.929 0 00-.256-.565 1.276 1.276 0 00-.597-.351 1.518 1.518 0 00-.733-.018 1.352 1.352 0 00-.44.169c-.131.08-.242.18-.325.296a.84.84 0 00-.125.774z" fill="#42E8E0"/><path id="Vector_169" opacity=".2" d="M105.667 16.843c.069.15.202.274.375.348a.95.95 0 00.562.055.81.81 0 00.463-.268.564.564 0 00.128-.452.58.58 0 00-.113-.256.727.727 0 00-.23-.195.894.894 0 00-.306-.102.966.966 0 00-.331.01.88.88 0 00-.297.12.71.71 0 00-.211.21.546.546 0 00-.04.53z" fill="#42E8E0"/><path id="Vector_170" opacity=".2" d="M106.634 13.16c.106.338.366.628.726.812.36.183.793.245 1.207.173.229-.03.448-.097.643-.2a1.56 1.56 0 00.49-.396c.128-.159.214-.337.253-.525.039-.187.029-.38-.027-.564a1.285 1.285 0 00-.303-.506 1.63 1.63 0 00-.526-.363 2.008 2.008 0 00-1.342-.082c-.413.1-.761.329-.971.638-.21.308-.264.672-.15 1.013z" fill="#42E8E0"/><path id="Vector_171" opacity=".2" d="M144.78 10.366a.639.639 0 00.237.323.88.88 0 00.416.16c.155.018.313 0 .454-.056a.758.758 0 00.34-.253.556.556 0 00-.041-.721.8.8 0 00-.368-.226.955.955 0 00-.458-.02.889.889 0 00-.283.108.723.723 0 00-.209.19.54.54 0 00-.088.496z" fill="#42E8E0"/><path id="Vector_172" opacity=".2" d="M154.35 65.088a.938.938 0 01-.298.139 1.053 1.053 0 01-.671-.043.856.856 0 01-.268-.176.695.695 0 01-.171-.249.603.603 0 01.052-.558.772.772 0 01.215-.225c.182-.102.404-.145.623-.121a.955.955 0 01.56.253.654.654 0 01.209.496.673.673 0 01-.251.484z" fill="#42E8E0"/><path id="Vector_173" opacity=".2" d="M156.399 61.182c-.381.137-.805.17-1.21.093a2.038 2.038 0 01-1.038-.52 1.45 1.45 0 01-.456-.925c-.027-.34.081-.68.307-.966.164-.207.385-.38.645-.506a2.31 2.31 0 011.732-.092c.278.097.524.245.719.434.195.189.334.412.405.653.071.24.073.491.005.732a1.494 1.494 0 01-.396.657c-.193.19-.437.341-.713.44z" fill="#42E8E0"/><path id="Vector_174" opacity=".3" d="M153.557 57.452a.878.878 0 00-.2.747c.054.26.23.494.49.65.13.077.277.132.432.163.156.03.317.035.475.015.158-.02.31-.067.446-.136.136-.068.255-.158.349-.265a.875.875 0 00.2-.746 1.012 1.012 0 00-.49-.65 1.356 1.356 0 00-.432-.164 1.479 1.479 0 00-.475-.015c-.158.02-.31.067-.446.136a1.167 1.167 0 00-.349.265z" fill="#42E8E0"/><path id="Vector_175" opacity=".2" d="M154.582 44.148a.902.902 0 00-.204.762c.054.267.231.505.494.667.27.12.583.156.882.1.299-.057.563-.202.741-.407a.896.896 0 00.228-.707.982.982 0 00-.401-.653 1.476 1.476 0 00-.929-.173 1.318 1.318 0 00-.811.411z" fill="#42E8E0"/><path id="Vector_176" opacity=".2" d="M159.145 44.307a.576.576 0 00-.133.493.665.665 0 00.326.428.97.97 0 00.566.056.834.834 0 00.472-.263.578.578 0 00.144-.453.63.63 0 00-.254-.42.954.954 0 00-.6-.109.848.848 0 00-.521.268z" fill="#42E8E0"/><g id="Lewe kropki" fill="#42E8E0"><path id="l1" opacity=".9" d="M137.471 101.568c1.228 0 2.224-.817 2.224-1.825 0-1.009-.996-1.826-2.224-1.826-1.228 0-2.223.817-2.223 1.826 0 1.008.995 1.825 2.223 1.825z"/><path id="l4" opacity=".9" d="M132.406 81.55c.101.3.306.569.592.774.285.204.637.336 1.012.378.376.041.758-.008 1.099-.143.342-.135.627-.35.821-.617.194-.267.289-.575.271-.886a1.416 1.416 0 00-.368-.862 1.939 1.939 0 00-.886-.553 2.333 2.333 0 00-1.11-.06 2.157 2.157 0 00-.705.264 1.757 1.757 0 00-.522.47 1.408 1.408 0 00-.256.6c-.035.213-.017.428.052.635z"/><path id="l5" opacity=".9" d="M137.471 80.82c1.228 0 2.224-.818 2.224-1.826s-.996-1.826-2.224-1.826c-1.228 0-2.223.818-2.223 1.826s.995 1.826 2.223 1.826z"/><path id="l8" opacity=".9" d="M132.406 60.801c.101.3.306.57.592.774.285.205.637.336 1.012.378.376.042.758-.008 1.099-.143.342-.135.627-.35.821-.617.194-.267.289-.575.271-.886a1.416 1.416 0 00-.368-.862 1.939 1.939 0 00-.886-.552 2.333 2.333 0 00-1.11-.06 2.16 2.16 0 00-.705.264 1.757 1.757 0 00-.522.47 1.409 1.409 0 00-.256.6c-.035.212-.017.428.052.634z"/><path id="l2" opacity=".9" d="M127.012 97.504c.06.21.172.406.328.579.155.172.352.317.578.425.226.109.476.178.736.205.26.027.523.01.775-.05.512-.107.952-.377 1.222-.751.271-.374.349-.82.218-1.241-.131-.421-.46-.782-.915-1.004a2.375 2.375 0 00-1.511-.179 2.158 2.158 0 00-.723.268c-.215.129-.396.293-.53.483a1.33 1.33 0 00-.178 1.265z"/><path id="l3" opacity=".9" d="M132.735 88.725c.09.295.318.548.635.705.318.156.698.202 1.056.129.359-.074.668-.262.858-.522a.972.972 0 00.158-.867 1.08 1.08 0 00-.233-.404 1.338 1.338 0 00-.403-.3 1.686 1.686 0 00-1.056-.129 1.542 1.542 0 00-.492.19c-.148.09-.272.202-.366.331a1.027 1.027 0 00-.184.42.939.939 0 00.027.447z"/><path id="l9" opacity=".9" d="M137.471 60.071c1.228 0 2.224-.817 2.224-1.826 0-1.008-.996-1.825-2.224-1.825-1.228 0-2.223.817-2.223 1.825 0 1.009.995 1.826 2.223 1.826z"/><path id="l10" opacity=".9" d="M132.406 40.053c.131.42.46.782.915 1.004.455.221.999.286 1.512.178.512-.107.952-.377 1.222-.75.27-.374.349-.821.218-1.242a1.538 1.538 0 00-.336-.577 1.923 1.923 0 00-.579-.427 2.294 2.294 0 00-.734-.213 2.427 2.427 0 00-.778.034 2.216 2.216 0 00-.702.276c-.21.129-.386.29-.52.476-.134.184-.222.39-.259.602-.038.213-.024.43.041.639z"/><path id="l6" opacity=".9" d="M127.012 76.756c.06.209.172.406.328.578.155.173.352.318.578.426.226.108.476.178.736.204.26.027.523.01.775-.05.512-.107.952-.377 1.222-.75.271-.374.349-.82.218-1.242-.131-.42-.46-.782-.915-1.004a2.376 2.376 0 00-1.511-.178 2.163 2.163 0 00-.723.267 1.75 1.75 0 00-.53.483 1.33 1.33 0 00-.178 1.265z"/><path id="l7" opacity=".9" d="M132.735 67.977c.066.22.21.418.414.57.204.153.459.253.731.286.273.034.552 0 .801-.097.25-.097.459-.252.6-.447a.98.98 0 00.195-.645 1.024 1.024 0 00-.275-.625 1.407 1.407 0 00-.652-.394 1.682 1.682 0 00-1.3.159 1.25 1.25 0 00-.365.329 1.002 1.002 0 00-.18.42.931.931 0 00.031.444z"/></g></g></g></g></g></g><defs><linearGradient id="paint0_linear" x1="192.509" y1="451.531" x2="237.416" y2="355.13" gradientUnits="userSpaceOnUse"><stop stop-color="#180D5B"/><stop offset=".09" stop-color="#1A1660"/><stop offset=".25" stop-color="#1E2D6E"/><stop offset=".44" stop-color="#255385"/><stop offset=".66" stop-color="#2F87A5"/><stop offset=".9" stop-color="#3CCACE"/><stop offset="1" stop-color="#42E8E0"/></linearGradient><linearGradient id="paint1_linear" x1="235486" y1="-37592.2" x2="232515" y2="-43934.2" gradientUnits="userSpaceOnUse"><stop stop-color="#180D5B"/><stop offset=".09" stop-color="#1A1660"/><stop offset=".25" stop-color="#1E2D6E"/><stop offset=".44" stop-color="#255385"/><stop offset=".66" stop-color="#2F87A5"/><stop offset=".9" stop-color="#3CCACE"/><stop offset="1" stop-color="#42E8E0"/></linearGradient><linearGradient id="paint2_linear" x1="38426.5" y1="-262953" x2="41397" y2="-256611" gradientUnits="userSpaceOnUse"><stop stop-color="#180D5B"/><stop offset=".09" stop-color="#1A1660"/><stop offset=".25" stop-color="#1E2D6E"/><stop offset=".44" stop-color="#255385"/><stop offset=".66" stop-color="#2F87A5"/><stop offset=".9" stop-color="#3CCACE"/><stop offset="1" stop-color="#42E8E0"/></linearGradient><linearGradient id="paint3_linear" x1="70174.3" y1="-249353" x2="67204.3" y2="-243012" gradientUnits="userSpaceOnUse"><stop stop-color="#180D5B"/><stop offset=".09" stop-color="#1A1660"/><stop offset=".25" stop-color="#1E2D6E"/><stop offset=".44" stop-color="#255385"/><stop offset=".66" stop-color="#2F87A5"/><stop offset=".9" stop-color="#3CCACE"/><stop offset="1" stop-color="#42E8E0"/></linearGradient><linearGradient id="paint4_linear" x1="19373" y1="11132.7" x2="14242.3" y2="5197.68" gradientUnits="userSpaceOnUse"><stop stop-color="#180D5B"/><stop offset=".09" stop-color="#1A1660"/><stop offset=".25" stop-color="#1E2D6E"/><stop offset=".44" stop-color="#255385"/><stop offset=".66" stop-color="#2F87A5"/><stop offset=".9" stop-color="#3CCACE"/><stop offset="1" stop-color="#42E8E0"/></linearGradient><linearGradient id="paint5_linear" x1="328.557" y1="388.528" x2="435.705" y2="388.528" gradientUnits="userSpaceOnUse"><stop stop-color="#2B237C"/><stop offset="1" stop-color="#180D5B"/></linearGradient><linearGradient id="paint6_linear" x1="361.308" y1="409.69" x2="274.03" y2="349.266" gradientUnits="userSpaceOnUse"><stop stop-color="#180D5B"/><stop offset=".1" stop-color="#1A1560"/><stop offset=".25" stop-color="#1E2D6E"/><stop offset=".28" stop-color="#1F3372"/><stop offset=".38" stop-color="#22447C"/><stop offset=".57" stop-color="#2B7097"/><stop offset=".83" stop-color="#39B7C2"/><stop offset="1" stop-color="#42E8E0"/></linearGradient><linearGradient id="paint7_linear" x1="21172.1" y1="6508.4" x2="16356.1" y2="-91.076" gradientUnits="userSpaceOnUse"><stop stop-color="#180D5B"/><stop offset=".09" stop-color="#1A1660"/><stop offset=".25" stop-color="#1E2D6E"/><stop offset=".44" stop-color="#255385"/><stop offset=".66" stop-color="#2F87A5"/><stop offset=".9" stop-color="#3CCACE"/><stop offset="1" stop-color="#42E8E0"/></linearGradient><linearGradient id="paint8_linear" x1="7896.44" y1="4180.38" x2="12050.6" y2="4180.38" gradientUnits="userSpaceOnUse"><stop stop-color="#2B237C"/><stop offset="1" stop-color="#180D5B"/></linearGradient><linearGradient id="paint9_linear" x1="8607.78" y1="4618.23" x2="6186.05" y2="2381.56" gradientUnits="userSpaceOnUse"><stop stop-color="#180D5B"/><stop offset=".1" stop-color="#1A1560"/><stop offset=".25" stop-color="#1E2D6E"/><stop offset=".28" stop-color="#1F3372"/><stop offset=".38" stop-color="#22447C"/><stop offset=".57" stop-color="#2B7097"/><stop offset=".83" stop-color="#39B7C2"/><stop offset="1" stop-color="#42E8E0"/></linearGradient><linearGradient id="paint10_linear" x1="22259.3" y1="8494.87" x2="10938.6" y2="3585.28" gradientUnits="userSpaceOnUse"><stop stop-color="#180D5B"/><stop offset=".09" stop-color="#1A1660"/><stop offset=".25" stop-color="#1E2D6E"/><stop offset=".44" stop-color="#255385"/><stop offset=".66" stop-color="#2F87A5"/><stop offset=".9" stop-color="#3CCACE"/><stop offset="1" stop-color="#42E8E0"/></linearGradient><linearGradient id="paint11_linear" x1="9371.35" y1="14961.2" x2="4211.77" y2="12609.5" gradientUnits="userSpaceOnUse"><stop stop-color="#180D5B"/><stop offset=".09" stop-color="#1A1660"/><stop offset=".25" stop-color="#1E2D6E"/><stop offset=".44" stop-color="#255385"/><stop offset=".66" stop-color="#2F87A5"/><stop offset=".9" stop-color="#3CCACE"/><stop offset="1" stop-color="#42E8E0"/></linearGradient><linearGradient id="paint12_linear" x1="10493.5" y1="15082.4" x2="6499.87" y2="13587.7" gradientUnits="userSpaceOnUse"><stop stop-color="#180D5B"/><stop offset=".09" stop-color="#1A1660"/><stop offset=".25" stop-color="#1E2D6E"/><stop offset=".44" stop-color="#255385"/><stop offset=".66" stop-color="#2F87A5"/><stop offset=".9" stop-color="#3CCACE"/><stop offset="1" stop-color="#42E8E0"/></linearGradient><linearGradient id="paint13_linear" x1="9868.58" y1="5522.84" x2="5929.97" y2="4573.13" gradientUnits="userSpaceOnUse"><stop stop-color="#180D5B"/><stop offset=".09" stop-color="#1A1660"/><stop offset=".25" stop-color="#1E2D6E"/><stop offset=".44" stop-color="#255385"/><stop offset=".66" stop-color="#2F87A5"/><stop offset=".9" stop-color="#3CCACE"/><stop offset="1" stop-color="#42E8E0"/></linearGradient><linearGradient id="paint14_linear" x1="353.478" y1="225.952" x2="353.478" y2="98" gradientUnits="userSpaceOnUse"><stop stop-color="#42E8E0"/><stop offset=".1" stop-color="#3CCACE"/><stop offset=".34" stop-color="#2F87A5"/><stop offset=".56" stop-color="#255385"/><stop offset=".75" stop-color="#1E2D6E"/><stop offset=".91" stop-color="#1A1660"/><stop offset="1" stop-color="#180D5B"/></linearGradient><linearGradient id="paint15_linear" x1="12058.3" y1="10411" x2="12058.3" y2="98" gradientUnits="userSpaceOnUse"><stop stop-color="#42E8E0"/><stop offset=".1" stop-color="#3CCACE"/><stop offset=".34" stop-color="#2F87A5"/><stop offset=".56" stop-color="#255385"/><stop offset=".75" stop-color="#1E2D6E"/><stop offset=".91" stop-color="#1A1660"/><stop offset="1" stop-color="#180D5B"/></linearGradient><linearGradient id="paint16_linear" x1="-29.491" y1="353.531" x2="15.416" y2="257.13" gradientUnits="userSpaceOnUse"><stop stop-color="#180D5B"/><stop offset=".09" stop-color="#1A1660"/><stop offset=".25" stop-color="#1E2D6E"/><stop offset=".44" stop-color="#255385"/><stop offset=".66" stop-color="#2F87A5"/><stop offset=".9" stop-color="#3CCACE"/><stop offset="1" stop-color="#42E8E0"/></linearGradient><linearGradient id="paint17_linear" x1="235264" y1="-37690.2" x2="232293" y2="-44032.2" gradientUnits="userSpaceOnUse"><stop stop-color="#180D5B"/><stop offset=".09" stop-color="#1A1660"/><stop offset=".25" stop-color="#1E2D6E"/><stop offset=".44" stop-color="#255385"/><stop offset=".66" stop-color="#2F87A5"/><stop offset=".9" stop-color="#3CCACE"/><stop offset="1" stop-color="#42E8E0"/></linearGradient><linearGradient id="paint18_linear" x1="38204.5" y1="-263051" x2="41175" y2="-256709" gradientUnits="userSpaceOnUse"><stop stop-color="#180D5B"/><stop offset=".09" stop-color="#1A1660"/><stop offset=".25" stop-color="#1E2D6E"/><stop offset=".44" stop-color="#255385"/><stop offset=".66" stop-color="#2F87A5"/><stop offset=".9" stop-color="#3CCACE"/><stop offset="1" stop-color="#42E8E0"/></linearGradient><linearGradient id="paint19_linear" x1="69952.3" y1="-249451" x2="66982.3" y2="-243110" gradientUnits="userSpaceOnUse"><stop stop-color="#180D5B"/><stop offset=".09" stop-color="#1A1660"/><stop offset=".25" stop-color="#1E2D6E"/><stop offset=".44" stop-color="#255385"/><stop offset=".66" stop-color="#2F87A5"/><stop offset=".9" stop-color="#3CCACE"/><stop offset="1" stop-color="#42E8E0"/></linearGradient><linearGradient id="paint20_linear" x1="19151" y1="11034.7" x2="14020.3" y2="5099.68" gradientUnits="userSpaceOnUse"><stop stop-color="#180D5B"/><stop offset=".09" stop-color="#1A1660"/><stop offset=".25" stop-color="#1E2D6E"/><stop offset=".44" stop-color="#255385"/><stop offset=".66" stop-color="#2F87A5"/><stop offset=".9" stop-color="#3CCACE"/><stop offset="1" stop-color="#42E8E0"/></linearGradient><linearGradient id="paint21_linear" x1="106.557" y1="290.528" x2="213.705" y2="290.528" gradientUnits="userSpaceOnUse"><stop stop-color="#2B237C"/><stop offset="1" stop-color="#180D5B"/></linearGradient><linearGradient id="paint22_linear" x1="139.308" y1="311.69" x2="52.03" y2="251.266" gradientUnits="userSpaceOnUse"><stop stop-color="#180D5B"/><stop offset=".1" stop-color="#1A1560"/><stop offset=".25" stop-color="#1E2D6E"/><stop offset=".28" stop-color="#1F3372"/><stop offset=".38" stop-color="#22447C"/><stop offset=".57" stop-color="#2B7097"/><stop offset=".83" stop-color="#39B7C2"/><stop offset="1" stop-color="#42E8E0"/></linearGradient><linearGradient id="paint23_linear" x1="20950.1" y1="6410.4" x2="16134.1" y2="-189.076" gradientUnits="userSpaceOnUse"><stop stop-color="#180D5B"/><stop offset=".09" stop-color="#1A1660"/><stop offset=".25" stop-color="#1E2D6E"/><stop offset=".44" stop-color="#255385"/><stop offset=".66" stop-color="#2F87A5"/><stop offset=".9" stop-color="#3CCACE"/><stop offset="1" stop-color="#42E8E0"/></linearGradient><linearGradient id="paint24_linear" x1="7674.44" y1="4082.38" x2="11828.6" y2="4082.38" gradientUnits="userSpaceOnUse"><stop stop-color="#2B237C"/><stop offset="1" stop-color="#180D5B"/></linearGradient><linearGradient id="paint25_linear" x1="8385.78" y1="4520.23" x2="5964.05" y2="2283.56" gradientUnits="userSpaceOnUse"><stop stop-color="#180D5B"/><stop offset=".1" stop-color="#1A1560"/><stop offset=".25" stop-color="#1E2D6E"/><stop offset=".28" stop-color="#1F3372"/><stop offset=".38" stop-color="#22447C"/><stop offset=".57" stop-color="#2B7097"/><stop offset=".83" stop-color="#39B7C2"/><stop offset="1" stop-color="#42E8E0"/></linearGradient><linearGradient id="paint26_linear" x1="22037.3" y1="8396.87" x2="10716.6" y2="3487.28" gradientUnits="userSpaceOnUse"><stop stop-color="#180D5B"/><stop offset=".09" stop-color="#1A1660"/><stop offset=".25" stop-color="#1E2D6E"/><stop offset=".44" stop-color="#255385"/><stop offset=".66" stop-color="#2F87A5"/><stop offset=".9" stop-color="#3CCACE"/><stop offset="1" stop-color="#42E8E0"/></linearGradient><linearGradient id="paint27_linear" x1="9149.35" y1="14863.2" x2="3989.77" y2="12511.5" gradientUnits="userSpaceOnUse"><stop stop-color="#180D5B"/><stop offset=".09" stop-color="#1A1660"/><stop offset=".25" stop-color="#1E2D6E"/><stop offset=".44" stop-color="#255385"/><stop offset=".66" stop-color="#2F87A5"/><stop offset=".9" stop-color="#3CCACE"/><stop offset="1" stop-color="#42E8E0"/></linearGradient><linearGradient id="paint28_linear" x1="10271.5" y1="14984.4" x2="6277.87" y2="13489.7" gradientUnits="userSpaceOnUse"><stop stop-color="#180D5B"/><stop offset=".09" stop-color="#1A1660"/><stop offset=".25" stop-color="#1E2D6E"/><stop offset=".44" stop-color="#255385"/><stop offset=".66" stop-color="#2F87A5"/><stop offset=".9" stop-color="#3CCACE"/><stop offset="1" stop-color="#42E8E0"/></linearGradient><linearGradient id="paint29_linear" x1="9646.58" y1="5424.84" x2="5707.97" y2="4475.13" gradientUnits="userSpaceOnUse"><stop stop-color="#180D5B"/><stop offset=".09" stop-color="#1A1660"/><stop offset=".25" stop-color="#1E2D6E"/><stop offset=".44" stop-color="#255385"/><stop offset=".66" stop-color="#2F87A5"/><stop offset=".9" stop-color="#3CCACE"/><stop offset="1" stop-color="#42E8E0"/></linearGradient><linearGradient id="paint30_linear" x1="131.478" y1="127.952" x2="131.478" y2="0" gradientUnits="userSpaceOnUse"><stop stop-color="#42E8E0"/><stop offset=".1" stop-color="#3CCACE"/><stop offset=".34" stop-color="#2F87A5"/><stop offset=".56" stop-color="#255385"/><stop offset=".75" stop-color="#1E2D6E"/><stop offset=".91" stop-color="#1A1660"/><stop offset="1" stop-color="#180D5B"/></linearGradient><linearGradient id="paint31_linear" x1="11836.3" y1="10313" x2="11836.3" y2="0" gradientUnits="userSpaceOnUse"><stop stop-color="#42E8E0"/><stop offset=".1" stop-color="#3CCACE"/><stop offset=".34" stop-color="#2F87A5"/><stop offset=".56" stop-color="#255385"/><stop offset=".75" stop-color="#1E2D6E"/><stop offset=".91" stop-color="#1A1660"/><stop offset="1" stop-color="#180D5B"/></linearGradient></defs></svg>