<svg width="10" height="57" viewBox="0 0 10 57" fill="none" xmlns="http://www.w3.org/2000/svg">
<path opacity="0.9" d="M9.7612 38.1827C9.75836 38.5121 9.65823 38.8333 9.47346 39.1057C9.28868 39.378 9.02757 39.5892 8.72314 39.7127C8.41871 39.8361 8.08463 39.8662 7.76316 39.7991C7.44168 39.7321 7.14727 39.5709 6.9171 39.3359C6.68693 39.101 6.53138 38.8028 6.47009 38.4792C6.40881 38.1555 6.44454 37.8209 6.5728 37.5176C6.70106 37.2144 6.91608 36.9561 7.19065 36.7754C7.46521 36.5947 7.78701 36.4998 8.11534 36.5026C8.33336 36.5045 8.54888 36.5494 8.74959 36.6349C8.95029 36.7203 9.13225 36.8446 9.28508 37.0006C9.43792 37.1567 9.55863 37.3413 9.64032 37.5442C9.72202 37.747 9.76309 37.964 9.7612 38.1827Z" fill="#42E8E0"/>
<path opacity="0.9" d="M4.32276 21.6117C4.37068 21.8002 4.45516 21.9775 4.57136 22.1333C4.68756 22.2891 4.83321 22.4205 5 22.5198C5.16678 22.6191 5.35143 22.6846 5.54341 22.7123C5.73539 22.74 5.93092 22.7296 6.11887 22.6815C6.30681 22.6334 6.48349 22.5486 6.63879 22.432C6.79408 22.3154 6.92496 22.1693 7.02397 22.002C7.12297 21.8346 7.18817 21.6493 7.21581 21.4567C7.24346 21.2641 7.23303 21.0679 7.18511 20.8793C7.14183 20.6905 7.06093 20.5125 6.94727 20.3559C6.83361 20.1993 6.68954 20.0674 6.52374 19.9681C6.35795 19.8688 6.17384 19.8042 5.98251 19.7782C5.79118 19.7522 5.59659 19.7653 5.41044 19.8167C5.21813 19.8566 5.03605 19.9359 4.87556 20.0494C4.71508 20.163 4.57961 20.3085 4.47759 20.4769C4.37556 20.6453 4.30915 20.8329 4.28251 21.0281C4.25587 21.2233 4.26958 21.422 4.32276 21.6117Z" fill="#42E8E0"/>
<path opacity="0.9" d="M0.329768 54.9979C0.406641 55.2678 0.560629 55.5091 0.772706 55.6921C0.984783 55.875 1.24567 55.9917 1.52308 56.0275C1.80049 56.0633 2.08228 56.0168 2.33363 55.8937C2.58499 55.7706 2.79488 55.5763 2.93736 55.3348C3.07985 55.0933 3.14869 54.8152 3.13537 54.5349C3.12205 54.2546 3.02716 53.9843 2.86242 53.7575C2.69767 53.5307 2.4703 53.3573 2.20842 53.2588C1.94653 53.1602 1.6616 53.1408 1.38884 53.203C1.19909 53.2462 1.02012 53.3278 0.862875 53.4428C0.705628 53.5578 0.573414 53.7038 0.474291 53.8718C0.375168 54.0398 0.311224 54.2263 0.286376 54.4199C0.261529 54.6135 0.276291 54.8102 0.329768 54.9979Z" fill="#42E8E0"/>
<path opacity="0.9" d="M4.58046 47.014C4.60475 47.1567 4.65825 47.2928 4.73758 47.4138C4.81692 47.5347 4.92036 47.6379 5.0414 47.7167C5.16243 47.7956 5.29844 47.8484 5.44084 47.8719C5.58324 47.8954 5.72896 47.889 5.86878 47.8532C6.00861 47.8174 6.13952 47.7529 6.25326 47.6638C6.36701 47.5747 6.46114 47.4629 6.52969 47.3355C6.59824 47.2081 6.63974 47.0678 6.65157 46.9235C6.6634 46.7792 6.64531 46.634 6.59844 46.497C6.52457 46.2308 6.35025 46.004 6.11245 45.8646C5.87466 45.7251 5.59209 45.6842 5.32468 45.7503C5.06046 45.8213 4.8345 45.9934 4.69535 46.2296C4.5562 46.4659 4.51495 46.7475 4.58046 47.014Z" fill="#42E8E0"/>
<path opacity="0.9" d="M9.76115 19.2854C9.78258 19.5162 9.75578 19.7489 9.68245 19.9687C9.60912 20.1885 9.49087 20.3905 9.33529 20.5618C9.17971 20.7331 8.99021 20.87 8.7789 20.9636C8.5676 21.0572 8.33915 21.1056 8.10815 21.1056C7.87716 21.1056 7.6487 21.0572 7.4374 20.9636C7.2261 20.87 7.03659 20.7331 6.88101 20.5618C6.72543 20.3905 6.60721 20.1885 6.53388 19.9687C6.46055 19.7489 6.43373 19.5162 6.45515 19.2854C6.49352 18.8722 6.68425 18.4882 6.99001 18.2086C7.29576 17.9291 7.69451 17.7742 8.10815 17.7742C8.5218 17.7742 8.92054 17.9291 9.2263 18.2086C9.53205 18.4882 9.72279 18.8722 9.76115 19.2854Z" fill="#42E8E0"/>
<path opacity="0.9" d="M4.32276 2.74296C4.37068 2.93154 4.45516 3.10879 4.57136 3.26461C4.68756 3.42043 4.83321 3.55176 5 3.6511C5.16678 3.75044 5.35143 3.81584 5.54341 3.84358C5.73539 3.87132 5.93092 3.86085 6.11887 3.81276C6.30681 3.76468 6.48349 3.67992 6.63879 3.56332C6.79408 3.44673 6.92496 3.3006 7.02397 3.13325C7.12297 2.96591 7.18817 2.78063 7.21581 2.58801C7.24346 2.39539 7.23303 2.19919 7.18511 2.01062C7.14183 1.82182 7.06093 1.64376 6.94727 1.48716C6.83361 1.33055 6.68954 1.19865 6.52374 1.09937C6.35795 1.00009 6.17384 0.935505 5.98251 0.90949C5.79118 0.883476 5.59659 0.896574 5.41044 0.947997C5.21813 0.987929 5.03605 1.06715 4.87556 1.18072C4.71508 1.2943 4.57961 1.4398 4.47759 1.60817C4.37556 1.77654 4.30915 1.96418 4.28251 2.15941C4.25587 2.35463 4.26958 2.55327 4.32276 2.74296Z" fill="#42E8E0"/>
<path opacity="0.9" d="M0.329768 36.1149C0.406641 36.3848 0.560629 36.6261 0.772706 36.8091C0.984783 36.992 1.24567 37.1086 1.52308 37.1445C1.80049 37.1803 2.08228 37.1338 2.33363 37.0107C2.58499 36.8876 2.79488 36.6933 2.93736 36.4518C3.07985 36.2103 3.14869 35.9322 3.13537 35.6519C3.12205 35.3716 3.02716 35.1013 2.86242 34.8745C2.69767 34.6477 2.4703 34.4743 2.20842 34.3758C1.94653 34.2772 1.6616 34.2578 1.38884 34.32C1.19909 34.3632 1.02012 34.4448 0.862875 34.5598C0.705628 34.6748 0.573414 34.8208 0.474291 34.9888C0.375168 35.1568 0.311224 35.3433 0.286376 35.5369C0.261529 35.7305 0.276291 35.9272 0.329768 36.1149Z" fill="#42E8E0"/>
<path opacity="0.9" d="M4.58034 28.131C4.63004 28.3331 4.73862 28.5158 4.89222 28.6558C5.04581 28.7958 5.23747 28.8868 5.44278 28.917C5.64809 28.9473 5.85774 28.9156 6.04499 28.8258C6.23225 28.7361 6.38862 28.5925 6.49419 28.4132C6.59975 28.234 6.64974 28.0272 6.63775 27.8194C6.62576 27.6115 6.55235 27.4119 6.42688 27.2461C6.30141 27.0803 6.12954 26.9557 5.93323 26.8882C5.73691 26.8208 5.52503 26.8135 5.32457 26.8673C5.19273 26.9008 5.06879 26.9601 4.95991 27.0419C4.85104 27.1236 4.75937 27.2262 4.69019 27.3437C4.62101 27.4611 4.57568 27.5912 4.55682 27.7263C4.53797 27.8614 4.54597 27.999 4.58034 28.131Z" fill="#42E8E0"/>
</svg>
