<svg width="36" height="37" viewBox="0 0 36 37" fill="none" xmlns="http://www.w3.org/2000/svg">
<path fill-rule="evenodd" clip-rule="evenodd" d="M35.7983 0.0760025C34.9172 0.0227014 29.6753 -0.153862 23.5844 2.72156C23.512 2.75551 23.4482 2.80348 23.3955 2.86175C19.2438 4.86199 14.7528 8.2738 11.0938 14.0782L6.39602 13.7572C6.13446 13.7307 5.89266 13.8967 5.79725 14.1463L2.15855 23.6765C2.06074 23.9323 2.14055 24.2231 2.35415 24.3897C2.46096 24.4733 2.58934 24.5151 2.7171 24.5151C2.84366 24.5151 2.97029 24.4746 3.0771 24.3922L6.09727 22.0712L7.67771 22.395L10.0611 24.8376L9.40832 26.0396C8.61452 25.639 7.69411 25.5405 6.79601 25.7736C5.59431 26.0866 4.61156 26.9265 4.10039 28.0794L0.553515 36.0769C0.449734 36.3105 0.49832 36.5854 0.675295 36.7661C0.789903 36.8842 0.943464 36.9463 1.09949 36.9463C1.18351 36.9463 1.26809 36.9278 1.3479 36.8909L9.15152 33.2553C10.2758 32.7321 11.0954 31.7249 11.4007 30.4933C11.6362 29.5436 11.526 28.5683 11.1022 27.7365L12.2155 27.0461L14.6986 29.5908L15.0143 31.2092L12.7495 34.3037C12.5887 34.5238 12.5893 34.8263 12.7519 35.0452C12.8677 35.2014 13.0458 35.2881 13.2294 35.2881C13.3026 35.2881 13.3764 35.274 13.4484 35.2469L22.7477 31.5178C22.9913 31.4201 23.1448 31.1717 23.1274 30.9043L22.8141 26.0879C28.4762 22.3389 31.8051 17.7378 33.7571 13.484C33.6743 13.562 33.5706 13.6157 33.4567 13.6368C33.4213 13.6429 33.3859 13.646 33.3505 13.646C33.1928 13.646 33.0398 13.5821 32.9264 13.4659L32.628 13.1601C30.4588 17.7718 26.2695 23.3486 18.1891 27.3263C17.2882 27.769 16.3566 28.1839 15.3981 28.569L13.3527 26.4728L18.2184 23.3248C18.3486 23.2401 18.4405 23.1089 18.4785 22.9598C18.4914 22.9094 18.4982 22.857 18.4982 22.8035V19.1144C18.4983 18.775 18.2295 18.4995 17.8983 18.4995H13.8558C13.7342 18.4995 13.618 18.5373 13.5206 18.6046C13.4422 18.6584 13.3759 18.7314 13.3287 18.8191L13.2507 18.9642L10.6673 23.7213L8.67356 21.6774C9.11674 20.5189 9.60036 19.3988 10.1212 18.3234C13.8672 10.6057 19.0272 6.37004 23.7413 4.05297L30.8877 1.69575C32.9375 1.32191 34.5167 1.2803 35.293 1.2915C35.3064 2.15333 35.2653 3.97779 34.8255 6.32343C35.2674 3.97323 35.3078 2.14977 35.2938 1.28958C34.5352 1.27654 33.0035 1.31037 31.0198 1.65219L35.7983 0.0760025ZM31.0198 1.65219C29.2553 1.95622 27.1332 2.50391 24.8792 3.47901L24.9113 3.51198C27.1046 2.56025 29.1628 2.01035 30.8877 1.69575L31.0198 1.65219ZM8.25758 28.1586L8.82331 27.1169C8.49224 26.9599 8.12946 26.8792 7.75836 26.8792C7.53758 26.8792 7.31385 26.9076 7.09125 26.9653C6.24469 27.1854 5.55233 27.7769 5.19297 28.5873L2.30779 35.0932L8.65533 32.1363C9.44606 31.7673 10.0232 31.0584 10.238 30.1908C10.3898 29.5772 10.334 28.9507 10.088 28.4084L9.07706 28.9944C8.84306 29.1303 8.54846 29.0897 8.3577 28.8936C8.2047 28.7372 8.14855 28.512 8.20074 28.305C8.21326 28.2547 8.23214 28.2055 8.25758 28.1586ZM9.46494 16.9372C9.75845 16.3651 10.0625 15.806 10.3767 15.261L6.75419 15.0138L4.04423 22.1116L5.59151 20.9225C5.72827 20.818 5.90229 20.7775 6.06907 20.8113L7.59623 21.1241C8.1738 19.6246 8.7997 18.2315 9.46494 16.9372ZM11.2392 25.197L10.4055 26.7322L17.2981 22.4574V19.7297H14.2096L11.3514 25.0482C11.3213 25.1041 11.2833 25.1541 11.2392 25.197ZM15.9376 29.6731L16.2429 31.2375C16.2765 31.4091 16.2369 31.5874 16.1349 31.727L14.9746 33.3127L21.9005 30.5353L21.6587 26.8235C21.1317 27.1426 20.5912 27.4515 20.0382 27.7498C18.771 28.4346 17.4066 29.0788 15.9376 29.6731ZM26.9959 9.79207C24.9782 7.72426 21.696 7.72426 19.6783 9.79207C17.6606 11.8599 17.6606 15.2238 19.6783 17.2916C20.6868 18.3258 22.0121 18.8423 23.3368 18.8423C24.6621 18.8423 25.9868 18.3252 26.9959 17.2916C29.0136 15.2238 29.0136 11.8598 26.9959 9.79207ZM26.1476 16.4221C24.5979 18.0103 22.0763 18.0103 20.5267 16.4221C18.977 14.8339 18.977 12.2497 20.5267 10.6615C21.3012 9.86766 22.3193 9.47047 23.3369 9.47047C24.3544 9.47047 25.3726 9.86766 26.1477 10.6615C27.6973 12.2497 27.6973 14.8339 26.1476 16.4221ZM22.1437 14.7644C22.8019 15.4389 23.8722 15.4396 24.5297 14.7644C24.7637 14.524 25.144 14.524 25.378 14.7644C25.6126 15.0048 25.6126 15.3935 25.378 15.6339C24.8159 16.2106 24.0768 16.499 23.337 16.499C22.5979 16.499 21.8581 16.2106 21.2953 15.6339C20.1698 14.4804 20.1698 12.6031 21.2953 11.4496C22.4208 10.2961 24.2531 10.2961 25.378 11.4496C25.6126 11.69 25.6126 12.0786 25.378 12.319C25.1441 12.5594 24.7637 12.5594 24.5297 12.319C23.8715 11.6445 22.8012 11.6451 22.1437 12.319C21.4861 12.9936 21.4861 14.0899 22.1437 14.7644Z" fill="#2682D6"/>
</svg>
