<svg width="27" height="37" viewBox="0 0 27 37" fill="none" xmlns="http://www.w3.org/2000/svg">
<path fill-rule="evenodd" clip-rule="evenodd" d="M12.75 0.821313C12.75 0.397071 13.086 0.0527344 13.5 0.0527344C13.914 0.0527344 14.25 0.397071 14.25 0.821313V3.89548C14.25 4.31973 13.914 4.66406 13.5 4.66406C13.086 4.66406 12.75 4.31973 12.75 3.89556V0.821313ZM22.5 12.3506H25.5C25.914 12.3506 26.2501 12.6949 26.2501 13.1191C26.2501 13.5434 25.914 13.8877 25.5 13.8877H22.5C22.086 13.8877 21.75 13.5434 21.75 13.1192C21.75 12.6949 22.086 12.3506 22.5 12.3506ZM4.50004 12.3506H1.50002C1.08602 12.3506 0.75 12.6949 0.75 13.1192C0.75 13.5434 1.08602 13.8877 1.50002 13.8877H4.50004C4.91404 13.8877 5.25006 13.5434 5.25006 13.1191C5.25006 12.6949 4.91404 12.3506 4.50004 12.3506ZM21.4546 3.88014C21.7471 3.58032 22.2226 3.58032 22.5151 3.88014C22.8076 4.17995 22.8076 4.66737 22.5151 4.96719L20.3942 7.14122C20.2486 7.29041 20.0567 7.36572 19.8646 7.36572C19.6726 7.36572 19.4807 7.29034 19.3336 7.14122C19.0411 6.8414 19.0411 6.35399 19.3336 6.05417L21.4546 3.88014ZM7.66656 6.05417L5.54552 3.88014C5.25302 3.58032 4.7775 3.58032 4.485 3.88014C4.1925 4.17995 4.1925 4.66737 4.485 4.96719L6.60449 7.14122C6.75151 7.29034 6.94347 7.36572 7.13549 7.36572C7.32751 7.36572 7.51947 7.29041 7.66649 7.14122C7.95906 6.8414 7.95906 6.35399 7.66656 6.05417ZM16.9995 21.5893C18.501 20.5655 20.523 20.9206 21.603 22.3979C22.2525 23.2849 22.1925 24.5208 21.4619 25.3401L15.3915 32.1284C15.3215 32.2063 15.2495 32.282 15.1756 32.3552C15.5049 32.4363 15.75 32.7404 15.75 33.1027V36.1779C15.75 36.6023 15.414 36.9468 15 36.9468C14.5861 36.9468 14.25 36.6023 14.25 36.178V33.8716H5.25004V36.178C5.25004 36.6023 4.91402 36.9468 4.50002 36.9468C4.08602 36.9468 3.75 36.6023 3.75 36.178V33.1028C3.75 32.6784 4.08602 32.334 4.50002 32.334H4.76173C3.2307 31.0647 2.25 29.1244 2.25 26.9542V20.8053C2.25 19.5341 3.25947 18.4995 4.5 18.4995C4.7925 18.4995 5.0715 18.558 5.32954 18.6609C5.58899 17.6832 6.46502 16.9623 7.50002 16.9623C7.79251 16.9623 8.07151 17.0207 8.32949 17.1237C8.58894 16.146 9.46496 15.4251 10.5 15.4251C10.7625 15.4251 11.016 15.4712 11.25 15.5557V13.1193C11.25 11.848 12.2595 10.8135 13.5 10.8135C14.7405 10.8135 15.75 11.848 15.75 13.1193V22.4425L16.9995 21.5893ZM14.2845 31.0877C13.5888 31.8671 12.6035 32.3185 11.5747 32.334H8.9345C6.06959 32.2979 3.74997 29.8986 3.74997 26.9542V20.8053C3.74997 20.3811 4.086 20.0367 4.5 20.0367C4.914 20.0367 5.25002 20.3811 5.25002 20.8053V21.574C5.25002 21.9982 5.58604 22.3426 6.00004 22.3426C6.41404 22.3426 6.74999 21.9982 6.74999 21.574V19.2682C6.74999 18.8439 7.08602 18.4995 7.50002 18.4995C7.91401 18.4995 8.25004 18.8439 8.25004 19.2682V21.574C8.25004 21.9982 8.58606 22.3426 9.00006 22.3426C9.41406 22.3426 9.75008 21.9982 9.75008 21.574V17.731C9.75008 17.3067 10.0861 16.9624 10.5001 16.9624C10.9141 16.9624 11.25 17.3066 11.25 17.7309V21.5739C11.25 21.9982 11.586 22.3425 12 22.3425C12.414 22.3425 12.75 21.9982 12.75 21.5739V13.1193C12.75 12.695 13.0861 12.3507 13.5001 12.3507C13.9141 12.3507 14.2501 12.695 14.2501 13.1193V23.8797C14.2501 24.1641 14.4046 24.4224 14.6476 24.5561C14.8905 24.6898 15.1875 24.6745 15.417 24.5177L17.8321 22.8667C18.6705 22.2964 19.7986 22.4932 20.403 23.3187C20.619 23.6138 20.5995 24.0274 20.3549 24.2994L14.2845 31.0877ZM8.25 13.1191C8.25 10.1522 10.605 7.73877 13.5 7.73877C16.395 7.73877 18.75 10.1522 18.75 13.119C18.75 13.5433 18.414 13.8876 18 13.8876C17.586 13.8876 17.25 13.5433 17.25 13.119C17.25 11.0007 15.567 9.27596 13.5 9.27596C11.433 9.27596 9.75005 11.0007 9.75005 13.1191C9.75005 13.5433 9.41402 13.8877 9.00002 13.8877C8.58602 13.8877 8.25 13.5433 8.25 13.1191Z" fill="#D62642"/>
</svg>
