<svg width="37" height="37" viewBox="0 0 37 37" fill="none" xmlns="http://www.w3.org/2000/svg">
<path fill-rule="evenodd" clip-rule="evenodd" d="M26.2907 22.4081L35.676 32.0265C36.2073 32.5706 36.5 33.2943 36.5 34.0644C36.5 34.8345 36.2073 35.5583 35.6758 36.1025C35.1447 36.6469 34.4385 36.9468 33.6875 36.9468C32.9365 36.9468 32.2303 36.6469 31.6989 36.1023L24.909 29.1438L24.9079 29.1426L22.3137 26.484C20.0107 28.0508 17.3438 28.8762 14.5625 28.8762C6.80844 28.8762 0.5 22.4111 0.5 14.4645C0.5 6.51784 6.80844 0.0527344 14.5625 0.0527344C22.3166 0.0527344 28.625 6.51784 28.625 14.4645C28.625 17.3148 27.8196 20.0479 26.2907 22.4081ZM21.9829 24.9655L21.983 24.9654C23.0695 24.1572 24.0203 23.1827 24.809 22.0692C26.3855 19.8449 27.2188 17.2153 27.2188 14.4645C27.2188 7.3125 21.5412 1.49391 14.5625 1.49391C7.58384 1.49391 1.90625 7.3125 1.90625 14.4645C1.90625 21.6164 7.58384 27.435 14.5625 27.435C17.2467 27.435 19.8125 26.5811 21.9829 24.9655ZM25.4464 23.581C24.8511 24.3268 24.1859 25.0085 23.4582 25.6186L25.453 27.663C26.169 27.0414 26.8346 26.3592 27.4412 25.6254L25.4464 23.581ZM33.6875 35.5056C34.0628 35.5056 34.4159 35.3557 34.6816 35.0833C34.9474 34.811 35.0938 34.4494 35.0938 34.0644C35.0938 33.6795 34.9474 33.3178 34.6818 33.0459L28.4382 26.6472C27.8272 27.377 27.162 28.0586 26.45 28.6848L32.6934 35.0833C32.9591 35.3557 33.3122 35.5056 33.6875 35.5056ZM21.5938 14.4646C21.5938 14.0669 21.9088 13.7441 22.2969 13.7441C22.685 13.7441 23 14.0669 23 14.4646C23 14.8623 22.685 15.1851 22.2969 15.1851C21.9088 15.1851 21.5938 14.8623 21.5938 14.4646ZM14.5625 2.93506C8.35918 2.93506 3.3125 8.10703 3.3125 14.4644C3.3125 20.8217 8.35918 25.9937 14.5625 25.9937C20.7658 25.9937 25.8125 20.8217 25.8125 14.4644C25.8125 8.10703 20.7658 2.93506 14.5625 2.93506ZM14.5625 24.5525C9.13466 24.5525 4.71875 20.027 4.71875 14.4644C4.71875 8.90176 9.13466 4.37622 14.5625 4.37622C19.9903 4.37622 24.4062 8.90176 24.4062 14.4644C24.4062 20.027 19.9903 24.5525 14.5625 24.5525ZM19.3933 7.37809C20.7824 8.37526 21.8366 9.75598 22.4421 11.3709C22.5814 11.7424 22.4004 12.1592 22.0379 12.302C21.955 12.3346 21.8697 12.3501 21.7859 12.3501C21.5033 12.3501 21.2368 12.1743 21.1294 11.8878C20.0912 9.11879 17.4523 7.25848 14.5625 7.25848C14.1742 7.25848 13.8594 6.93582 13.8594 6.53793C13.8594 6.14004 14.1742 5.81738 14.5625 5.81738C16.3007 5.81738 17.9712 6.35707 19.3933 7.37809Z" fill="#1ECE7A"/>
</svg>
