<svg width="37" height="37" viewBox="0 0 37 37" fill="none" xmlns="http://www.w3.org/2000/svg">
<path d="M15.3359 27.219C15.3359 29.0069 16.7553 30.4614 18.5 30.4614C20.2447 30.4614 21.6641 29.0069 21.6641 27.219C21.6641 25.4311 20.2447 23.9766 18.5 23.9766C16.7553 23.9766 15.3359 25.4311 15.3359 27.219ZM18.5 26.1382C19.0816 26.1382 19.5547 26.623 19.5547 27.219C19.5547 27.815 19.0816 28.2998 18.5 28.2998C17.9184 28.2998 17.4453 27.815 17.4453 27.219C17.4453 26.623 17.9184 26.1382 18.5 26.1382Z" fill="#D69026"/>
<path d="M1.55469 30.4611H9.36613L11.3342 33.9545C11.474 34.2028 11.7044 34.3839 11.9746 34.4581C12.2446 34.5323 12.5326 34.4934 12.7749 34.3501L13.8406 33.7195C14.4337 33.3685 15.3359 33.8202 15.3359 34.5674V35.8654C15.3359 36.4623 15.8081 36.9463 16.3906 36.9463H20.6093C21.1918 36.9463 21.664 36.4623 21.664 35.8654V34.6046C21.664 33.8266 22.5473 33.3574 23.2198 33.7554L24.2249 34.3501C24.729 34.6485 25.3745 34.4714 25.6657 33.9545L27.6339 30.4611H35.4453C36.0278 30.4611 36.5 29.9772 36.5 29.3802V1.1336C36.5 0.536674 36.0278 0.0527344 35.4453 0.0527344H22.7188C20.9955 0.0527344 19.4629 0.904313 18.5 2.21821C17.5371 0.904313 16.0045 0.0527344 14.2812 0.0527344H1.55469C0.972219 0.0527344 0.5 0.536674 0.5 1.1336V29.3802C0.5 29.9772 0.972219 30.4611 1.55469 30.4611ZM19.5547 5.45706C19.5547 3.6691 20.9741 2.21447 22.7188 2.21447H34.3906V28.2994H26.9375C26.8565 28.2994 26.778 28.3096 26.7022 28.3273L26.2839 28.0798C25.6459 27.7023 25.6696 26.7206 26.3144 26.3391L27.3892 25.7032C27.8933 25.4049 28.0665 24.7436 27.7753 24.2267L25.6659 20.4825C25.3749 19.9659 24.7295 19.7883 24.2251 20.0869L23.2265 20.6777C22.5532 21.0762 21.6641 20.6158 21.6641 19.8399V18.5716C21.6641 17.9746 21.1919 17.4907 20.6094 17.4907H19.5548V5.45706H19.5547ZM19.5547 19.6524V19.8399C19.5547 22.2944 22.2138 23.7732 24.2812 22.5499L24.3664 22.4994L25.4211 24.3715L25.2597 24.467C23.2209 25.6732 23.1741 28.7359 25.2292 29.9519L25.4211 30.0654L24.3664 31.9375L24.2746 31.8832C22.2159 30.6651 19.5547 32.14 19.5547 34.6046V34.7846H17.4453V34.5674C17.4453 32.1834 14.8088 30.6504 12.7859 31.8474L12.6335 31.9376L11.5789 30.0655L11.83 29.9169C13.8909 28.6975 13.7084 25.6315 11.6803 24.4315L11.5789 24.3716L12.6336 22.4994L12.76 22.5742C14.812 23.7884 17.4453 22.2496 17.4453 19.8399V19.6524H19.5547ZM2.60938 2.21447H14.2812C16.0259 2.21447 17.4453 3.6691 17.4453 5.45706V17.4907H16.3906C15.8082 17.4907 15.3359 17.9746 15.3359 18.5716V19.8399C15.3359 20.5856 14.4693 21.0896 13.8148 20.7022L12.7749 20.0869C12.2708 19.7886 11.6254 19.9654 11.3342 20.4825L9.2248 24.2267C8.9337 24.7433 9.10646 25.4048 9.61081 25.7032L10.6256 26.3036C11.2733 26.6868 11.3977 27.6764 10.7753 28.0448L10.2978 28.3273C10.222 28.3096 10.1435 28.2994 10.0625 28.2994H2.60938V2.21447Z" fill="#D69026"/>
<path d="M5.77344 8.77197H14.2812C14.8637 8.77197 15.3359 8.28806 15.3359 7.69116C15.3359 7.09427 14.8637 6.61035 14.2812 6.61035H5.77344C5.19097 6.61035 4.71875 7.09427 4.71875 7.69116C4.71875 8.28806 5.19097 8.77197 5.77344 8.77197Z" fill="#D69026"/>
<path d="M15.3359 12.0146C15.3359 11.4176 14.8637 10.9336 14.2812 10.9336H5.77344C5.19097 10.9336 4.71875 11.4176 4.71875 12.0146C4.71875 12.6117 5.19097 13.0957 5.77344 13.0957H14.2812C14.8637 13.0957 15.3359 12.6117 15.3359 12.0146Z" fill="#D69026"/>
<path d="M22.7188 13.0957H31.2266C31.809 13.0957 32.2812 12.6117 32.2812 12.0146C32.2812 11.4176 31.809 10.9336 31.2266 10.9336H22.7188C22.1363 10.9336 21.6641 11.4176 21.6641 12.0146C21.6641 12.6117 22.1363 13.0957 22.7188 13.0957Z" fill="#D69026"/>
<path d="M22.7188 8.77197H31.2266C31.809 8.77197 32.2812 8.28806 32.2812 7.69116C32.2812 7.09427 31.809 6.61035 31.2266 6.61035H22.7188C22.1363 6.61035 21.6641 7.09427 21.6641 7.69116C21.6641 8.28806 22.1363 8.77197 22.7188 8.77197Z" fill="#D69026"/>
</svg>
