<svg width="37" height="37" viewBox="0 0 37 37" fill="none" xmlns="http://www.w3.org/2000/svg">
<path d="M2.85414 16.5499C3.79247 11.0953 7.54976 6.62958 12.5229 4.78954L12.2894 5.20418C11.9638 5.78178 12.1568 6.5204 12.7204 6.85405C12.9061 6.96387 13.1086 7.0162 13.3086 7.0162C13.7157 7.0162 14.1118 6.79962 14.3301 6.41235L15.9547 3.52984C16.1111 3.25239 16.1537 2.92277 16.0727 2.61344C15.9918 2.30395 15.7945 2.04019 15.5238 1.87997L12.7103 0.214809C12.1462 -0.118835 11.4258 0.0792258 11.1004 0.656663C10.775 1.23426 10.968 1.97288 11.5316 2.30637L11.8251 2.48011C6.01859 4.58697 1.62559 9.7802 0.533271 16.1304C0.00470909 19.1995 0.273861 22.3626 1.3115 25.2778C1.48591 25.7678 1.93748 26.0718 2.41875 26.0718C2.55277 26.0718 2.68931 26.0481 2.8224 25.9984C3.43392 25.7697 3.74879 25.0765 3.52568 24.4499C2.62976 21.9333 2.39754 19.2016 2.85414 16.5499Z" fill="#1ECE7A"/>
<path d="M30.6957 28.9127C30.1973 28.4834 29.4541 28.5494 29.0354 29.0601C25.6073 33.2397 20.2233 35.2485 14.9828 34.3005C12.4391 33.8407 10.0656 32.7101 8.09043 31.0489H8.46957C9.12053 31.0489 9.64799 30.5081 9.64799 29.8411C9.64799 29.1741 9.12053 28.6333 8.46957 28.6333H5.33229C5.02951 28.604 4.71589 28.6939 4.4645 28.91C4.21938 29.1206 4.0797 29.4118 4.04985 29.714C4.04969 29.7152 4.04953 29.7161 4.04938 29.7173C4.04938 29.7176 4.04938 29.7179 4.04938 29.7182C4.04608 29.7528 4.04451 29.7876 4.04419 29.8224C4.04403 29.8285 4.04325 29.8343 4.04325 29.8404L4.04199 33.169C4.04168 33.8361 4.56914 34.377 5.21994 34.3773H5.22042C5.87106 34.3773 6.39853 33.8369 6.39884 33.17L6.399 32.7494C8.72363 34.7638 11.5448 36.1318 14.5735 36.6791C15.5674 36.8589 16.5656 36.9468 17.5579 36.9468C22.6205 36.9468 27.5219 34.6593 30.8395 30.6144C31.2584 30.1039 31.194 29.3419 30.6957 28.9127Z" fill="#1ECE7A"/>
<path d="M36.5734 22.7577C36.2481 22.1802 35.5271 21.9823 34.9636 22.3157L34.576 22.545C34.5921 22.4597 34.6109 22.3748 34.6255 22.2893C35.4283 17.6228 34.4099 12.9156 31.758 9.03451C29.1061 5.15339 25.1381 2.56313 20.5852 1.74114C19.9441 1.62553 19.3329 2.06414 19.2202 2.72092C19.1073 3.37771 19.5353 4.00406 20.1762 4.11983C24.1091 4.82991 27.5369 7.06738 29.8276 10.4201C32.1138 13.7658 32.9941 17.8224 32.3087 21.8454L32.1361 21.539C31.8107 20.9614 31.0899 20.7632 30.5263 21.0967C29.9626 21.43 29.7695 22.1686 30.0947 22.7463L31.7187 25.6299C31.8751 25.9073 32.1324 26.1097 32.4344 26.1927C32.5348 26.2202 32.6373 26.2339 32.7394 26.2339C32.9445 26.2339 33.1479 26.179 33.3286 26.0721L36.1421 24.4075C36.7057 24.0739 36.8988 23.3353 36.5734 22.7577Z" fill="#1ECE7A"/>
</svg>
