<svg width="11" height="56" viewBox="0 0 11 56" fill="none" xmlns="http://www.w3.org/2000/svg">
<path opacity="0.9" d="M0.811829 37.6651C0.808993 37.9951 0.903941 38.3186 1.08463 38.5944C1.26532 38.8702 1.52359 39.086 1.82669 39.2142C2.12978 39.3425 2.46404 39.3775 2.78701 39.3149C3.10999 39.2523 3.40714 39.0948 3.64075 38.8624C3.87436 38.63 4.03391 38.3332 4.09913 38.0097C4.16436 37.6862 4.13233 37.3506 4.00711 37.0454C3.88188 36.7402 3.66911 36.4792 3.39579 36.2955C3.12248 36.1118 2.80096 36.0137 2.472 36.0137C2.03417 36.0137 1.61403 36.1872 1.3031 36.4965C0.992164 36.8058 0.815604 37.2258 0.811829 37.6651Z" fill="#42E8E0"/>
<path opacity="0.9" d="M6.25036 21.1227C6.17348 21.3926 6.01947 21.6339 5.80739 21.8169C5.59532 21.9999 5.33445 22.1165 5.05704 22.1523C4.77963 22.1881 4.49783 22.1416 4.24648 22.0185C3.99512 21.8954 3.78523 21.7011 3.64275 21.4596C3.50026 21.2181 3.43142 20.94 3.44474 20.6597C3.45806 20.3794 3.55295 20.1091 3.71769 19.8823C3.88244 19.6555 4.10981 19.4821 4.3717 19.3836C4.63359 19.285 4.91852 19.2656 5.19128 19.3278C5.38102 19.371 5.56 19.4526 5.71725 19.5676C5.87449 19.6826 6.00671 19.8286 6.10583 19.9966C6.20496 20.1646 6.2689 20.3511 6.29375 20.5447C6.3186 20.7383 6.30383 20.935 6.25036 21.1227Z" fill="#42E8E0"/>
<g opacity="0.9">
<path opacity="0.9" d="M10.2434 54.4947C10.1689 54.766 10.0167 55.0094 9.80554 55.1946C9.59439 55.3798 9.33365 55.4987 9.05573 55.5365C8.77781 55.5743 8.49495 55.5293 8.24229 55.4071C7.98963 55.285 7.7783 55.091 7.63458 54.8494C7.49085 54.6077 7.42106 54.3291 7.43387 54.048C7.44667 53.7668 7.54153 53.4957 7.70662 53.2682C7.87172 53.0407 8.09979 52.8669 8.36251 52.7684C8.62522 52.6699 8.91098 52.651 9.18431 52.7141C9.37248 52.7575 9.54994 52.8387 9.70602 52.9527C9.8621 53.0668 9.99359 53.2113 10.0925 53.3776C10.1915 53.544 10.2558 53.7287 10.2818 53.9207C10.3077 54.1127 10.2946 54.3079 10.2434 54.4947Z" fill="#42E8E0"/>
<path opacity="0.9" d="M5.99281 46.5251C5.95945 46.6573 5.90032 46.7817 5.81884 46.8909C5.73736 47.0002 5.63514 47.0921 5.51807 47.1615C5.40099 47.231 5.27136 47.2764 5.13668 47.2954C5.002 47.3143 4.86492 47.3063 4.73335 47.2718C4.60179 47.2378 4.47819 47.1782 4.36959 47.0963C4.26099 47.0145 4.16952 46.9119 4.10041 46.7946C4.0313 46.6772 3.9859 46.5474 3.96681 46.4124C3.94771 46.2775 3.95532 46.1401 3.98915 46.0081C4.02298 45.8761 4.08238 45.7521 4.16398 45.6431C4.24559 45.5342 4.34779 45.4424 4.46474 45.373C4.58169 45.3037 4.7111 45.2582 4.8456 45.239C4.98009 45.2198 5.11702 45.2275 5.24858 45.2614C5.38042 45.2949 5.50436 45.3542 5.61324 45.4359C5.72211 45.5177 5.81378 45.6203 5.88296 45.7377C5.95214 45.8552 5.99747 45.9853 6.01633 46.1204C6.03518 46.2555 6.02718 46.393 5.99281 46.5251Z" fill="#42E8E0"/>
</g>
<path opacity="0.9" d="M0.812012 18.7965C0.812012 19.1259 0.909379 19.448 1.0918 19.7219C1.27422 19.9958 1.53349 20.2093 1.83685 20.3354C2.1402 20.4615 2.47402 20.4945 2.79606 20.4302C3.1181 20.3659 3.4139 20.2073 3.64608 19.9743C3.87826 19.7414 4.03638 19.4446 4.10044 19.1214C4.1645 18.7983 4.13162 18.4634 4.00597 18.159C3.88031 17.8546 3.66752 17.5945 3.3945 17.4115C3.12149 17.2284 2.80053 17.1307 2.47218 17.1307C2.03188 17.1307 1.6096 17.3062 1.29826 17.6186C0.986915 17.931 0.812012 18.3547 0.812012 18.7965Z" fill="#42E8E0"/>
<path opacity="0.9" d="M6.25036 2.25409C6.17348 2.52392 6.01947 2.76524 5.80739 2.94822C5.59532 3.13119 5.33445 3.24781 5.05704 3.28364C4.77963 3.31948 4.49783 3.27297 4.24648 3.14987C3.99512 3.02676 3.78523 2.83245 3.64275 2.59095C3.50026 2.34946 3.43142 2.07136 3.44474 1.79104C3.45806 1.51071 3.55295 1.24045 3.71769 1.01365C3.88244 0.786858 4.10981 0.613471 4.3717 0.514919C4.63359 0.416366 4.91852 0.396968 5.19128 0.459127C5.38102 0.502369 5.56 0.583983 5.71725 0.698972C5.87449 0.813962 6.00671 0.959917 6.10583 1.12792C6.20496 1.29592 6.2689 1.48243 6.29375 1.67606C6.3186 1.86969 6.30383 2.06638 6.25036 2.25409Z" fill="#42E8E0"/>
<g opacity="0.9">
<path opacity="0.9" d="M10.2435 35.6978C10.1666 35.9676 10.0126 36.209 9.80057 36.3919C9.58849 36.5749 9.32763 36.6915 9.05022 36.7274C8.7728 36.7632 8.49099 36.7167 8.23964 36.5936C7.98828 36.4705 7.7784 36.2762 7.63591 36.0347C7.49342 35.7932 7.42458 35.5151 7.4379 35.2348C7.45123 34.9544 7.54613 34.6842 7.71088 34.4574C7.87562 34.2306 8.10297 34.0572 8.36486 33.9586C8.62675 33.8601 8.91168 33.8407 9.18443 33.9029C9.37418 33.9461 9.55315 34.0277 9.7104 34.1427C9.86764 34.2577 9.99988 34.4036 10.099 34.5716C10.1981 34.7396 10.262 34.9262 10.2869 35.1198C10.3117 35.3134 10.297 35.5101 10.2435 35.6978Z" fill="#42E8E0"/>
<path opacity="0.9" d="M5.99284 27.6564C5.95948 27.7887 5.90035 27.913 5.81887 28.0223C5.73739 28.1315 5.63517 28.2235 5.5181 28.2929C5.40102 28.3623 5.27139 28.4078 5.13671 28.4267C5.00204 28.4456 4.86496 28.4376 4.73339 28.4031C4.46652 28.3352 4.23714 28.1644 4.0951 27.9278C3.95306 27.6912 3.90985 27.4079 3.97486 27.1394C4.04569 26.8706 4.21875 26.6403 4.45689 26.498C4.69503 26.3557 4.97927 26.3128 5.24861 26.3784C5.51598 26.4492 5.74445 26.6235 5.88395 26.8631C6.02345 27.1026 6.06261 27.3879 5.99284 27.6564Z" fill="#42E8E0"/>
</g>
</svg>
