<svg width="60" height="70" viewBox="0 0 60 70" fill="none" xmlns="http://www.w3.org/2000/svg">
<path d="M30.1249 34.8189L0.439697 17.6552V51.963L30.1249 69.1268L59.8299 51.963V17.6552L30.1249 34.8189Z" fill="#42E8E0"/>
<path d="M30.1249 69.1268L0.439697 51.9827V17.6552L30.1249 34.8189V69.1268Z" fill="#42E8E0"/>
<path d="M59.83 51.9827L30.125 69.1268V34.8189L59.83 17.6552V51.9827Z" fill="#2FD3C7"/>
<path d="M30.1249 34.8189L0.439697 17.6551L30.1249 0.491333L59.8299 17.6551L30.1249 34.8189Z" fill="#42E8E0"/>
<path d="M30.125 30.597L7.73291 17.6551L30.125 4.71326L52.5367 17.6551L30.125 30.597Z" fill="#2FD3C7"/>
<path d="M30.1249 34.8189L0.439697 17.6552V19.1348L30.1249 36.2986L59.8299 19.1348V17.6552L30.1249 34.8189Z" fill="white"/>
</svg>
