<svg width="10" height="56" viewBox="0 0 10 56" fill="none" xmlns="http://www.w3.org/2000/svg">
<path opacity="0.9" d="M9.67966 37.6651C9.68249 37.9951 9.58754 38.3186 9.40686 38.5944C9.22617 38.8702 8.9679 39.086 8.6648 39.2142C8.36171 39.3425 8.02743 39.3775 7.70445 39.3149C7.38148 39.2523 7.08433 39.0948 6.85072 38.8624C6.61711 38.63 6.45757 38.3332 6.39234 38.0097C6.32711 37.6862 6.35914 37.3506 6.48436 37.0454C6.60959 36.7402 6.82238 36.4792 7.0957 36.2955C7.36901 36.1118 7.69053 36.0137 8.01949 36.0137C8.45732 36.0137 8.87746 36.1872 9.18839 36.4965C9.49932 36.8058 9.67588 37.2258 9.67966 37.6651Z" fill="#42E8E0"/>
<path opacity="0.9" d="M4.25553 21.1227C4.3324 21.3926 4.48641 21.6339 4.69849 21.8169C4.91057 21.9999 5.17142 22.1165 5.44884 22.1523C5.72625 22.1881 6.00806 22.1416 6.25941 22.0185C6.51076 21.8954 6.72065 21.7011 6.86314 21.4596C7.00562 21.2181 7.07444 20.94 7.06112 20.6597C7.0478 20.3794 6.95289 20.1091 6.78815 19.8823C6.6234 19.6555 6.39604 19.4821 6.13415 19.3836C5.87226 19.285 5.58737 19.2656 5.31462 19.3278C5.12488 19.371 4.94588 19.4526 4.78864 19.5676C4.63139 19.6826 4.49918 19.8286 4.40005 19.9966C4.30093 20.1646 4.23701 20.3511 4.21216 20.5447C4.18732 20.7383 4.20206 20.935 4.25553 21.1227Z" fill="#42E8E0"/>
<path opacity="0.9" d="M0.248127 54.4947C0.322573 54.766 0.474831 55.0094 0.685978 55.1946C0.897124 55.3798 1.15784 55.4987 1.43576 55.5365C1.71368 55.5743 1.99656 55.5293 2.24922 55.4071C2.50188 55.285 2.7132 55.091 2.85693 54.8494C3.00065 54.6077 3.07043 54.3291 3.05762 54.0479C3.04481 53.7668 2.94996 53.4957 2.78486 53.2682C2.61977 53.0407 2.3917 52.8669 2.12898 52.7684C1.86627 52.6699 1.58051 52.651 1.30718 52.7141C1.11901 52.7575 0.941551 52.8387 0.785471 52.9527C0.629392 53.0668 0.497927 53.2113 0.398984 53.3776C0.30004 53.544 0.235664 53.7287 0.209736 53.9207C0.183809 54.1127 0.196877 54.3079 0.248127 54.4947Z" fill="#42E8E0"/>
<path opacity="0.9" d="M4.49884 46.525C4.56944 46.7933 4.74314 47.0225 4.9819 47.1625C5.22067 47.3024 5.505 47.3417 5.77258 47.2717C5.96801 47.2177 6.14323 47.107 6.27626 46.9535C6.40929 46.8 6.49424 46.6106 6.5205 46.4089C6.54675 46.2072 6.51312 46.0022 6.42384 45.8196C6.33456 45.637 6.1936 45.4849 6.01857 45.3823C5.84353 45.2797 5.6422 45.2312 5.43981 45.2428C5.23742 45.2544 5.04297 45.3257 4.88075 45.4476C4.71853 45.5696 4.59578 45.7369 4.52784 45.9285C4.45991 46.1202 4.44982 46.3276 4.49884 46.525Z" fill="#42E8E0"/>
<path opacity="0.9" d="M9.67966 18.7965C9.67966 19.1259 9.58229 19.448 9.39987 19.7219C9.21745 19.9958 8.95816 20.2093 8.65481 20.3354C8.35146 20.4615 8.01764 20.4945 7.6956 20.4302C7.37357 20.3659 7.07777 20.2073 6.84559 19.9743C6.61341 19.7414 6.45533 19.4446 6.39128 19.1214C6.32722 18.7983 6.36009 18.4634 6.48575 18.159C6.6114 17.8546 6.82415 17.5945 7.09716 17.4115C7.37017 17.2284 7.69116 17.1307 8.0195 17.1307C8.4598 17.1307 8.88208 17.3062 9.19342 17.6186C9.50475 17.931 9.67966 18.3547 9.67966 18.7965Z" fill="#42E8E0"/>
<path opacity="0.9" d="M4.25553 2.25409C4.3324 2.52392 4.48641 2.76524 4.69849 2.94822C4.91057 3.13119 5.17142 3.24781 5.44884 3.28364C5.72625 3.31948 6.00806 3.27297 6.25941 3.14987C6.51076 3.02676 6.72065 2.83245 6.86314 2.59095C7.00562 2.34946 7.07444 2.07136 7.06112 1.79104C7.0478 1.51071 6.95289 1.24045 6.78815 1.01365C6.6234 0.786858 6.39604 0.613471 6.13415 0.514919C5.87226 0.416366 5.58737 0.396968 5.31462 0.459127C5.12488 0.502369 4.94588 0.583983 4.78864 0.698972C4.63139 0.813962 4.49918 0.959917 4.40005 1.12792C4.30093 1.29592 4.23701 1.48243 4.21216 1.67606C4.18732 1.86969 4.20206 2.06638 4.25553 2.25409Z" fill="#42E8E0"/>
<path opacity="0.9" d="M0.248242 35.6978C0.325115 35.9676 0.479082 36.2089 0.69116 36.3919C0.903238 36.5749 1.16414 36.6915 1.44156 36.7273C1.71897 36.7631 2.00074 36.7166 2.2521 36.5935C2.50345 36.4704 2.71334 36.2761 2.85583 36.0346C2.99832 35.7931 3.06718 35.515 3.05386 35.2347C3.04053 34.9544 2.94563 34.6841 2.78088 34.4573C2.61614 34.2305 2.38877 34.0571 2.12688 33.9586C1.86499 33.86 1.58005 33.8406 1.3073 33.9028C1.11755 33.946 0.938598 34.0276 0.781351 34.1426C0.624104 34.2576 0.49189 34.4036 0.392766 34.5716C0.293642 34.7396 0.229676 34.9261 0.204828 35.1197C0.179981 35.3134 0.194764 35.51 0.248242 35.6978Z" fill="#42E8E0"/>
<path opacity="0.9" d="M4.49875 27.6563C4.55013 27.8569 4.6595 28.0376 4.81313 28.1758C4.96675 28.314 5.15772 28.4035 5.36195 28.4329C5.56618 28.4624 5.77454 28.4305 5.96074 28.3413C6.14693 28.2521 6.30262 28.1095 6.40819 27.9317C6.51376 27.7538 6.56447 27.5485 6.55393 27.3418C6.5434 27.135 6.47211 26.936 6.34901 26.7699C6.22591 26.6037 6.0565 26.4779 5.86221 26.4082C5.66791 26.3385 5.45743 26.3281 5.25726 26.3783C5.12358 26.4119 4.99782 26.4716 4.88724 26.5541C4.77666 26.6365 4.68342 26.7402 4.61292 26.859C4.54242 26.9778 4.49603 27.1094 4.47643 27.2462C4.45683 27.3831 4.46444 27.5224 4.49875 27.6563Z" fill="#42E8E0"/>
</svg>
