<svg width="458" height="418" viewBox="0 0 458 418" fill="none" xmlns="http://www.w3.org/2000/svg">
<path style="mix-blend-mode:lighten" opacity="0.4" d="M12.3652 387.105L0 379.976L177.264 277.719L189.629 284.848L12.3652 387.105Z" fill="url(#paint0_linear)"/>
<path style="mix-blend-mode:lighten" opacity="0.4" d="M35.4528 400.654L23.1098 393.524L200.351 291.268L212.717 298.397L35.4528 400.654Z" fill="url(#paint1_linear)"/>
<path style="mix-blend-mode:lighten" opacity="0.4" d="M58.5626 414.202L46.1974 407.051L223.461 304.794L235.826 311.946L58.5626 414.202Z" fill="url(#paint2_linear)"/>
<path d="M176.531 47.8412L159.859 79.269L155.775 100.857V248.69L159.859 265.548L176.531 277.719L259.336 229.878V0L176.531 47.8412Z" fill="url(#paint3_linear)"/>
<path d="M258.026 94.9946L241.376 126.422L237.292 147.989V295.821L241.376 312.679L258.026 324.85L340.853 277.031V47.1533L258.026 94.9946Z" fill="url(#paint4_linear)"/>
<path d="M264.153 107.343L250.767 132.574L247.481 149.898V287.847L250.767 301.373L264.153 311.168L330.663 272.744V68.9189L264.153 107.343Z" fill="url(#paint5_linear)"/>
<path d="M251.055 301.573L247.77 288.047V150.098L251.055 132.774L264.442 107.543L330.663 69.2743V68.9189L264.153 107.343L250.767 132.574L247.481 149.898V287.847L250.767 301.373L264.153 311.168L251.055 301.573Z" fill="#5CFFF3"/>
<path d="M328.487 70.1627V271.7L262.377 309.88L264.153 311.168L330.663 272.744V68.9189L328.487 70.1627Z" fill="#5CFFF3"/>
<path d="M241.376 126.421L159.859 79.2686L176.531 47.8408L258.026 94.9935L241.376 126.421Z" fill="#363699"/>
<path d="M155.775 100.858L237.292 147.989L241.376 126.422L159.859 79.2695L155.775 100.858Z" fill="#312A91"/>
<path style="mix-blend-mode:lighten" opacity="0.7" d="M176.531 47.8408L258.026 94.9935L241.376 126.421L159.859 79.2686L176.531 47.8408Z" fill="url(#paint6_linear)"/>
<path d="M155.775 248.689L237.292 295.82L241.376 312.678L159.859 265.547L155.775 248.689Z" fill="#201977"/>
<path d="M241.376 312.677L159.859 265.547L176.531 277.718L258.026 324.849L241.376 312.677Z" fill="#15155E"/>
<path d="M237.292 147.988V295.82L155.775 248.69V100.857L237.292 147.988Z" fill="#2D1F84"/>
<path style="mix-blend-mode:lighten" opacity="0.7" d="M237.292 147.988V295.82L155.775 248.69V100.857L237.292 147.988Z" fill="url(#paint7_linear)"/>
<path d="M328.399 39.9343L325.557 41.5557L318.853 37.7133V34.4039L305.245 26.5414L302.403 28.185L295.699 24.3426V21.0333L282.135 13.1708L279.293 14.8143L272.589 10.9719V7.66259L259.336 0L176.531 47.8412L258.026 94.9939L340.853 47.1527L328.399 39.9343Z" fill="#2D1F84"/>
<path style="mix-blend-mode:lighten" opacity="0.7" d="M328.399 39.9343L325.557 41.5557L318.853 37.7133V34.4039L305.245 26.5414L302.403 28.185L295.699 24.3426V21.0333L282.135 13.1708L279.293 14.8143L272.589 10.9719V7.66259L259.336 0L176.531 47.8412L258.026 94.9939L340.853 47.1527L328.399 39.9343Z" fill="url(#paint8_linear)"/>
<path d="M182.658 92.4624L199.308 61.0125L279.293 14.8148L272.589 10.9724V7.66309L189.762 55.4821L173.09 86.9321L169.028 108.498V256.331L173.69 275.698L176.531 277.72L189.762 285.382L182.658 278.719L178.574 261.861V114.029L182.658 92.4624Z" fill="url(#paint9_linear)"/>
<path d="M175.932 88.5978L192.604 57.1701L272.589 10.9724V7.66309L189.762 55.4821L173.09 86.9321L169.028 108.498V256.331L173.69 275.698L176.531 277.72L171.869 257.997V110.164L175.932 88.5978Z" fill="#5CFFF3"/>
<path d="M205.768 105.833L222.44 74.3826L305.245 26.5414L302.403 28.185L295.699 24.3426V21.0332L212.872 68.8744L196.2 100.302L192.138 121.868V269.701L197.066 289.624L212.872 298.752L205.768 292.089L201.683 275.231V127.399L205.768 105.833Z" fill="url(#paint10_linear)"/>
<path d="M199.064 101.968L215.714 70.5402L295.699 24.3426V21.0332L212.872 68.8744L196.2 100.302L192.138 121.868V269.701L197.066 289.624L199.907 291.267L194.979 271.389V123.556L199.064 101.968Z" fill="#5CFFF3"/>
<path d="M228.922 119.204L245.594 87.7537L325.557 41.556L318.853 37.7136V34.4043L236.026 82.2455L219.354 113.673L215.292 135.262V283.072L220.22 302.995L236.026 312.123L228.922 305.46L224.838 288.602V140.77L228.922 119.204Z" fill="url(#paint11_linear)"/>
<path d="M236.026 82.2455L219.354 113.673L215.292 135.262V283.072L220.22 302.995L223.062 304.638L218.133 284.76V136.928L222.196 115.361L238.868 83.9113L318.853 37.7136V34.4043L236.026 82.2455Z" fill="#5CFFF3"/>
<path d="M301.027 168.51L317.698 158.893V155.229L301.027 164.846V168.51Z" fill="#42E8E0"/>
<path d="M292.48 173.463L298.496 169.998V166.333L292.48 169.798V173.463Z" fill="#42E8E0"/>
<path d="M285.864 177.284L289.949 174.929V171.265L285.864 173.619V177.284Z" fill="#42E8E0"/>
<path d="M308.619 172.508L317.698 167.266V163.602L308.619 168.843V172.508Z" fill="#42E8E0"/>
<path opacity="0.3" d="M294.944 180.392L306.066 173.973V170.309L294.944 176.727V180.392Z" fill="#42E8E0"/>
<path d="M288.328 184.214L292.391 181.859V178.217L288.328 180.571V184.214Z" fill="#42E8E0"/>
<path opacity="0.3" d="M282.024 187.855L286.109 185.501V181.858L282.024 184.213V187.855Z" fill="#42E8E0"/>
<path d="M311.127 179.416L317.699 175.618V171.953L311.127 175.751V179.416Z" fill="#42E8E0"/>
<path d="M306.332 182.192L308.574 180.882V177.217L306.332 178.527V182.192Z" fill="#42E8E0"/>
<path d="M299.717 186.012L303.779 183.658V179.993L299.717 182.347V186.012Z" fill="#42E8E0"/>
<path d="M293.457 197.984L317.698 183.992V180.327L293.457 194.32V197.984Z" fill="#42E8E0"/>
<path d="M284.91 202.914L290.904 199.449V195.807L284.91 199.271V202.914Z" fill="#5CFFF3"/>
<path d="M311.127 196.14L317.699 192.342V188.678L311.127 192.476V196.14Z" fill="#42E8E0"/>
<path opacity="0.3" d="M295.721 205.047L308.574 197.606V193.941L295.721 201.382V205.047Z" fill="#42E8E0"/>
<path d="M289.083 208.867L293.168 206.512V202.848L289.083 205.202V208.867Z" fill="#42E8E0"/>
<path d="M304.268 208.467L317.699 200.716V197.051L304.268 204.802V208.467Z" fill="#42E8E0"/>
<path d="M291.991 215.552L301.715 209.933V206.29L291.991 211.887V215.552Z" fill="#42E8E0"/>
<path d="M282.867 220.815L289.438 217.017V213.353L282.867 217.151V220.815Z" fill="#42E8E0"/>
<path d="M313.148 211.688L317.699 209.067V205.402L313.148 208.023V211.688Z" fill="#42E8E0"/>
<path opacity="0.3" d="M304.623 216.618L310.617 213.153V209.511L304.623 212.976V216.618Z" fill="#42E8E0"/>
<path d="M292.391 223.681L302.07 218.106V214.441L292.391 220.016V223.681Z" fill="#42E8E0"/>
<path d="M303.779 225.458L317.698 217.44V213.775L303.779 221.793V225.458Z" fill="#5CFFF3"/>
<path d="M288.217 234.453L301.249 226.924V223.281L288.217 230.811V234.453Z" fill="#42E8E0"/>
<path d="M281.602 238.295L285.664 235.941V232.276L281.602 234.631V238.295Z" fill="#5CFFF3"/>
<path d="M275.231 241.96L279.315 239.606V235.941L275.231 238.296V241.96Z" fill="#42E8E0"/>
<path d="M309.374 230.61L317.699 225.791V222.126L309.374 226.946V230.61Z" fill="#42E8E0"/>
<path opacity="0.3" d="M274.52 183.836L262.976 190.499V186.856L274.52 180.171V183.836Z" fill="#42E8E0"/>
<path d="M272.056 193.631L262.976 198.872V195.207L272.056 189.966V193.631Z" fill="#42E8E0"/>
<path d="M269.548 203.426L262.976 207.224V203.581L269.548 199.783V203.426Z" fill="#42E8E0"/>
<path d="M272.522 210.066L262.976 215.597V211.932L272.522 206.424V210.066Z" fill="#42E8E0"/>
<path d="M269.548 220.173L262.976 223.948V220.306L269.548 216.508V220.173Z" fill="#5CFFF3"/>
<path opacity="0.3" d="M271.301 227.502L262.976 232.321V228.657L271.301 223.837V227.502Z" fill="#42E8E0"/>
<path d="M267.505 238.052L262.976 240.673V237.03L267.505 234.409V238.052Z" fill="#42E8E0"/>
<path d="M271.768 243.96L262.976 249.046V245.381L271.768 240.295V243.96Z" fill="#42E8E0"/>
<path d="M271.301 252.599L262.976 257.397V253.754L271.301 248.935V252.599Z" fill="#42E8E0"/>
<path d="M303.269 234.12L306.821 232.077V228.412L303.269 230.455V234.12Z" fill="#42E8E0"/>
<path opacity="0.3" d="M292.768 240.206L300.738 235.586V231.943L292.768 236.541V240.206Z" fill="#42E8E0"/>
<path d="M304.268 242.027L317.699 234.275V230.61L304.268 238.362V242.027Z" fill="#42E8E0"/>
<path d="M291.991 249.112L301.715 243.515V239.851L291.991 245.448V249.112Z" fill="#42E8E0"/>
<path d="M282.867 254.376L289.438 250.578V246.936L282.867 250.711V254.376Z" fill="#42E8E0"/>
<path d="M313.148 245.247L317.699 242.627V238.962L313.148 241.605V245.247Z" fill="#42E8E0"/>
<path opacity="0.3" d="M304.623 250.179L310.617 246.714V243.071L304.623 246.536V250.179Z" fill="#42E8E0"/>
<path d="M292.391 257.242L302.07 251.667V248.002L292.391 253.577V257.242Z" fill="#42E8E0"/>
<path d="M303.779 259.019L317.698 251.001V247.336L303.779 255.376V259.019Z" fill="#5CFFF3"/>
<path d="M288.217 268.013L301.249 260.506V256.841L288.217 264.37V268.013Z" fill="#42E8E0"/>
<path d="M281.602 271.856L285.664 269.502V265.837L281.602 268.191V271.856Z" fill="#5CFFF3"/>
<path d="M275.231 275.52L279.315 273.166V269.501L275.231 271.855V275.52Z" fill="#42E8E0"/>
<path d="M309.374 264.17L317.699 259.351V255.708L309.374 260.505V264.17Z" fill="#42E8E0"/>
<path opacity="0.3" d="M271.301 261.061L262.976 265.881V262.216L271.301 257.396V261.061Z" fill="#42E8E0"/>
<path d="M267.505 271.633L262.976 274.232V270.59L267.505 267.969V271.633Z" fill="#42E8E0"/>
<path d="M271.768 277.518L262.976 282.605V278.94L271.768 273.876V277.518Z" fill="#42E8E0"/>
<path d="M271.301 286.16L262.976 290.979V287.315L271.301 282.495V286.16Z" fill="#42E8E0"/>
<path d="M303.269 267.68L306.821 265.636V261.972L303.269 264.037V267.68Z" fill="#42E8E0"/>
<path opacity="0.3" d="M292.768 273.765L300.738 269.168V265.503L292.768 270.1V273.765Z" fill="#42E8E0"/>
<path d="M311.127 105.011L317.699 101.213V97.5479L311.127 101.346V105.011Z" fill="#42E8E0"/>
<path d="M306.332 107.764L308.574 106.476V102.812L306.332 104.122V107.764Z" fill="#42E8E0"/>
<path d="M299.717 111.585L303.779 109.253V105.588L299.717 107.942V111.585Z" fill="#42E8E0"/>
<path d="M293.457 123.579L317.698 109.564V105.922L293.457 119.914V123.579Z" fill="#42E8E0"/>
<path d="M284.91 128.51L290.904 125.046V121.381L284.91 124.846V128.51Z" fill="#5CFFF3"/>
<path d="M311.127 121.735L317.699 117.937V114.272L311.127 118.07V121.735Z" fill="#42E8E0"/>
<path opacity="0.3" d="M295.721 130.642L308.574 123.202V119.537L295.721 126.978V130.642Z" fill="#42E8E0"/>
<path d="M289.083 134.462L293.168 132.108V128.443L289.083 130.798V134.462Z" fill="#42E8E0"/>
<path d="M304.268 134.062L317.699 126.31V122.646L304.268 130.397V134.062Z" fill="#42E8E0"/>
<path d="M291.991 141.147L301.715 135.528V131.863L291.991 137.483V141.147Z" fill="#42E8E0"/>
<path d="M282.867 146.411L289.438 142.613V138.948L282.867 142.746V146.411Z" fill="#42E8E0"/>
<path d="M313.148 137.283L317.699 134.662V130.997L313.148 133.618V137.283Z" fill="#42E8E0"/>
<path opacity="0.3" d="M304.623 142.214L310.617 138.749V135.084L304.623 138.549V142.214Z" fill="#42E8E0"/>
<path d="M292.391 149.276L302.07 143.679V140.036L292.391 145.611V149.276Z" fill="#42E8E0"/>
<path d="M303.779 151.053L317.698 143.013V139.37L303.779 147.388V151.053Z" fill="#5CFFF3"/>
<path d="M288.217 160.049L301.249 152.519V148.877L288.217 156.384V160.049Z" fill="#42E8E0"/>
<path d="M281.602 163.869L285.664 161.515V157.872L281.602 160.226V163.869Z" fill="#5CFFF3"/>
<path d="M275.231 167.556L279.315 165.202V161.537L275.231 163.891V167.556Z" fill="#42E8E0"/>
<path d="M309.374 156.205L317.699 151.385V147.721L309.374 152.54V156.205Z" fill="#42E8E0"/>
<path d="M269.548 129.02L262.976 132.818V129.154L269.548 125.378V129.02Z" fill="#42E8E0"/>
<path d="M272.522 135.661L262.976 141.191V137.526L272.522 131.996V135.661Z" fill="#42E8E0"/>
<path d="M269.548 145.745L262.976 149.543V145.878L269.548 142.103V145.745Z" fill="#5CFFF3"/>
<path opacity="0.3" d="M271.301 153.096L262.976 157.916V154.251L271.301 149.432V153.096Z" fill="#42E8E0"/>
<path d="M267.505 163.647L262.976 166.268V162.603L267.505 159.982V163.647Z" fill="#42E8E0"/>
<path d="M271.768 169.554L262.976 174.641V170.976L271.768 165.89V169.554Z" fill="#42E8E0"/>
<path d="M271.301 178.194L262.976 182.991V179.349L271.301 174.529V178.194Z" fill="#42E8E0"/>
<path d="M303.269 159.715L306.821 157.672V154.007L303.269 156.05V159.715Z" fill="#42E8E0"/>
<path opacity="0.3" d="M292.768 165.801L300.738 161.181V157.517L292.768 162.136V165.801Z" fill="#42E8E0"/>
<path style="mix-blend-mode:lighten" opacity="0.7" d="M330.663 68.9189L458 141.814V418L264.153 311.168L250.767 301.373L247.481 287.847V149.898L250.767 132.574L264.153 107.343L330.663 68.9189Z" fill="url(#paint12_linear)"/>
<defs>
<linearGradient id="paint0_linear" x1="31.7066" y1="366.34" x2="105.757" y2="235.875" gradientUnits="userSpaceOnUse">
<stop stopColor="#180D5B"/>
<stop offset="0.09" stopColor="#1A1660"/>
<stop offset="0.25" stopColor="#1E2D6E"/>
<stop offset="0.44" stopColor="#255385"/>
<stop offset="0.66" stopColor="#2F87A5"/>
<stop offset="0.9" stopColor="#3CCACE"/>
<stop offset="1" stopColor="#42E8E0"/>
</linearGradient>
<linearGradient id="paint1_linear" x1="-120026" y1="8921.85" x2="-120050" y2="1516.25" gradientUnits="userSpaceOnUse">
<stop stopColor="#180D5B"/>
<stop offset="0.09" stopColor="#1A1660"/>
<stop offset="0.25" stopColor="#1E2D6E"/>
<stop offset="0.44" stopColor="#255385"/>
<stop offset="0.66" stopColor="#2F87A5"/>
<stop offset="0.9" stopColor="#3CCACE"/>
<stop offset="1" stopColor="#42E8E0"/>
</linearGradient>
<linearGradient id="paint2_linear" x1="-117723" y1="8945.88" x2="-117746" y2="1538.77" gradientUnits="userSpaceOnUse">
<stop stopColor="#180D5B"/>
<stop offset="0.09" stopColor="#1A1660"/>
<stop offset="0.25" stopColor="#1E2D6E"/>
<stop offset="0.44" stopColor="#255385"/>
<stop offset="0.66" stopColor="#2F87A5"/>
<stop offset="0.9" stopColor="#3CCACE"/>
<stop offset="1" stopColor="#42E8E0"/>
</linearGradient>
<linearGradient id="paint3_linear" x1="155.775" y1="138.86" x2="259.336" y2="138.86" gradientUnits="userSpaceOnUse">
<stop stopColor="#2B237C"/>
<stop offset="1" stopColor="#180D5B"/>
</linearGradient>
<linearGradient id="paint4_linear" x1="6244.87" y1="13085" x2="19775.7" y2="15500.2" gradientUnits="userSpaceOnUse">
<stop stopColor="#2B237C"/>
<stop offset="1" stopColor="#180D5B"/>
</linearGradient>
<linearGradient id="paint5_linear" x1="147.272" y1="180.126" x2="424.413" y2="198.41" gradientUnits="userSpaceOnUse">
<stop stopColor="#42E8E0"/>
<stop offset="0.22" stopColor="#3CBDC8"/>
<stop offset="0.71" stopColor="#2D528E"/>
<stop offset="1" stopColor="#24126A"/>
</linearGradient>
<linearGradient id="paint6_linear" x1="11837.8" y1="4241.68" x2="7544.97" y2="1188.79" gradientUnits="userSpaceOnUse">
<stop stopColor="#180D5B"/>
<stop offset="0.09" stopColor="#1A1660"/>
<stop offset="0.25" stopColor="#1E2D6E"/>
<stop offset="0.44" stopColor="#255385"/>
<stop offset="0.66" stopColor="#2F87A5"/>
<stop offset="0.9" stopColor="#3CCACE"/>
<stop offset="1" stopColor="#42E8E0"/>
</linearGradient>
<linearGradient id="paint7_linear" x1="9055.8" y1="18869.9" x2="3874.4" y2="18138.9" gradientUnits="userSpaceOnUse">
<stop stopColor="#180D5B"/>
<stop offset="0.09" stopColor="#1A1660"/>
<stop offset="0.25" stopColor="#1E2D6E"/>
<stop offset="0.44" stopColor="#255385"/>
<stop offset="0.66" stopColor="#2F87A5"/>
<stop offset="0.9" stopColor="#3CCACE"/>
<stop offset="1" stopColor="#42E8E0"/>
</linearGradient>
<linearGradient id="paint8_linear" x1="21208" y1="2681.68" x2="14355.5" y2="-4398.79" gradientUnits="userSpaceOnUse">
<stop stopColor="#180D5B"/>
<stop offset="0.09" stopColor="#1A1660"/>
<stop offset="0.25" stopColor="#1E2D6E"/>
<stop offset="0.44" stopColor="#255385"/>
<stop offset="0.66" stopColor="#2F87A5"/>
<stop offset="0.9" stopColor="#3CCACE"/>
<stop offset="1" stopColor="#42E8E0"/>
</linearGradient>
<linearGradient id="paint9_linear" x1="8564.64" y1="18328.8" x2="20278.1" y2="18328.8" gradientUnits="userSpaceOnUse">
<stop stopColor="#42E8E0"/>
<stop offset="0.22" stopColor="#3CBDC8"/>
<stop offset="0.71" stopColor="#2D528E"/>
<stop offset="1" stopColor="#24126A"/>
</linearGradient>
<linearGradient id="paint10_linear" x1="9981.54" y1="20014" x2="22954.9" y2="20014" gradientUnits="userSpaceOnUse">
<stop stopColor="#42E8E0"/>
<stop offset="0.22" stopColor="#3CBDC8"/>
<stop offset="0.71" stopColor="#2D528E"/>
<stop offset="1" stopColor="#24126A"/>
</linearGradient>
<linearGradient id="paint11_linear" x1="10908.8" y1="21699.3" x2="23826.4" y2="21699.3" gradientUnits="userSpaceOnUse">
<stop stopColor="#42E8E0"/>
<stop offset="0.22" stopColor="#3CBDC8"/>
<stop offset="0.71" stopColor="#2D528E"/>
<stop offset="1" stopColor="#24126A"/>
</linearGradient>
<linearGradient id="paint12_linear" x1="44052.2" y1="38181.6" x2="15935.9" y2="38422.8" gradientUnits="userSpaceOnUse">
<stop stopColor="#180D5B"/>
<stop offset="0.09" stopColor="#1A1660"/>
<stop offset="0.25" stopColor="#1E2D6E"/>
<stop offset="0.44" stopColor="#255385"/>
<stop offset="0.66" stopColor="#2F87A5"/>
<stop offset="0.9" stopColor="#3CCACE"/>
<stop offset="1" stopColor="#42E8E0"/>
</linearGradient>
</defs>
</svg>
