<svg xmlns="http://www.w3.org/2000/svg" width="214" height="190" fill="none" viewBox="0 0 214 190">
    <path fill="url(#paint0_linear)" d="M152.152 0h-90.89c-5.65 0-10.87 3.01-13.7 7.91L2.123 86.62c-2.83 4.89-2.83 10.92 0 15.82l45.44 78.71c2.83 4.89 8.05 7.91 13.7 7.91h90.89c5.65 0 10.871-3.01 13.701-7.91l45.439-78.71c2.83-4.89 2.83-10.92 0-15.82l-45.45-78.71c-2.82-4.9-8.04-7.91-13.69-7.91z"/>
    <path stroke="#fff" stroke-miterlimit="10" stroke-width="7" d="M91.132 57.86l15.52 19.99 16.41-21.5h23.21l-28.15 36.9 41.54 54.66H51.272V57.95"/>
    <path stroke="#fff" stroke-miterlimit="10" stroke-width="7" d="M162.132 119.36l.11-79.91H53.862l41.53 54.65-28.15 36.91h23.22l16.41-21.51 14.89 19.73"/>
    <path stroke="#fff" stroke-miterlimit="10" stroke-width="7" d="M60.873 70.76l-9.46-14.23-8.71 14.23"/>
    <path stroke="#fff" stroke-miterlimit="10" stroke-width="3" d="M162.292 128.97c2.762 0 5-2.239 5-5s-2.238-5-5-5c-2.761 0-5 2.239-5 5s2.239 5 5 5zM88.272 59.95c2.762 0 5-2.239 5-5s-2.238-5-5-5c-2.761 0-5 2.239-5 5s2.239 5 5 5zM124.283 137.98c2.761 0 5-2.239 5-5s-2.239-5-5-5c-2.762 0-5 2.239-5 5s2.238 5 5 5z"/>
    <defs>
        <linearGradient id="paint0_linear" x1="179.966" x2="33.445" y1="21.265" y2="167.787" gradientUnits="userSpaceOnUse">
            <stop stop-color="#29ABE2"/>
            <stop offset=".994" stop-color="#1FADAD"/>
        </linearGradient>
    </defs>
</svg>
